<svg width="209" height="283" viewBox="0 0 209 283" fill="none" xmlns="http://www.w3.org/2000/svg">
<path d="M202.128 275.162H207.913" stroke="#220E37" stroke-linecap="round" stroke-linejoin="round"/>
<path d="M2.84131 275.162H198.85" stroke="#220E37" stroke-linecap="round" stroke-linejoin="round"/>
<path d="M10.5569 162.128L19.4643 247.561" stroke="#220E37" stroke-width="2" stroke-miterlimit="10"/>
<path d="M18.0289 231.211L13.9917 226.941" stroke="#220E37" stroke-width="2" stroke-miterlimit="10"/>
<path d="M15.2159 228.217C15.2075 227.564 15.0597 226.921 14.7822 226.331C14.5048 225.741 14.1042 225.216 13.6074 224.793C12.5757 223.863 7.11592 221.587 6.59685 223.511C6.04575 225.582 11.6209 229.692 15.2159 228.217Z" fill="#299946" stroke="#220E37" stroke-miterlimit="10"/>
<path d="M15.2157 228.217L10.0251 224.979" stroke="#220E37" stroke-width="0.5" stroke-miterlimit="10"/>
<path d="M19.0413 240.924L15.0042 236.654" stroke="#220E37" stroke-width="2" stroke-miterlimit="10"/>
<path d="M16.228 237.937C16.2202 237.283 16.0726 236.639 15.7951 236.047C15.5177 235.455 15.1168 234.93 14.6195 234.506C13.5878 233.584 8.12805 231.301 7.60899 233.224C7.04507 235.295 12.633 239.405 16.228 237.937Z" fill="#299946" stroke="#220E37" stroke-miterlimit="10"/>
<path d="M16.2282 237.937L11.0377 234.699" stroke="#220E37" stroke-width="0.5" stroke-miterlimit="10"/>
<path d="M15.5555 207.502L11.5183 203.232" stroke="#220E37" stroke-width="2" stroke-miterlimit="10"/>
<path d="M12.7422 204.514C12.7343 203.861 12.5867 203.216 12.3093 202.625C12.0319 202.033 11.631 201.508 11.1337 201.084C10.102 200.154 4.64221 197.878 4.12315 199.801C3.55923 201.873 9.14719 205.982 12.7422 204.514Z" fill="#299946" stroke="#220E37" stroke-miterlimit="10"/>
<path d="M12.742 204.514L7.55139 201.27" stroke="#220E37" stroke-width="0.5" stroke-miterlimit="10"/>
<path d="M16.5679 217.215L12.5307 212.951" stroke="#220E37" stroke-width="2" stroke-miterlimit="10"/>
<path d="M13.7356 214.253C13.7294 213.6 13.5831 212.955 13.3067 212.364C13.0303 211.772 12.6302 211.246 12.1335 210.822C11.0954 209.9 5.6356 207.617 5.08449 209.54C4.57824 211.592 10.1598 215.696 13.7356 214.253Z" fill="#299946" stroke="#220E37" stroke-miterlimit="10"/>
<path d="M13.7545 214.227L8.56384 210.989" stroke="#220E37" stroke-width="0.5" stroke-miterlimit="10"/>
<path d="M13.9085 191.717L9.87134 187.453" stroke="#220E37" stroke-width="2" stroke-miterlimit="10"/>
<path d="M11.0954 188.729C11.0874 188.076 10.9405 187.433 10.6643 186.841C10.388 186.249 9.98879 185.724 9.49331 185.299C8.45515 184.375 2.99541 182.093 2.4443 184.017C1.91242 186.094 7.50036 190.197 11.0954 188.729Z" fill="#299946" stroke="#220E37" stroke-miterlimit="10"/>
<path d="M11.0954 188.729L5.90472 185.491" stroke="#220E37" stroke-width="0.5" stroke-miterlimit="10"/>
<path d="M12.2549 175.867L8.21777 171.598" stroke="#220E37" stroke-width="2" stroke-miterlimit="10"/>
<path d="M9.44184 172.88C9.43438 172.227 9.2876 171.583 9.01135 170.992C8.73501 170.4 8.33563 169.875 7.83982 169.449C6.8017 168.527 1.34192 166.244 0.822853 168.167C0.278155 170.239 5.84688 174.348 9.44184 172.88Z" fill="#299946" stroke="#220E37" stroke-miterlimit="10"/>
<path d="M9.44185 172.88L4.25122 169.642" stroke="#220E37" stroke-width="0.5" stroke-miterlimit="10"/>
<path d="M17.3497 225.46L20.4193 220.452" stroke="#220E37" stroke-width="2" stroke-miterlimit="10"/>
<path d="M19.5027 221.947C19.3765 221.306 19.3884 220.646 19.5376 220.01C19.6868 219.374 19.9698 218.778 20.3678 218.26C21.1944 217.138 26.0582 213.772 26.9618 215.541C27.9231 217.459 23.3092 222.652 19.5027 221.947Z" fill="#299946" stroke="#220E37" stroke-miterlimit="10"/>
<path d="M19.4836 221.953L24.1616 217.484" stroke="#220E37" stroke-width="0.5" stroke-miterlimit="10"/>
<path d="M14.6838 199.898L17.7533 194.884" stroke="#220E37" stroke-width="2" stroke-miterlimit="10"/>
<path d="M16.8179 196.39C16.6917 195.75 16.7036 195.089 16.8528 194.454C17.002 193.818 17.285 193.221 17.683 192.704C18.5096 191.582 23.3735 188.216 24.277 189.979C25.2703 191.909 20.6436 197.083 16.8179 196.39Z" fill="#299946" stroke="#220E37" stroke-miterlimit="10"/>
<path d="M16.8177 196.391L21.4957 191.916" stroke="#220E37" stroke-width="0.5" stroke-miterlimit="10"/>
<path d="M13.511 188.658L16.5805 183.645" stroke="#220E37" stroke-width="2" stroke-miterlimit="10"/>
<path d="M15.6577 185.151C15.5315 184.511 15.5435 183.85 15.6927 183.215C15.8418 182.579 16.1248 181.982 16.5229 181.465C17.3495 180.343 22.2133 176.976 23.1169 178.746C24.0845 180.676 19.5027 185.85 15.6577 185.151Z" fill="#299946" stroke="#220E37" stroke-miterlimit="10"/>
<path d="M15.6448 185.151L20.3228 180.676" stroke="#220E37" stroke-width="0.5" stroke-miterlimit="10"/>
<path d="M11.7938 172.187L14.8633 167.174" stroke="#220E37" stroke-width="2" stroke-miterlimit="10"/>
<path d="M13.9275 168.681C13.8013 168.04 13.8132 167.38 13.9624 166.744C14.1116 166.108 14.3946 165.511 14.7926 164.994C15.6192 163.872 20.483 160.506 21.3866 162.275C22.3671 164.205 17.7532 169.373 13.9275 168.681Z" fill="#299946" stroke="#220E37" stroke-miterlimit="10"/>
<path d="M13.9277 168.681L18.6057 164.205" stroke="#220E37" stroke-width="0.5" stroke-miterlimit="10"/>
<path d="M10.48 161.68C10.3538 161.039 10.3657 160.379 10.5149 159.743C10.6641 159.107 10.9471 158.51 11.3451 157.993C12.1717 156.871 17.0356 153.505 17.9391 155.268C18.9196 157.191 14.3056 162.352 10.48 161.68Z" fill="#299946" stroke="#220E37" stroke-miterlimit="10"/>
<path d="M10.4802 161.66L15.1581 157.184" stroke="#220E37" stroke-width="0.5" stroke-miterlimit="10"/>
<path d="M10.7493 161.852C10.0995 161.911 9.44489 161.83 8.8292 161.614C8.21352 161.398 7.65117 161.053 7.17989 160.602C6.14818 159.666 3.30294 154.472 5.16131 153.755C7.1863 152.979 11.8451 158.121 10.7493 161.852Z" fill="#299946" stroke="#220E37" stroke-miterlimit="10"/>
<path d="M10.7491 161.852L6.79523 156.723" stroke="#220E37" stroke-width="0.5" stroke-miterlimit="10"/>
<path d="M34.0557 173.892L25.1996 259.325" stroke="#220E37" stroke-width="2" stroke-miterlimit="10"/>
<path d="M27.1541 243.034L24.0782 238.027" stroke="#220E37" stroke-width="2" stroke-miterlimit="10"/>
<path d="M25.02 239.526C25.1458 238.886 25.133 238.225 24.9827 237.59C24.8324 236.954 24.548 236.357 24.1485 235.84C23.3283 234.725 18.4581 231.352 17.5545 233.128C16.5741 235.058 21.1944 240.225 25.02 239.526Z" fill="#299946" stroke="#220E37" stroke-miterlimit="10"/>
<path d="M25.0203 239.526L20.605 235.289" stroke="#220E37" stroke-width="0.5" stroke-miterlimit="10"/>
<path d="M29.6149 219.324L26.539 214.317" stroke="#220E37" stroke-width="2" stroke-miterlimit="10"/>
<path d="M27.4807 215.817C27.6065 215.176 27.5937 214.516 27.4434 213.88C27.2931 213.244 27.0088 212.648 26.6092 212.131C25.789 211.015 20.9188 207.643 20.0152 209.418C19.0348 211.348 23.6551 216.516 27.4807 215.817Z" fill="#299946" stroke="#220E37" stroke-miterlimit="10"/>
<path d="M27.4809 215.817L23.0592 211.579" stroke="#220E37" stroke-width="0.5" stroke-miterlimit="10"/>
<path d="M28.6089 229.037L25.533 224.03" stroke="#220E37" stroke-width="2" stroke-miterlimit="10"/>
<path d="M26.4685 225.537C26.5968 224.896 26.5859 224.236 26.4366 223.6C26.2874 222.963 26.0032 222.367 25.6034 221.85C24.7767 220.728 19.9129 217.362 19.0094 219.132C18.0289 221.061 22.6492 226.236 26.4685 225.537Z" fill="#299946" stroke="#220E37" stroke-miterlimit="10"/>
<path d="M26.4686 225.537L22.0533 221.299" stroke="#220E37" stroke-width="0.5" stroke-miterlimit="10"/>
<path d="M31.2489 203.539L28.1794 198.532" stroke="#220E37" stroke-width="2" stroke-miterlimit="10"/>
<path d="M29.115 200.039C29.2412 199.398 29.2293 198.738 29.0801 198.102C28.9309 197.466 28.6479 196.87 28.2499 196.352C27.4232 195.23 22.553 191.864 21.6558 193.633C20.669 195.563 25.2701 200.731 29.115 200.039Z" fill="#299946" stroke="#220E37" stroke-miterlimit="10"/>
<path d="M29.1149 200.039L24.6997 195.794" stroke="#220E37" stroke-width="0.5" stroke-miterlimit="10"/>
<path d="M32.8959 187.69L29.8199 182.683" stroke="#220E37" stroke-width="2" stroke-miterlimit="10"/>
<path d="M30.7617 184.184C30.8875 183.542 30.8747 182.882 30.7244 182.246C30.5741 181.61 30.2897 181.014 29.8902 180.497C29.07 179.381 24.1998 176.009 23.2962 177.785C22.3158 179.714 26.9361 184.882 30.7617 184.184Z" fill="#299946" stroke="#220E37" stroke-miterlimit="10"/>
<path d="M30.7619 184.183L26.3402 179.946" stroke="#220E37" stroke-width="0.5" stroke-miterlimit="10"/>
<path d="M27.673 237.27L31.7102 233" stroke="#220E37" stroke-width="2" stroke-miterlimit="10"/>
<path d="M30.4863 234.276C30.4942 233.623 30.6412 232.979 30.9174 232.388C31.1937 231.796 31.5929 231.271 32.0884 230.846C33.1265 229.923 38.5799 227.64 39.0989 229.563C39.6693 231.634 34.0813 235.744 30.4863 234.276Z" fill="#299946" stroke="#220E37" stroke-miterlimit="10"/>
<path d="M30.4863 234.276L35.9845 230.865" stroke="#220E37" stroke-width="0.5" stroke-miterlimit="10"/>
<path d="M30.3264 211.701L34.3635 207.431" stroke="#220E37" stroke-width="2" stroke-miterlimit="10"/>
<path d="M33.1392 208.707C33.1455 208.054 33.2917 207.41 33.5681 206.818C33.8445 206.226 34.2446 205.701 34.7413 205.277C35.7795 204.354 41.2328 202.071 41.7519 203.994C42.3158 206.066 36.7343 210.175 33.1392 208.707Z" fill="#299946" stroke="#220E37" stroke-miterlimit="10"/>
<path d="M33.1392 208.707L38.6375 205.296" stroke="#220E37" stroke-width="0.5" stroke-miterlimit="10"/>
<path d="M31.4926 200.462L35.5298 196.192" stroke="#220E37" stroke-width="2" stroke-miterlimit="10"/>
<path d="M34.2994 197.474C34.3073 196.82 34.4549 196.176 34.7324 195.584C35.0098 194.993 35.4106 194.467 35.9079 194.044C36.946 193.114 42.3994 190.838 42.9185 192.761C43.4824 194.833 37.9008 198.942 34.2994 197.474Z" fill="#299946" stroke="#220E37" stroke-miterlimit="10"/>
<path d="M34.2994 197.474L39.7977 194.057" stroke="#220E37" stroke-width="0.5" stroke-miterlimit="10"/>
<path d="M33.1972 183.991L37.2344 179.721" stroke="#220E37" stroke-width="2" stroke-miterlimit="10"/>
<path d="M36.0101 181.003C36.0179 180.35 36.1655 179.706 36.443 179.114C36.7204 178.522 37.1213 177.997 37.6186 177.573C38.6503 176.643 44.1101 174.367 44.6291 176.291C45.193 178.349 39.6115 182.471 36.0101 181.003Z" fill="#299946" stroke="#220E37" stroke-miterlimit="10"/>
<path d="M36.0101 181.003L41.5083 177.586" stroke="#220E37" stroke-width="0.5" stroke-miterlimit="10"/>
<path d="M34.0815 173.418C34.093 172.769 34.2424 172.13 34.5197 171.543C34.7969 170.956 35.1959 170.435 35.69 170.014C36.7217 169.085 42.1815 166.808 42.7005 168.732C43.2644 170.771 37.6765 174.887 34.0815 173.418Z" fill="#299946" stroke="#220E37" stroke-miterlimit="10"/>
<path d="M34.0815 173.418L39.5797 170.001" stroke="#220E37" stroke-width="0.5" stroke-miterlimit="10"/>
<path d="M34.3057 173.662C33.6637 173.582 33.0461 173.366 32.4937 173.029C31.9413 172.691 31.4669 172.241 31.1017 171.706C30.2878 170.578 28.5383 164.904 30.5377 164.59C32.646 164.244 36.1641 170.232 34.3057 173.662Z" fill="#299946" stroke="#220E37" stroke-miterlimit="10"/>
<path d="M34.3059 173.662L31.4926 167.834" stroke="#220E37" stroke-width="0.5" stroke-miterlimit="10"/>
<path d="M23.9052 139.111V247.143" stroke="#220E37" stroke-width="2" stroke-miterlimit="10"/>
<path d="M23.9886 230.897L20.4128 226.236" stroke="#220E37" stroke-width="2" stroke-miterlimit="10"/>
<path d="M21.5023 227.633C21.5631 226.982 21.4835 226.327 21.269 225.71C21.0545 225.093 20.7102 224.528 20.2591 224.056C19.3235 223.024 14.1329 220.177 13.4216 222.036C12.6461 224.056 17.7727 228.724 21.5023 227.633Z" fill="#299946" stroke="#220E37" stroke-miterlimit="10"/>
<path d="M21.5021 227.633L16.6703 223.87" stroke="#220E37" stroke-width="0.5" stroke-miterlimit="10"/>
<path d="M23.9886 210.598L20.4128 205.93" stroke="#220E37" stroke-width="2" stroke-miterlimit="10"/>
<path d="M21.5023 207.328C21.5631 206.678 21.4835 206.022 21.269 205.405C21.0545 204.787 20.7102 204.224 20.2591 203.751C19.3235 202.725 14.1329 199.872 13.4216 201.731C12.6461 203.751 17.7727 208.418 21.5023 207.328Z" fill="#299946" stroke="#220E37" stroke-miterlimit="10"/>
<path d="M21.5021 207.328L16.6703 203.571" stroke="#220E37" stroke-width="0.5" stroke-miterlimit="10"/>
<path d="M23.9886 186.76L20.4128 182.093" stroke="#220E37" stroke-width="2" stroke-miterlimit="10"/>
<path d="M21.5023 183.478C21.5634 182.828 21.484 182.173 21.2694 181.557C21.0549 180.941 20.7103 180.378 20.2591 179.907C19.3235 178.875 14.1329 176.021 13.4216 177.88C12.6461 179.92 17.7727 184.58 21.5023 183.478Z" fill="#299946" stroke="#220E37" stroke-miterlimit="10"/>
<path d="M21.5021 183.491L16.6703 179.733" stroke="#220E37" stroke-width="0.5" stroke-miterlimit="10"/>
<path d="M23.9886 170.893L20.4128 166.225" stroke="#220E37" stroke-width="2" stroke-miterlimit="10"/>
<path d="M21.5023 167.622C21.5634 166.973 21.484 166.318 21.2694 165.701C21.0549 165.085 20.7103 164.522 20.2591 164.051C19.3235 163.019 14.1329 160.166 13.4216 162.025C12.6461 164.051 17.7727 168.732 21.5023 167.622Z" fill="#299946" stroke="#220E37" stroke-miterlimit="10"/>
<path d="M21.5021 167.622L16.6703 163.866" stroke="#220E37" stroke-width="0.5" stroke-miterlimit="10"/>
<path d="M23.9886 154.954L20.4128 150.286" stroke="#220E37" stroke-width="2" stroke-miterlimit="10"/>
<path d="M21.5023 151.69C21.5631 151.039 21.4835 150.383 21.269 149.766C21.0545 149.149 20.7102 148.585 20.2591 148.113C19.3235 147.081 14.1329 144.266 13.4216 146.093C12.6461 148.113 17.7727 152.78 21.5023 151.69Z" fill="#299946" stroke="#220E37" stroke-miterlimit="10"/>
<path d="M21.5021 151.69L16.6703 147.927" stroke="#220E37" stroke-width="0.5" stroke-miterlimit="10"/>
<path d="M23.9117 237.097L27.4875 232.429" stroke="#220E37" stroke-width="2" stroke-miterlimit="10"/>
<path d="M26.3978 233.834C26.3408 233.187 26.4222 232.536 26.6365 231.923C26.8509 231.311 27.1933 230.751 27.641 230.282C28.5766 229.249 33.7673 226.435 34.4786 228.262C35.2539 230.282 30.1274 234.923 26.3978 233.834Z" fill="#299946" stroke="#220E37" stroke-miterlimit="10"/>
<path d="M26.3982 233.833L31.5119 229.871" stroke="#220E37" stroke-width="0.5" stroke-miterlimit="10"/>
<path d="M23.9117 204.809L27.4875 200.141" stroke="#220E37" stroke-width="2" stroke-miterlimit="10"/>
<path d="M26.3978 201.539C26.3367 200.889 26.4161 200.234 26.6306 199.618C26.8451 199.002 27.1897 198.439 27.641 197.968C28.5766 196.936 33.7673 194.082 34.4786 195.942C35.2539 197.968 30.1274 202.629 26.3978 201.539Z" fill="#299946" stroke="#220E37" stroke-miterlimit="10"/>
<path d="M26.3982 201.539L31.5119 197.576" stroke="#220E37" stroke-width="0.5" stroke-miterlimit="10"/>
<path d="M23.9117 188.87L27.4875 184.202" stroke="#220E37" stroke-width="2" stroke-miterlimit="10"/>
<path d="M26.3981 185.606C26.3372 184.956 26.4168 184.3 26.6313 183.683C26.8458 183.066 27.1901 182.501 27.6412 182.029C28.5768 180.997 33.7674 178.15 34.4787 180.009C35.2542 182.029 30.1276 186.683 26.3981 185.606Z" fill="#299946" stroke="#220E37" stroke-miterlimit="10"/>
<path d="M26.3982 185.606L31.5119 181.644" stroke="#220E37" stroke-width="0.5" stroke-miterlimit="10"/>
<path d="M23.9117 167.809L27.4875 163.141" stroke="#220E37" stroke-width="2" stroke-miterlimit="10"/>
<path d="M26.3981 164.539C26.3372 163.888 26.4168 163.232 26.6313 162.615C26.8458 161.998 27.1901 161.433 27.6412 160.961C28.5768 159.935 33.7674 157.082 34.4787 158.941C35.2542 160.961 30.1276 165.629 26.3981 164.539Z" fill="#299946" stroke="#220E37" stroke-miterlimit="10"/>
<path d="M26.3982 164.539L31.5119 160.577" stroke="#220E37" stroke-width="0.5" stroke-miterlimit="10"/>
<path d="M23.9117 151.248L27.4875 146.58" stroke="#220E37" stroke-width="2" stroke-miterlimit="10"/>
<path d="M26.3981 147.978C26.3372 147.327 26.4168 146.671 26.6313 146.054C26.8458 145.437 27.1901 144.873 27.6412 144.4C28.5768 143.374 33.7674 140.521 34.4787 142.38C35.2542 144.4 30.1276 149.068 26.3981 147.978Z" fill="#299946" stroke="#220E37" stroke-miterlimit="10"/>
<path d="M26.3982 147.978L31.5119 144.016" stroke="#220E37" stroke-width="0.5" stroke-miterlimit="10"/>
<path d="M23.6936 140.637C23.6349 139.987 23.7154 139.331 23.9298 138.714C24.1442 138.097 24.4875 137.533 24.9368 137.059C25.8724 136.027 31.063 133.212 31.7807 135.033C32.5561 137.059 27.4296 141.72 23.6936 140.637Z" fill="#299946" stroke="#220E37" stroke-miterlimit="10"/>
<path d="M23.6938 140.637L28.814 136.668" stroke="#220E37" stroke-width="0.5" stroke-miterlimit="10"/>
<path d="M23.9438 140.855C23.2912 140.846 22.6481 140.697 22.0578 140.418C21.4675 140.139 20.9438 139.738 20.5218 139.239C19.599 138.201 17.3177 132.738 19.2402 132.218C21.3228 131.667 25.4177 137.258 23.9438 140.855Z" fill="#299946" stroke="#220E37" stroke-miterlimit="10"/>
<path d="M23.9437 140.855L20.541 135.347" stroke="#220E37" stroke-width="0.5" stroke-miterlimit="10"/>
<path d="M28.346 275.162H16.9074L15.4783 246.265H29.775L28.346 275.162Z" fill="#220E37" stroke="#220E37" stroke-miterlimit="10"/>
<path d="M97.2918 177.22C97.2918 177.22 99.2145 182.247 99.5673 182.843C99.9193 183.44 95.0235 185.478 93.947 185.953C92.8706 186.427 91.076 180.33 91.076 180.33L97.2918 177.22Z" fill="#299946" stroke="#220E37" stroke-linecap="round" stroke-linejoin="round"/>
<path d="M82.8347 126.737C82.8347 126.737 86.8403 127.058 88.1218 132.186C89.4033 137.315 91.1657 150.62 91.1657 153.665C91.1657 156.71 94.5301 168.732 96.2925 171.136C98.0548 173.54 98.6952 177.547 97.2534 178.67C95.8116 179.791 93.2486 183.158 89.8842 179.952C86.5197 176.746 82.3547 166.007 82.0341 162.801C81.7135 159.595 83.1553 153.985 83.3156 151.741C83.4759 149.497 83.1553 135.873 81.8738 132.828C80.5923 129.782 79.9512 127.698 79.9512 127.698C79.9512 127.698 80.5923 126.416 82.8347 126.737Z" fill="#299946" stroke="#220E37" stroke-linecap="round" stroke-linejoin="round"/>
<path d="M96.4519 190.531C96.4519 190.531 97.6509 192.806 97.4137 193.403C97.1764 193.999 95.9782 193.525 95.491 193.647C95.0039 193.769 94.6582 195.32 95.491 195.801C96.3239 196.282 96.9265 197.834 98.1247 197.474C99.3229 197.115 99.7975 194.121 99.7975 192.089C99.7975 190.056 97.5292 188.825 96.4519 190.531Z" fill="#220E37" stroke="#220E37" stroke-linecap="round" stroke-linejoin="round"/>
<path d="M93.8378 185.119C93.8378 185.119 93.1205 190.146 93.357 191.217C93.6328 192.52 93.8339 193.839 93.9596 195.166C93.9596 195.647 93.9596 196.724 95.5106 195.768C97.0616 194.813 95.7479 192.563 95.9915 191.697C96.2343 190.832 97.5417 190.858 98.0225 191.575C98.5592 192.552 98.7682 193.677 98.6181 194.781C98.5034 196.102 96.587 197.653 97.0679 198.135C97.548 198.616 98.5034 198.73 99.5798 197.416C100.656 196.102 101.253 193.23 101.015 191.435C100.778 189.639 100.297 186.171 99.8171 184.85C99.5295 184.062 99.1689 183.301 98.7399 182.581L93.8378 185.119Z" fill="white" stroke="#220E37" stroke-linecap="round" stroke-linejoin="round"/>
<path d="M66.9683 114.588C66.9683 114.588 68.0449 122.775 66.8594 124.397C65.6739 126.018 61.1497 126.551 57.7021 128.167C54.2545 129.782 54.5813 132.045 54.5813 135.065C54.5813 138.085 60.6114 155.325 60.291 158.454C59.9706 161.583 51.8899 170.418 50.4865 179.253C49.0831 188.088 57.2728 213.638 58.3494 217.721C59.426 221.805 60.4 224.403 59.2144 228.281C58.0289 232.16 56.0104 235.077 55.7668 241.867C55.5233 248.656 60.7204 266.762 61.0408 268.487C61.3612 270.212 58.9966 275.597 58.3494 278.406C57.7021 281.214 60.1821 282.393 62.1943 282.285C64.2065 282.175 67.8014 281.419 67.8014 280.021C67.8014 278.624 66.6159 272.366 66.6159 269.994C66.6159 267.621 66.9364 263.852 66.9364 262.236C66.9364 260.62 68.6601 245.098 69.0894 241.867C69.5188 238.636 70.7684 233.487 70.7684 233.487C70.7684 233.487 70.448 249.977 70.0186 254.504C69.5893 259.03 68.2949 274.443 68.942 276.066C69.5893 277.687 72.2808 277.348 75.1901 277.893C78.0994 278.437 77.2343 279.514 80.7911 280.156C84.3472 280.797 88.9743 281.021 88.4361 279.297C87.8979 277.572 84.1296 275.309 82.1881 272.616C80.2458 269.923 77.7726 267.763 77.6636 267.013C77.5934 265.643 77.6665 264.27 77.8815 262.916C78.0994 261.402 81.0857 254.831 82.1881 250.196C83.2897 245.56 82.944 244.483 83.2708 237.373C83.5977 230.262 81.7583 226.589 82.9439 222.062C84.1296 217.536 88.1925 202.751 89.3522 194.377C90.5119 186.004 91.1012 178.252 90.3391 174.534C88.8973 167.482 85.2571 162.795 84.6104 160.102C83.963 157.409 86.981 152.664 88.378 145.875C89.775 139.085 87.1994 133.264 85.8149 130.032C84.4305 126.801 79.8875 125.397 79.1372 125.077C78.3877 124.756 77.7341 121.191 77.6252 118.928C77.5162 116.664 77.5227 115.478 77.5227 115.478L66.9683 114.588Z" fill="#220E37" stroke="#220E37" stroke-linecap="round" stroke-linejoin="round"/>
<path d="M58.3492 278.419C58.99 275.611 61.3674 270.225 61.0406 268.5C60.906 267.763 59.8871 264.051 58.7785 259.524C61.5495 260.345 64.514 260.228 67.2117 259.19C67.0643 260.748 66.9681 261.89 66.9681 262.268C66.9681 263.883 66.6477 267.654 66.6477 270.026C66.6477 272.398 67.8333 278.649 67.8333 280.054C67.8333 281.458 64.2768 282.208 62.2261 282.317C60.1755 282.425 57.7019 281.22 58.3492 278.419ZM88.4038 279.278C87.8656 277.553 84.0973 275.29 82.1558 272.597C80.2136 269.904 77.7404 267.743 77.6314 266.993C77.5612 265.624 77.6342 264.25 77.8493 262.896C78.1416 261.749 78.5208 260.627 78.9839 259.537C77.4669 260.113 75.8452 260.361 74.2258 260.263C72.6063 260.167 71.026 259.726 69.5891 258.973C69.0636 265.313 68.41 274.796 68.9099 276.046C69.5507 277.662 72.2485 277.328 75.1579 277.874C78.0671 278.419 77.2021 279.496 80.7588 280.137C84.315 280.778 88.9421 281.003 88.4038 279.278Z" fill="white" stroke="#220E37" stroke-linecap="round" stroke-linejoin="round"/>
<path d="M88.4038 279.278C87.8656 277.553 84.0973 275.29 82.1558 272.597C80.2143 269.904 77.7404 267.743 77.6315 266.993C77.6315 266.993 75.3054 267.789 74.9849 268.917C74.7591 269.679 74.4917 270.428 74.1839 271.161C72.6731 271.422 71.1192 271.255 69.6982 270.68C69.365 270.526 69.0574 270.385 68.8267 270.257C68.6921 273.181 68.6793 275.482 68.91 276.027C69.5508 277.643 72.2486 277.309 75.158 277.854C78.0673 278.4 77.2021 279.477 80.7588 280.117C84.315 280.759 88.9421 281.002 88.4038 279.278Z" fill="white" stroke="#220E37" stroke-linecap="round" stroke-linejoin="round"/>
<path d="M88.4101 279.284C83.2833 280.15 78.7018 277.828 75.8886 276.668C73.5887 275.839 71.1953 275.296 68.7626 275.052C68.7662 275.389 68.8157 275.723 68.91 276.046C69.5509 277.662 72.2487 277.328 75.158 277.874C78.0674 278.419 77.2022 279.496 80.7588 280.137C84.315 280.778 88.9295 281.003 88.4101 279.284Z" fill="#299946" stroke="#220E37" stroke-linecap="round" stroke-linejoin="round"/>
<path d="M66.6481 269.667C65.6762 269.109 64.5628 268.845 63.444 268.911C62.6176 268.881 61.7948 269.033 61.0345 269.359C60.7654 271.597 58.907 275.982 58.3431 278.419C57.7023 281.22 60.1758 282.406 62.188 282.297C64.2001 282.188 67.7952 281.432 67.7952 280.034C67.7952 278.636 66.6096 272.379 66.6096 270.006L66.6481 269.667Z" fill="white" stroke="#220E37" stroke-linecap="round" stroke-linejoin="round"/>
<path d="M67.8336 280.034C67.8336 279.688 67.7566 279.053 67.6541 278.258C67.0133 279.348 65.7316 280.701 63.0979 280.822C58.6121 281.009 58.6121 277.617 58.6121 277.617C58.5353 277.899 58.4583 278.175 58.4007 278.425C57.7598 281.227 60.2334 282.413 62.2456 282.303C64.2578 282.195 67.8336 281.432 67.8336 280.034Z" fill="#299946" stroke="#220E37" stroke-linecap="round" stroke-linejoin="round"/>
<path d="M84.6356 160.07C83.9952 157.377 87.0069 152.633 88.4039 145.843C89.8009 139.053 87.2245 133.232 85.8409 130C84.4564 126.769 79.9134 125.365 79.1631 125.044C78.4136 124.724 77.7599 121.159 77.651 118.895C77.5421 116.632 77.5484 115.446 77.5484 115.446L66.9877 114.588C66.9877 114.588 68.0643 122.775 66.8788 124.397C65.6933 126.018 61.1691 126.551 57.7215 128.167C54.2739 129.782 54.6007 132.045 54.6007 135.065C54.6007 138.085 60.6308 155.325 60.3104 158.454C59.99 161.583 51.9092 170.418 50.5059 179.253C50.4674 179.497 50.4418 179.753 50.4161 180.022C57.5736 182.434 65.0514 183.761 72.6013 183.959C81.983 184.247 87.6865 181.439 90.7303 179.17C90.7673 177.606 90.651 176.043 90.3838 174.502C88.9232 167.45 85.283 162.763 84.6356 160.07Z" fill="#299946" stroke="#220E37" stroke-linecap="round" stroke-linejoin="round"/>
<path d="M79.1434 125.044C78.3875 124.717 77.7403 121.159 77.6314 118.895C77.5224 116.632 77.5288 115.446 77.5288 115.446L66.9681 114.588C66.9681 114.588 68.0447 122.775 66.8591 124.397C66.1415 125.378 64.1741 125.967 61.9697 126.641C62.476 127.282 66.1159 131.609 74.0812 130.211C77.0606 129.756 79.8254 128.388 81.9955 126.294C81.0731 125.816 80.1208 125.397 79.1434 125.044Z" fill="white" stroke="#220E37" stroke-linecap="round" stroke-linejoin="round"/>
<path d="M77.6315 118.895C77.529 116.632 77.529 115.446 77.529 115.446L70.8645 114.901L70.2877 116.183C70.2877 116.183 73.4918 119.537 77.7789 120.575C77.7083 119.966 77.6571 119.402 77.6315 118.895Z" fill="#220E37" stroke="#220E37" stroke-linecap="round" stroke-linejoin="round"/>
<path d="M69.3908 116.113L69.237 118.607C69.237 118.607 66.3917 120.845 58.3046 115.523C50.2175 110.202 51.6722 92.82 58.3046 87.2292C64.9371 81.6392 74.7352 82.8058 77.5292 84.3379C80.3235 85.87 82.4057 84.8441 83.5143 89.2039C84.623 93.5637 82.7003 95.6154 82.7003 95.6154C82.7003 95.6154 80.9003 93.6022 80.1373 93.2115C79.3744 92.82 76.2924 93.3396 75.0492 95.0447C73.806 96.7506 71.8131 108.471 71.4542 110.862C71.0524 112.712 70.3557 114.484 69.3908 116.113Z" fill="#220E37" stroke="#220E37" stroke-linecap="round" stroke-linejoin="round"/>
<path d="M78.8944 90.0632C78.8944 90.0632 82.2517 91.8846 84.1296 98.0972C86.0074 104.31 86.0522 111.305 85.4755 113.113C85.1927 113.968 84.7126 114.744 84.073 115.378C83.4342 116.012 82.654 116.486 81.7968 116.76C79.5198 117.373 77.1471 117.545 74.8056 117.267C72.8832 116.914 69.3907 116.113 69.3907 116.113C69.3907 116.113 71.0248 89.8714 78.8944 90.0632Z" fill="white" stroke="#220E37" stroke-linecap="round" stroke-linejoin="round"/>
<path d="M80.9317 97.7568C80.9317 97.7568 80.2905 99.8471 80.9317 101.411C81.5728 102.976 84.0785 103.585 83.7383 104.245C83.3988 104.906 81.143 106.425 81.143 106.425" stroke="#220E37" stroke-linecap="round" stroke-linejoin="round"/>
<path d="M82.6045 108.92C82.6045 108.92 81.6687 110.112 77.9583 109.233" stroke="#220E37" stroke-linecap="round" stroke-linejoin="round"/>
<path d="M76.7089 102.732C76.8819 103.258 76.7729 103.764 76.4718 103.861C76.1706 103.957 75.7861 103.617 75.6131 103.098C75.4401 102.579 75.549 102.066 75.8502 101.97C76.1514 101.873 76.5358 102.213 76.7089 102.732Z" fill="#220E37"/>
<path d="M82.9439 99.642C83.1105 100.168 83.0083 100.668 82.7066 100.771C82.4057 100.873 82.0144 100.527 81.8478 100.001C81.6813 99.4753 81.7779 98.9754 82.0851 98.8724C82.3931 98.7702 82.7585 99.1161 82.9439 99.642Z" fill="#220E37"/>
<path d="M73.0177 101.239C73.0177 101.239 73.3574 99.5845 75.6515 98.8275" stroke="#220E37" stroke-linecap="round" stroke-linejoin="round"/>
<path d="M80.7651 96.9236C80.7651 96.9236 82.3994 95.8404 83.4185 97.2703" stroke="#220E37" stroke-linecap="round" stroke-linejoin="round"/>
<path d="M103.194 133.148L97.3814 133.276C97.2565 133.279 97.1323 133.254 97.0168 133.206C96.9021 133.156 96.7984 133.083 96.7136 132.991C96.6287 132.899 96.5643 132.79 96.525 132.671C96.4857 132.552 96.4716 132.427 96.4841 132.302L98.1695 117.113C98.1899 116.9 98.2889 116.703 98.4461 116.559C98.6032 116.414 98.8083 116.333 99.022 116.331L104.841 116.203C104.966 116.199 105.09 116.223 105.206 116.271C105.321 116.32 105.425 116.393 105.509 116.486C105.594 116.579 105.657 116.688 105.696 116.807C105.734 116.927 105.746 117.053 105.731 117.177L104.052 132.366C104.028 132.578 103.927 132.774 103.769 132.918C103.611 133.062 103.407 133.144 103.194 133.148Z" fill="#220E37" stroke="#220E37" stroke-linecap="round" stroke-linejoin="round"/>
<path d="M90.9928 135.604C90.9928 135.604 92.3898 130 92.6074 128.596C92.8258 127.192 93.364 126.223 94.2228 126.121C95.0816 126.018 96.0551 125.794 96.0551 125.794C96.0551 125.794 101.009 123.23 102.733 122.993C104.457 122.755 105.103 122.993 104.565 123.633C104.027 124.275 101.117 125.897 100.15 126.436C99.1823 126.974 97.8882 127.718 97.8882 128.269C97.8882 128.821 99.612 128.59 100.041 128.269C100.471 127.948 103.598 126.115 104.784 126.217C105.968 126.32 104.995 128.051 103.809 128.59C102.624 129.128 99.2852 131.93 99.2852 131.93C100.648 131.364 101.979 130.722 103.271 130.006C104.245 129.366 104.348 128.602 105.103 128.821C105.86 129.039 105.642 130.654 104.565 131.622C103.489 132.59 102.521 134.533 101.227 135.392C99.9326 136.251 93.4725 140.245 93.4725 140.245L90.1277 136.033L90.9928 135.604Z" fill="white" stroke="#220E37" stroke-linecap="round" stroke-linejoin="round"/>
<path d="M104.046 132.186C102.712 133.321 101.196 134.217 99.5602 134.841" stroke="#220E37" stroke-linecap="round" stroke-linejoin="round"/>
<path d="M95.4784 126.044C94.6699 126.517 94.0343 127.236 93.665 128.096" stroke="#220E37" stroke-linecap="round" stroke-linejoin="round"/>
<path d="M90.563 134.526L95.7346 140.778L90.8836 143.688L86.7885 137.976L90.563 134.526Z" fill="#299946" stroke="#220E37" stroke-linecap="round" stroke-linejoin="round"/>
<path d="M56.9524 128.705C56.9524 128.705 52.5307 129.673 52.4282 135.386C52.3257 141.098 60.5025 161.147 61.5855 162.314C62.6685 163.481 65.6739 162.641 66.648 162.096C67.622 161.551 87.6543 148.952 89.5895 147.228C89.5895 147.228 91.3134 145.606 91.4218 144.42C91.531 143.233 88.4039 139.252 88.4039 139.252C88.4039 139.252 86.251 137.329 84.6356 137.2C83.0209 137.072 67.6157 149.382 67.6157 149.382C67.6157 149.382 62.5532 134.398 61.797 133.751" fill="#299946"/>
<path d="M56.9524 128.705C56.9524 128.705 52.5307 129.673 52.4282 135.386C52.3257 141.098 60.5025 161.147 61.5855 162.314C62.6685 163.481 65.6739 162.641 66.648 162.096C67.622 161.551 87.6543 148.952 89.5895 147.228C89.5895 147.228 91.3134 145.606 91.4218 144.42C91.531 143.233 88.4039 139.252 88.4039 139.252C88.4039 139.252 86.251 137.329 84.6356 137.2C83.0209 137.072 67.6157 149.382 67.6157 149.382C67.6157 149.382 62.5532 134.398 61.797 133.751" stroke="#220E37" stroke-linecap="round" stroke-linejoin="round"/>
<path d="M146.454 45.547C146.455 43.3977 146.032 41.2693 145.211 39.2835C144.389 37.2976 143.185 35.4931 141.666 33.973C140.147 32.453 138.345 31.2471 136.36 30.4245C134.375 29.6018 132.248 29.1784 130.1 29.1784C129.164 29.1787 128.229 29.2608 127.307 29.4235C127.318 23.2473 124.877 17.3195 120.52 12.9443C116.162 8.56893 110.247 6.10455 104.074 6.09318C97.9008 6.0818 91.9757 8.52436 87.6032 12.8836C83.2299 17.2428 80.7667 23.1615 80.7557 29.3378C80.0061 29.235 79.2511 29.1818 78.4951 29.1784C74.229 29.1603 70.1247 30.8107 67.0577 33.7776C63.9908 36.7445 62.204 40.793 62.0785 45.0595C61.953 49.326 63.4988 53.4725 66.3862 56.6148C69.2734 59.757 73.2737 61.646 77.5335 61.8788H131.104C135.26 61.6229 139.162 59.7909 142.014 56.7562C144.866 53.7215 146.454 49.7127 146.454 45.547Z" fill="white" stroke="#220E37" stroke-linecap="round" stroke-linejoin="round"/>
<path d="M112.723 44.9342L102.328 36.2933L91.9341 44.9342H94.2189V72.7198H110.444V44.9342H112.723Z" fill="#220E37"/>
<path d="M104.142 67.3636C103.948 67.3664 103.762 67.4426 103.622 67.5768C103.482 67.711 103.398 67.8932 103.388 68.0867L103.351 69.0673H91.1806L90.464 86.1342H113.825L114.364 73.1977L114.548 69.0673L114.622 67.3636H104.142Z" fill="#299946" stroke="#220E37" stroke-linecap="round" stroke-linejoin="round"/>
<path d="M113.825 86.135L113.727 70.2562H91.2725L91.4501 85.9384L113.825 86.135Z" fill="white" stroke="#220E37" stroke-linecap="round" stroke-linejoin="round"/>
<path d="M113.825 86.135L112.808 70.2562H90.3532L90.5308 85.9384L113.825 86.135Z" fill="white" stroke="#220E37" stroke-linecap="round" stroke-linejoin="round"/>
<path d="M90.464 86.1342L87.34 69.766H110.849L113.826 86.1342H90.464Z" fill="#299946" stroke="#220E37" stroke-linecap="round" stroke-linejoin="round"/>
<path d="M92.748 64.4772V65.568" stroke="#220E37" stroke-linecap="round" stroke-linejoin="round"/>
<path d="M92.748 58.4103V63.3803" stroke="#220E37" stroke-linecap="round" stroke-linejoin="round"/>
<path d="M111.846 53.14V57.3134" stroke="#220E37" stroke-linecap="round" stroke-linejoin="round"/>
<path d="M104.589 86.8574V91.0309" stroke="#220E37" stroke-linecap="round" stroke-linejoin="round"/>
<path d="M113.642 93.2123V102.662" stroke="#220E37" stroke-linecap="round" stroke-linejoin="round"/>
<path d="M113.642 89.9342V91.7234" stroke="#220E37" stroke-linecap="round" stroke-linejoin="round"/>
<path d="M92.2711 89.5356V92.9128" stroke="#220E37" stroke-linecap="round" stroke-linejoin="round"/>
<path d="M94.457 105.145V105.94" stroke="#220E37" stroke-linecap="round" stroke-linejoin="round"/>
<path d="M94.457 91.6196V104.054" stroke="#220E37" stroke-linecap="round" stroke-linejoin="round"/>
<path d="M208.214 65.2616C208.218 63.8597 207.915 62.4741 207.326 61.2021C206.737 59.9302 205.877 58.8029 204.805 57.8997C203.733 56.9964 202.477 56.3392 201.124 55.9742C199.771 55.6093 198.355 55.5454 196.975 55.7873C196.906 52.2071 195.438 48.7963 192.884 46.2864C190.331 43.7765 186.897 42.3673 183.318 42.3609C179.739 42.3545 176.3 43.7514 173.738 46.2521C171.176 48.7528 169.695 52.1582 169.614 55.7383C169.174 55.6745 168.729 55.6417 168.284 55.6402C165.787 55.6434 163.388 56.619 161.596 58.3603C159.804 60.1017 158.76 62.4723 158.684 64.9704C158.609 67.4685 159.508 69.8979 161.191 71.7446C162.874 73.5913 165.21 74.7103 167.703 74.8647H199.192C201.635 74.7119 203.927 73.6339 205.603 71.8499C207.279 70.0659 208.213 67.71 208.214 65.2616Z" fill="white" stroke="#220E37" stroke-linecap="round" stroke-linejoin="round"/>
<path d="M173.117 13.8455C173.117 12.4071 172.546 11.0276 171.529 10.0104C170.513 8.99337 169.134 8.42194 167.697 8.42194C167.386 8.42029 167.077 8.44694 166.772 8.50166C166.772 6.45535 165.959 4.49289 164.513 3.04595C163.066 1.59902 161.105 0.786133 159.06 0.786133C157.015 0.786133 155.053 1.59902 153.607 3.04595C152.161 4.49289 151.348 6.45535 151.348 8.50166C151.098 8.46966 150.847 8.45331 150.595 8.4526C149.192 8.46235 147.847 9.01601 146.844 9.99707C145.84 10.9782 145.257 12.3104 145.214 13.7135C145.172 15.1166 145.675 16.4814 146.618 17.5209C147.561 18.5603 148.87 19.1936 150.27 19.2874H168.034C169.415 19.2013 170.711 18.5897 171.657 17.5778C172.602 16.5659 173.124 15.2305 173.117 13.8455Z" fill="white" stroke="#220E37" stroke-linecap="round" stroke-linejoin="round"/>
</svg>
