<svg width="331" height="297" viewBox="0 0 331 297" fill="none" xmlns="http://www.w3.org/2000/svg">
<path d="M14.5801 263.881H294.58" stroke="#220E37" stroke-linecap="round" stroke-linejoin="round"/>
<path d="M151.006 19.8486H105.768V202.445H151.006V19.8486Z" fill="white"/>
<path d="M201.493 19.8486H156.255V202.445H201.493V19.8486Z" fill="white"/>
<path d="M251.972 19.8486H206.734V202.445H251.972V19.8486Z" fill="white"/>
<path d="M51.2857 217.957C49.1374 220.434 47.6909 223.442 47.0961 226.667L38.6829 231.408V209.094L38.8865 209.357L52.2865 199.553C53.9827 199.816 60.4792 200.554 66.4074 197.365C73.2855 193.659 78.2808 180.962 78.2808 180.962C78.2808 180.962 61.8785 179.114 56.3235 185.992C53.2831 189.562 51.6622 194.127 51.7692 198.815L38.6829 208.339V191.878C41.1309 190.74 43.2946 189.071 45.0169 186.992C46.7391 184.913 47.9767 182.477 48.6397 179.86C51.0228 170.599 38.3183 152.348 38.3183 152.348C38.3183 152.348 25.0963 171.133 27.7424 180.657C29.9814 188.723 36.0029 191.275 37.8009 191.869V227.566L28.3615 219.712C28.582 217.829 28.7517 211.944 23.5104 206.049C17.1581 198.908 0.22998 199.434 0.22998 199.434C0.22998 199.434 7.371 213.725 13.4434 218.483C18.761 222.647 26.0971 220.95 27.8612 220.45L37.7839 228.719V239.575H23.0524L29.0655 277.205H47.1131L53.1346 239.6H38.7169V232.425L47.9527 227.243C50.2002 227.863 56.4846 229.152 62.4298 226.183C69.8337 222.477 75.9231 214.539 75.9231 214.539C75.9231 214.539 58.1638 210.018 51.2857 217.957Z" fill="#299946"/>
<path opacity="0.5" d="M51.2857 217.957C49.1374 220.434 47.6909 223.442 47.0961 226.667L38.6829 231.408V209.094L38.8865 209.357L52.2865 199.553C53.9827 199.816 60.4792 200.554 66.4074 197.365C73.2855 193.659 78.2808 180.962 78.2808 180.962C78.2808 180.962 61.8785 179.114 56.3235 185.992C53.2831 189.562 51.6622 194.127 51.7692 198.815L38.6829 208.339V191.878C41.1309 190.74 43.2946 189.071 45.0169 186.992C46.7391 184.913 47.9767 182.477 48.6397 179.86C51.0228 170.599 38.3183 152.348 38.3183 152.348C38.3183 152.348 25.0963 171.133 27.7424 180.657C29.9814 188.723 36.0029 191.275 37.8009 191.869V227.566L28.3615 219.712C28.582 217.829 28.7517 211.944 23.5104 206.049C17.1581 198.908 0.22998 199.434 0.22998 199.434C0.22998 199.434 7.371 213.725 13.4434 218.483C18.761 222.647 26.0971 220.95 27.8612 220.45L37.7839 228.719V239.575H23.0524L29.0655 277.205H47.1131L53.1346 239.6H38.7169V232.425L47.9527 227.243C50.2002 227.863 56.4846 229.152 62.4298 226.183C69.8337 222.477 75.9231 214.539 75.9231 214.539C75.9231 214.539 58.1638 210.018 51.2857 217.957Z" fill="white"/>
<path d="M252.184 296.406C268.428 296.406 281.596 295.108 281.596 293.506C281.596 291.904 268.428 290.605 252.184 290.605C235.94 290.605 222.772 291.904 222.772 293.506C222.772 295.108 235.94 296.406 252.184 296.406Z" fill="#220E37"/>
<path d="M251.76 72.5327C251.76 72.5327 256.934 72.5327 258.104 76.2813C259.274 80.0299 256.001 84.9913 251.76 86.1108C247.52 87.2303 243.771 83.363 244.017 79.6313C244.263 75.8997 249.403 72.4309 251.76 72.5327Z" fill="#220E37" stroke="#220E37" stroke-linecap="round" stroke-linejoin="round"/>
<path d="M282.182 243.442C282.182 243.442 283.7 242.866 283.937 240.55C284.175 238.235 281.215 232.833 281.223 229.915C281.232 226.998 281.02 221.875 280.375 220.934C279.731 219.992 275.931 220.187 273.539 222.129C271.148 224.072 277.449 228.219 279.154 232.917C280.859 237.616 279.782 238.235 280.443 240.347C280.765 241.504 281.361 242.566 282.182 243.442V243.442Z" fill="white" stroke="#220E37" stroke-linecap="round" stroke-linejoin="round"/>
<path d="M210.339 187.985C210.339 187.985 211.899 204.336 212.747 206.321C213.596 208.305 220.151 209.552 222.823 210.561C225.494 211.571 253.719 220.552 259.393 223.902C265.067 227.252 273.361 234.368 276.966 237.65C280.57 240.932 281.206 244.799 282.216 243.442C283.225 242.085 281.868 236.836 280.842 233.96C279.815 231.085 278.653 229.652 278.425 227.583C278.196 225.513 277.627 222.545 275.507 221.892C273.387 221.239 269.91 223.8 269.91 223.8C269.91 223.8 267.467 223.41 262.93 219.297C258.392 215.184 249.767 209.501 246.375 206.965C242.982 204.43 232.678 202.504 229.531 201.877C227.68 201.531 225.877 200.961 224.163 200.181L226.122 190.894C226.122 190.894 212.747 189.096 210.339 187.985Z" fill="white" stroke="#220E37" stroke-linecap="round" stroke-linejoin="round"/>
<path d="M278.391 227.583C278.17 225.522 277.593 222.545 275.473 221.892C273.981 221.434 271.835 222.553 270.681 223.266C272.847 225.336 274.711 227.7 276.22 230.288C278.467 234.24 278.484 236.683 278.111 238.854C280.697 241.788 281.291 244.63 282.182 243.442C283.191 242.085 281.834 236.836 280.808 233.96C279.782 231.085 278.62 229.652 278.391 227.583Z" fill="#299946" stroke="#220E37" stroke-linecap="round" stroke-linejoin="round"/>
<path d="M232.415 279.385C233.159 279.914 234.021 280.253 234.926 280.369C235.832 280.486 236.752 280.378 237.605 280.055C240.345 278.876 243.78 273.83 244.941 272.481C246.103 271.133 251.633 268.351 252.312 265.942C252.99 263.534 249.089 260.362 249.089 260.362C247.874 262.64 246.282 264.696 244.382 266.443C241.329 269.199 241.778 270.556 238.25 273.703C234.722 276.849 232.415 279.385 232.415 279.385Z" fill="white" stroke="#220E37" stroke-linecap="round" stroke-linejoin="round"/>
<path d="M233.992 194.838C233.992 194.838 233.831 205.753 234.713 211.07C235.595 216.388 238.954 251.66 238.106 259.412C237.258 267.164 234.62 274.975 232.898 277.892C231.177 280.81 235.392 279.097 237.911 277.689C240.429 276.281 244.254 269.063 245.077 267.961C245.9 266.858 249.156 266.723 249.555 262.728C249.954 258.734 245.069 258.691 245.382 253.255C245.696 247.819 250.242 231.204 248.58 224.114C246.917 217.024 244.984 208.059 245.298 204.998C245.611 201.936 246.867 194.227 246.867 194.227L233.992 194.838Z" fill="white" stroke="#220E37" stroke-linecap="round" stroke-linejoin="round"/>
<path d="M246.443 257.258C245.012 260.943 243.153 264.447 240.904 267.698C238.581 270.81 236.825 270.777 235.892 270.386C235.173 272.994 234.175 275.516 232.915 277.909C231.219 280.827 235.409 279.113 237.928 277.706C240.446 276.298 244.271 269.08 245.094 267.978C245.917 266.875 249.173 266.74 249.572 262.745C249.843 260.082 247.774 259.166 246.443 257.258Z" fill="#299946" stroke="#220E37" stroke-linecap="round" stroke-linejoin="round"/>
<path d="M293.36 163.695C292.512 161.321 291.663 158.166 288.008 156.122C284.353 154.078 282.826 152.992 282.826 152.992C282.826 152.992 273.226 133.028 270.876 129.144C268.527 125.259 266.78 122.766 266.78 122.766C266.78 122.766 260.318 105.134 259.546 102.148C258.774 99.1631 259.317 96.9241 255.772 95.6435C252.227 94.3629 244.229 93.4045 241.354 92.9635C239.107 92.49 236.923 91.7527 234.849 90.7669C234.849 90.7669 228.37 89.8086 226.148 89.1216C220.718 87.0657 215.397 84.736 210.203 82.1417C207.167 80.4455 203.418 76.5612 203.418 76.5612C203.418 76.5612 195.048 58.1235 193.055 53.6624C191.409 49.9647 189.832 46.6911 189.323 45.6564C188.902 44.5033 188.553 43.3249 188.28 42.1283C188.212 39.9317 188.466 37.5485 188.28 36.1915C188.093 34.8346 187.847 34.2409 187.652 32.655C187.457 31.069 185.956 32.0613 186.193 33.8338L186.041 34.86L184.158 26.7437C184.158 26.7437 182.962 25.8956 182.776 26.8115L183.675 32.8161L183.335 32.9179L182.021 25.5139C182.021 25.5139 181.826 24.7422 180.749 24.8694C180.749 24.8694 180.172 25.039 180.257 26.5656L181.453 33.4691L180.766 33.5539L179.672 26.0482C179.672 26.0482 179.205 25.5139 178.823 25.955C178.506 26.5778 178.419 27.2926 178.577 27.9734C178.671 28.7537 179.324 34.1391 179.324 34.1391L178.238 30.0937C178.238 30.0937 177.212 29.0336 177.39 31.0012C177.727 33.4634 178.294 35.8884 179.086 38.244C179.809 40.0233 180.919 41.6196 182.335 42.917C183.42 43.6803 183.954 44.011 184.031 44.4012C184.031 44.4945 184.404 45.7072 184.981 47.5391H185.049C186.176 50.9824 194.946 77.8334 196.532 81.9975C198.228 86.4501 218.778 102.301 218.778 102.301C218.778 102.301 214.885 112.003 216.318 117.499C217.361 121.152 219.031 124.596 221.254 127.676C221.254 127.676 217.946 131.62 212.332 146.19C206.718 160.761 207.93 191.013 207.93 191.013C214.815 194.849 222.512 196.994 230.388 197.272C243.347 197.67 248.325 196.797 248.325 196.797C248.325 196.797 254.194 163.144 251.777 150.813C250.327 143.405 248.253 136.133 245.578 129.076L252.049 113.53C252.049 113.53 262.998 132.188 267.162 139.38C271.326 146.572 281.58 157.19 281.58 157.19C281.58 157.19 281.758 159.964 282.996 161.312C283.873 162.214 284.876 162.985 285.973 163.602C285.973 163.602 283.802 168.428 285.125 168.691C286.448 168.953 287.448 163.882 287.448 163.882C287.448 163.882 286.473 168.97 287.516 169.242C288.559 169.513 289.67 164.569 289.67 164.569C289.67 164.569 288.585 169.199 289.798 169.318C291.01 169.437 291.536 164.297 291.536 164.297C291.536 164.297 292.325 168.538 293.131 168.131C293.936 167.724 294.165 166.104 293.36 163.695Z" fill="white" stroke="#220E37" stroke-linecap="round" stroke-linejoin="round"/>
<path d="M186.066 34.8092C186.153 35.255 186.091 35.7169 185.891 36.1243C185.69 36.5317 185.361 36.8622 184.955 37.0652C183.505 37.8369 184.395 39.6095 185.617 41.1106" stroke="#220E37" stroke-linecap="round" stroke-linejoin="round"/>
<path d="M284.913 158.844C285.466 159.647 286.122 160.374 286.863 161.007C287.718 161.373 288.625 161.599 289.552 161.677C289.552 161.677 290.281 166.087 291.731 165.442C293.182 164.798 291.231 160.667 290.552 159.607C290.256 159.072 289.826 158.623 289.306 158.301" fill="white"/>
<path d="M284.913 158.844C285.466 159.647 286.122 160.374 286.863 161.007C287.718 161.373 288.625 161.599 289.552 161.677C289.552 161.677 290.281 166.087 291.731 165.442C293.182 164.798 291.231 160.667 290.552 159.607C290.256 159.072 289.826 158.623 289.306 158.301" stroke="#220E37" stroke-linecap="round" stroke-linejoin="round"/>
<path d="M230.312 197.204C243.271 197.602 248.249 196.729 248.249 196.729C248.249 196.729 254.118 163.076 251.701 150.745C251.548 149.956 251.387 149.176 251.217 148.412C238.238 151.079 224.794 150.393 212.154 146.419C206.667 161.092 207.854 190.945 207.854 190.945C214.738 194.781 222.436 196.926 230.312 197.204V197.204Z" fill="#220E37" stroke="#220E37" stroke-linecap="round" stroke-linejoin="round"/>
<path d="M222.976 158.276C222.976 158.276 228.2 167.435 234.086 172.007" stroke="white" stroke-linecap="round" stroke-linejoin="round"/>
<path d="M232.432 175.95C233.076 176.408 233.729 176.841 234.416 177.239" stroke="white" stroke-linecap="round" stroke-linejoin="round"/>
<path d="M223.629 166.774C225.532 169.503 227.752 171.997 230.244 174.203" stroke="white" stroke-linecap="round" stroke-linejoin="round"/>
<path d="M272.462 132.053C271.801 130.78 271.241 129.763 270.877 129.144C268.519 125.234 266.78 122.766 266.78 122.766C266.78 122.766 260.318 105.134 259.546 102.148C258.774 99.1632 259.317 96.9242 255.772 95.6435C252.227 94.3629 244.229 93.4046 241.354 92.9635C239.107 92.4901 236.923 91.7528 234.849 90.767C234.849 90.767 228.37 89.8086 226.148 89.1216C220.718 87.0657 215.397 84.7361 210.203 82.1418C207.167 80.4456 203.418 76.5613 203.418 76.5613C203.418 76.5613 201.112 71.4726 198.635 66.0109C196.315 66.6509 194.046 67.4675 191.85 68.4534C193.911 74.6615 195.794 80.2505 196.447 81.9721C198.143 86.4247 218.693 102.276 218.693 102.276C218.693 102.276 214.8 111.978 216.233 117.474C217.276 121.127 218.946 124.57 221.169 127.651C221.169 127.651 217.862 131.595 212.247 146.165C211.72 147.57 211.27 149.002 210.899 150.456C219.244 154.12 233.797 158.089 252.066 153.518C251.972 152.526 251.854 151.61 251.692 150.787C250.243 143.38 248.169 136.108 245.493 129.05L251.964 113.505C251.964 113.505 260.801 128.592 265.618 136.844C268.002 135.398 270.288 133.797 272.462 132.053V132.053Z" fill="#299946" stroke="#220E37" stroke-linecap="round" stroke-linejoin="round"/>
<path d="M214.478 89.9782L218.701 102.276L210.229 86.0515" stroke="#220E37" stroke-linecap="round" stroke-linejoin="round"/>
<path d="M251.972 113.462L248.469 111.545" stroke="#220E37" stroke-linecap="round" stroke-linejoin="round"/>
<path d="M256.306 97.8147C256.306 97.8147 252.719 98.4677 250.429 104.031" stroke="#220E37" stroke-linecap="round" stroke-linejoin="round"/>
<path d="M229.184 122.986C229.184 122.986 233.424 128.541 239.972 128.541" stroke="#220E37" stroke-linecap="round" stroke-linejoin="round"/>
<path d="M249.631 94.2187C246.4 93.6505 243.025 93.218 241.362 92.9635C239.115 92.4901 236.932 91.7528 234.858 90.767C234.858 90.767 228.378 89.8086 226.156 89.1216C225.927 89.0453 225.579 88.9266 225.172 88.7739C224.96 92.5565 224.799 101.266 227.191 107.576C230.32 115.845 233.763 117.558 233.763 117.558C233.763 117.558 244.238 105.329 247.333 99.2225C248.427 96.9835 249.156 95.3722 249.631 94.2187Z" fill="#220E37" stroke="#220E37" stroke-linecap="round" stroke-linejoin="round"/>
<path d="M237.699 55.4774C237.699 55.4774 232.016 56.0287 228.929 60.566C225.842 65.1034 224.85 69.3354 223.798 74.1357C222.747 78.9359 223.968 83.5326 225.639 83.7022L231.397 84.2874C231.397 84.2874 231.397 96.8478 231.737 101.199C232.076 105.549 233.433 108.679 234.697 107.135C235.96 105.592 240.124 94.4138 240.124 94.4138L240.803 83.9821C240.803 83.9821 243.856 81.6668 248.368 77.8079C252.88 73.9491 254.177 66.7826 250.87 60.6254C247.562 54.4682 237.699 55.4774 237.699 55.4774Z" fill="white" stroke="#220E37" stroke-linecap="round" stroke-linejoin="round"/>
<path d="M241.057 76.3406C241.057 76.3406 242.092 76.7647 242.168 76.0184C242.244 75.272 244.517 74.0084 245.408 75.8148" stroke="#220E37" stroke-linecap="round" stroke-linejoin="round"/>
<path d="M242.168 76.0184C242.168 76.0184 244.806 76.5019 243.262 77.9606" stroke="#220E37" stroke-linecap="round" stroke-linejoin="round"/>
<path d="M228.904 66.6299C228.633 67.478 228.056 68.0462 227.674 67.9105C227.293 67.7748 227.157 66.9946 227.428 66.1465C227.7 65.2984 228.276 64.7301 228.666 64.8658C229.057 65.0015 229.175 65.7903 228.904 66.6299Z" fill="#220E37"/>
<path d="M234.306 69.4202C234.026 70.2683 233.458 70.8365 233.068 70.7008C232.678 70.5651 232.559 69.7764 232.831 68.9368C233.102 68.0972 233.679 67.5204 234.06 67.6561C234.442 67.7918 234.578 68.5721 234.306 69.4202Z" fill="#220E37"/>
<path d="M227.106 72.4479C227.106 72.4479 227.106 73.3384 228.556 73.4825" stroke="#220E37" stroke-linecap="round" stroke-linejoin="round"/>
<path d="M226.716 76.2899C226.716 76.2899 230.829 77.3754 232.907 75.4418" stroke="#220E37" stroke-linecap="round" stroke-linejoin="round"/>
<path d="M234.332 64.7386C235.384 64.6611 236.425 65.0013 237.228 65.6855C238.031 66.3696 238.532 67.3427 238.623 68.394" stroke="#220E37" stroke-linecap="round" stroke-linejoin="round"/>
<path d="M228.319 62.6863C228.319 62.6863 229.633 60.7102 230.863 63.8312" stroke="#220E37" stroke-linecap="round" stroke-linejoin="round"/>
<path d="M229.099 76.8665C229.099 76.8665 230.922 79.7161 231.77 79.0292C232.618 78.3422 231.949 76.1626 231.949 76.1626C231.019 76.4725 230.066 76.7079 229.099 76.8665Z" fill="#220E37" stroke="#220E37" stroke-linecap="round" stroke-linejoin="round"/>
<path d="M250.522 77.808C255.042 73.9491 255.611 67.1643 252.218 61.058C247.816 53.1197 237.69 55.4774 237.69 55.4774C236.621 55.6199 235.573 55.8904 234.569 56.2831C236.689 56.5885 241.396 57.7504 243.372 62.2199C245.968 68.1057 242.151 74.2799 242.151 74.2799C242.151 74.2799 247.07 71.973 246.9 75.5181C246.814 76.7891 246.253 77.9814 245.33 78.8592C244.406 79.737 243.187 80.2365 241.914 80.259C240.911 80.1033 239.934 79.8183 239.005 79.4109C238.981 80.2409 239.137 81.0663 239.462 81.8305C239.787 82.5946 240.273 83.2794 240.887 83.838C241.405 83.4648 246.434 81.2937 250.522 77.808Z" fill="#220E37" stroke="#220E37" stroke-linecap="round" stroke-linejoin="round"/>
<path d="M233.433 56.8174C233.433 56.8174 235.977 58.1828 238.199 64.4503C240.421 70.7178 244.848 70.0732 247.401 69.5389C249.954 69.0046 251.837 68.8604 251.837 68.8604C249.877 67.0453 248.511 64.6804 247.918 62.0756C246.892 57.674 240.074 47.4459 233.433 56.8174Z" fill="#220E37" stroke="#220E37" stroke-linecap="round" stroke-linejoin="round"/>
<path d="M122 58.3948C122 58.3948 123.696 55.8505 120.694 54.3494C117.391 52.8418 113.683 52.4686 110.145 53.2877C106.608 54.1068 103.441 56.0723 101.137 58.8783C93.9366 67.1897 99.7461 75.2127 103.495 79.2327C107.243 83.2527 112.671 85.0676 112.671 85.7885C112.275 87.2262 111.802 88.6417 111.255 90.029L123.917 90.5888C123.917 90.5888 125.461 85.8649 126.843 84.2874C128.225 82.7099 130.727 85.1355 132.602 81.1409C134.476 77.1464 132.178 71.8627 132.178 71.8627C132.178 71.8627 133.373 67.3338 131.677 67.1642C129.981 66.9946 128.726 64.9083 127.521 62.3385C126.317 59.7688 122 58.3948 122 58.3948Z" fill="white" stroke="#220E37" stroke-linecap="round" stroke-linejoin="round"/>
<path d="M127.589 63.6361C127.589 63.6361 125.893 60.9815 125.664 64.6114" stroke="#220E37" stroke-linecap="round" stroke-linejoin="round"/>
<path d="M132.763 74.3392C132.763 74.3392 132.39 75.4756 130.439 74.1017" stroke="#220E37" stroke-linecap="round" stroke-linejoin="round"/>
<path d="M129.006 66.8164C129.421 67.6137 129.557 68.36 129.302 68.5126C129.048 68.6653 128.505 68.1056 128.09 67.3168C127.674 66.5281 127.538 65.7733 127.793 65.6206C128.047 65.468 128.59 66.0277 129.006 66.8164Z" fill="#220E37"/>
<path d="M119.117 77.7316C118.872 77.6894 118.639 77.5979 118.432 77.4626C118.224 77.3274 118.046 77.1512 117.909 76.9448C117.771 76.7384 117.677 76.5062 117.633 76.2623C117.588 76.0185 117.594 75.7681 117.65 75.5265C118.023 74.2289 120.991 74.7717 120.991 74.7717C120.991 74.7717 119.693 75.6198 121.076 76.3576C122.458 77.0955 123.222 75.5095 123.222 75.5095" stroke="#220E37" stroke-linecap="round" stroke-linejoin="round"/>
<path d="M120.711 54.3324C117.408 52.8249 113.7 52.4516 110.162 53.2707C106.625 54.0898 103.458 56.0553 101.154 58.8613C93.9537 67.1727 99.7632 75.1957 103.512 79.2157C106.48 82.4216 110.509 84.2026 111.993 85.1524C113.416 85.1306 114.825 84.8756 116.165 84.3976C118.203 83.6684 120.016 82.4202 121.424 80.7762C121.424 80.7762 116.479 81.2512 115.953 76.7986C115.428 72.3461 120.033 72.8126 121.966 73.0076C123.9 73.2027 122.67 70.8789 121.754 70.2937C120.839 69.7085 121.805 67.3677 122.323 64.7301C122.84 62.0926 119.778 63.4919 119.346 62.7117C118.913 61.9314 122 58.3948 122 58.3948C122 58.3948 123.739 55.8505 120.711 54.3324Z" fill="#220E37" stroke="#220E37" stroke-linecap="round" stroke-linejoin="round"/>
<path d="M127.36 89.9781C123.703 88.8164 119.918 88.1044 116.089 87.8578C109.771 87.4592 106.54 90.3088 106.54 90.3088C106.54 90.3088 111.17 90.5378 118.693 91.0551C126.216 91.5725 127.36 89.9781 127.36 89.9781Z" fill="#299946" stroke="#220E37" stroke-linecap="round" stroke-linejoin="round"/>
<path d="M157.027 67.5628C157.027 67.5628 169.163 49.2353 169.197 46.5214C169.231 43.8074 168.214 39.3295 168.349 37.6333C168.485 35.9371 168.841 35.2416 169.036 33.2995C169.231 31.3573 171.072 32.5277 170.851 34.7073L171.063 35.954L173.166 25.9803C173.166 25.9803 174.608 24.9117 174.863 26.0312L173.735 32.7312L174.337 32.8245L175.787 24.4707C175.787 24.4707 175.999 23.5208 177.322 23.6226C177.322 23.6226 178.035 23.8092 177.967 25.6241L176.83 33.4776L177.432 33.749L178.747 25.0983C178.747 25.0983 179.298 24.4283 179.731 24.9541C180.14 25.7049 180.267 26.5776 180.087 27.4136C179.994 28.3805 179.324 34.9787 179.324 34.9787L180.553 30.0088C180.553 30.0088 181.783 28.6773 181.656 31.0944C181.305 34.1139 180.678 37.0948 179.782 39.9995C179.247 41.6363 177.237 44.8337 175.923 45.792C174.608 46.7504 173.964 47.1659 173.913 47.6494C173.862 48.1328 167.128 71.693 163.167 76.9852C163.167 76.9852 161.751 71.8966 158.545 71.1842C155.339 70.4718 155.857 71.3962 155.857 71.3962L157.027 67.5628Z" fill="white" stroke="#220E37" stroke-linecap="round" stroke-linejoin="round"/>
<path d="M152.422 74.4325C152.422 74.4325 152.21 71.7185 154.05 70.4379C155.89 69.1573 155.602 67.1727 157.349 66.8589C159.096 66.5451 163.905 69.7255 164.355 72.4649C164.804 75.2042 164.083 75.1279 163.863 77.3075C163.642 79.4872 160.665 82.3961 158.121 80.878C155.577 79.3599 152.422 74.4325 152.422 74.4325Z" fill="#299946" stroke="#220E37" stroke-linecap="round" stroke-linejoin="round"/>
<path d="M71.5043 120.773C71.5043 120.773 67.0857 137.056 65.5676 146.284C64.0495 155.511 62.8536 158.522 61.8614 160.99C60.8691 163.458 59.7411 165.561 60.0295 168.165C60.3178 170.768 63.5406 169.81 65.0163 169.776C66.492 169.742 68.7734 169.047 68.9769 167.045C69.1805 165.044 69.5791 164.721 69.2144 162.847C68.8497 160.973 67.5182 159.361 67.6624 158.267C67.8066 157.173 75.9907 137.786 77.6191 132.612C79.2475 127.439 80.3161 124.241 80.3161 124.241C80.3161 124.241 73.1581 122.596 71.5043 120.773Z" fill="white" stroke="#220E37" stroke-linecap="round" stroke-linejoin="round"/>
<path d="M94.7171 145.749C91.1296 157.529 91.7148 151.686 91.1296 157.529C90.5444 163.373 88.2545 176.73 88.2545 176.73L79.3325 212.054C79.3325 212.054 68.2393 220.671 62.6249 228.957C57.0104 237.243 42.1941 255.07 42.1941 255.07C42.1941 255.07 45.4593 255.629 46.6636 256.766C47.8679 257.902 50.6581 260.769 50.6581 260.769C52.5517 259.405 54.2372 257.774 55.662 255.926C61.217 248.768 69.6048 242.67 76.0927 236.335C82.5807 230 90.4511 223.546 95.6754 215.981C98.3215 211.655 111.722 177.519 111.722 177.519L114.486 177.434C114.486 177.434 128.31 198.883 130.236 201.656C132.161 204.429 138.242 215.158 138.242 215.158C138.242 215.158 127.835 223.478 125.105 230.424C122.374 237.37 108.796 262.423 107.939 263.618C107.375 264.482 106.967 265.438 106.735 266.443C106.735 266.443 111.738 267.867 114.266 268.309C115.713 268.538 117.1 269.054 118.345 269.827C118.345 269.827 119.058 268.241 119.804 266.299C120.537 264.64 121.083 262.905 121.432 261.125C121.568 259.853 135.282 246.165 142.855 233.138C150.429 220.111 154.076 216.803 154.542 214.089C155.009 211.375 148.207 191.377 145.001 181.302C141.795 171.226 133.221 159.692 132.95 158.742C132.678 157.792 131.838 147.963 131.838 147.963C131.838 147.963 126.283 148.319 114.698 148.243C107.962 148.213 101.254 147.376 94.7171 145.749V145.749Z" fill="#220E37" stroke="#220E37" stroke-linecap="round" stroke-linejoin="round"/>
<path d="M102.918 173.932L111.722 177.46" stroke="white" stroke-linecap="round" stroke-linejoin="round"/>
<path d="M136.359 110.595C136.359 110.595 135.629 117.821 145.035 123.877C154.44 129.932 157.434 140.593 157.434 140.593L154.932 146.801L149.326 143.51C149.326 143.51 150.174 131.874 144.238 127.023C138.301 122.172 135.485 119.501 133.696 113.716C131.906 107.932 128.175 99.5616 128.175 99.5616C128.175 99.5616 135.078 104.854 136.359 110.595Z" fill="#220E37" stroke="#220E37" stroke-linecap="round" stroke-linejoin="round"/>
<path d="M111.212 90.046C107.246 89.7786 103.296 89.2973 99.3814 88.6042C94.5896 87.6289 90.417 90.1393 89.7894 93.9812C89.1618 97.8231 73.0648 116.498 72.9461 117.728C72.8273 118.958 78.798 122.723 81.5543 122.028C84.3106 121.333 95.2257 110.214 95.2257 110.214C95.2257 110.214 95.548 135.928 94.6745 139.745C93.8009 143.561 92.3167 146.114 94.3183 148.022C96.3198 149.931 111.577 151.491 119.448 151.067C127.318 150.643 131.889 148.913 132.169 146.25C132.449 143.587 132.865 137.022 133.229 133.393C133.594 129.763 137.47 106.431 137.47 106.431C137.47 106.431 148.631 92.8617 153.796 87.7731C158.961 82.6845 160.903 80.4201 161.2 77.5196C161.496 74.619 157.671 71.2945 155.127 72.2528C152.583 73.2112 145.62 81.582 141.719 83.8549C137.817 86.1278 132.135 86.7893 129.735 88.7484C127.335 90.7075 124.596 91.157 119.999 90.6906C115.402 90.2241 111.212 90.046 111.212 90.046Z" fill="#299946" stroke="#220E37" stroke-linecap="round" stroke-linejoin="round"/>
<path d="M92.0538 98.2047L95.2342 110.188L88.5681 100.893" stroke="#220E37" stroke-linecap="round" stroke-linejoin="round"/>
<path d="M137.427 106.406L131.779 114.31" stroke="#220E37" stroke-linecap="round" stroke-linejoin="round"/>
<path d="M126.529 125.658L125.605 127.201" stroke="#220E37" stroke-linecap="round" stroke-linejoin="round"/>
<path d="M133.662 113.717L128.276 122.732" stroke="#220E37" stroke-linecap="round" stroke-linejoin="round"/>
<path d="M109.211 119.653C112.349 127.091 117.268 137.65 121.585 141.958" stroke="#220E37" stroke-linecap="round" stroke-linejoin="round"/>
<path d="M106.014 111.63C106.014 111.63 106.548 113.089 107.464 115.396" stroke="#220E37" stroke-linecap="round" stroke-linejoin="round"/>
<path d="M108.431 126.396C108.431 126.396 114.605 137.421 117.819 141.661" stroke="#220E37" stroke-linecap="round" stroke-linejoin="round"/>
<path d="M73.7688 116.583C75.1 117.815 76.6098 118.839 78.2468 119.619C80.5367 120.586 84.3786 118.949 84.1835 120.773C84.0537 122.064 83.4983 123.275 82.6048 124.216C81.7113 125.158 80.5303 125.775 79.2476 125.972C75.6771 126.709 71.6147 123.538 70.4782 121.731C69.3417 119.925 70.1644 114.013 73.7688 116.583Z" fill="#299946" stroke="#220E37" stroke-linecap="round" stroke-linejoin="round"/>
<path d="M66.0255 163.619C66.0255 163.619 61.1829 166.07 63.125 166.816C65.0672 167.562 68.2136 167.155 68.7395 165.917" fill="white"/>
<path d="M66.0255 163.619C66.0255 163.619 61.1829 166.07 63.125 166.816C65.0672 167.562 68.2136 167.155 68.7395 165.917" stroke="#220E37" stroke-linecap="round" stroke-linejoin="round"/>
<path d="M63.1421 166.816L61.2678 167.181" stroke="#220E37" stroke-linecap="round" stroke-linejoin="round"/>
<path d="M118.345 269.725C118.345 269.725 123.018 277.188 126.402 279.902C129.786 282.616 130.303 282.446 130.193 283.608C130.083 284.77 127.174 285.466 122.229 284.965C117.285 284.465 113.155 280.886 108.575 278.418C103.995 275.95 102.749 275.161 103.664 272.761C104.577 270.581 105.602 268.449 106.735 266.375C106.735 266.375 113.273 266.18 118.345 269.725Z" fill="white" stroke="#220E37" stroke-linecap="round" stroke-linejoin="round"/>
<path d="M103.665 272.727C103.665 272.727 107.184 273.991 114.223 278.986C121.263 283.981 126.19 284.651 130.193 283.574" fill="white"/>
<path d="M103.665 272.727C103.665 272.727 107.184 273.991 114.223 278.986C121.263 283.981 126.19 284.651 130.193 283.574" stroke="#220E37" stroke-linecap="round" stroke-linejoin="round"/>
<path d="M50.658 260.735C50.658 260.735 50.7174 266.824 51.6503 270.191C52.5832 273.558 54.9155 276.815 53.8469 277.536C52.7783 278.257 51.6842 278.469 49.6064 277.349C47.5285 276.23 44.9079 273.957 42.2025 270.751C40.1187 268.535 38.5238 265.905 37.5209 263.033C36.2318 259.734 36.9358 257.868 39.0984 256.936C40.2329 256.492 41.285 255.861 42.2109 255.07C42.2109 255.07 48.4954 254.739 50.658 260.735Z" fill="white" stroke="#220E37" stroke-linecap="round" stroke-linejoin="round"/>
<path d="M37.7329 258.547C40.5625 260.946 42.8715 263.898 44.5177 267.223C47.6303 273.16 50.9039 276.45 53.8469 277.561" fill="white"/>
<path d="M37.7329 258.547C40.5625 260.946 42.8715 263.898 44.5177 267.223C47.6303 273.16 50.9039 276.45 53.8469 277.561" stroke="#220E37" stroke-linecap="round" stroke-linejoin="round"/>
<path d="M100.416 296.406C116.66 296.406 129.828 295.108 129.828 293.506C129.828 291.904 116.66 290.605 100.416 290.605C84.1722 290.605 71.0039 291.904 71.0039 293.506C71.0039 295.108 84.1722 296.406 100.416 296.406Z" fill="#220E37"/>
<path d="M177.882 12.1562V19.8485" stroke="#220E37" stroke-linecap="round" stroke-linejoin="round"/>
<path d="M185.26 21.0782L189.263 16.1508" stroke="#220E37" stroke-linecap="round" stroke-linejoin="round"/>
<path d="M166.187 18.6188L169.876 21.6889" stroke="#220E37" stroke-linecap="round" stroke-linejoin="round"/>
<path d="M161.878 28.7705H168.341" stroke="#220E37" stroke-linecap="round" stroke-linejoin="round"/>
<path d="M188.034 28.4652H192.961" stroke="#220E37" stroke-linecap="round" stroke-linejoin="round"/>
</svg>
