<svg width="222" height="187" viewBox="0 0 222 187" fill="none" xmlns="http://www.w3.org/2000/svg">
<path d="M78.0057 52.055C78.0057 52.055 76.6182 45.3023 77.978 39.7613C77.978 39.7613 74.8652 45.2144 72.3769 45.5058C69.8885 45.7972 63.8157 35.6819 63.8157 35.6819C63.8157 35.6819 64.5603 43.4892 62.8906 44.9877C61.2209 46.4863 49.5377 40.0249 49.5377 40.0249C49.5377 40.0249 56.9103 46.8563 56.3044 49.2753C55.6985 51.6943 48.4971 50.5888 48.4971 50.5888C48.4971 50.5888 55.865 54.4046 55.828 55.7922C55.791 57.1797 52.336 58.6228 52.336 58.6228L59.6761 60.8151C59.6761 60.8151 57.7382 55.2649 63.8665 51.278C69.9949 47.2911 78.0057 52.055 78.0057 52.055Z" fill="white" stroke="#263238" stroke-linecap="round" stroke-linejoin="round"/>
<path d="M6.81512 166.593C6.81512 166.593 23.8682 145.812 28.498 140.817C31.8558 137.191 36.6799 136.52 38.0628 133.19C38.0628 133.19 47.7063 132.265 52.8958 130.415C58.0852 128.565 65.726 125.054 71.1051 124.356C76.4842 123.657 78.8431 122.645 81.8726 122.788C84.902 122.931 96.4326 123.755 96.4326 123.755C97.501 121.683 98.5926 119.99 96.3586 117.978C94.1247 115.966 86.2341 113.723 83.1491 114.444C83.1491 114.444 66.8777 112.132 66.3042 111.581C65.7307 111.031 64.1257 99.9072 67.1506 92.8214L50.0744 91.5726C50.0744 91.5726 25.2603 119.065 1.57017 127.751C1.57017 127.751 -1.55183 153.499 6.81512 166.593Z" fill="white"/>
<path opacity="0.4" d="M95.3964 117.293C90.3087 117.793 80.3599 118.796 78.0612 119.204C74.9531 119.754 65.3512 120.304 65.3512 120.304C65.3512 120.304 61.9609 124.509 59.0332 125.609C56.1054 126.71 50.6847 120.304 47.3546 121.308C47.3546 121.308 41.5916 126.83 35.9165 125.933C32.7714 125.434 32.9379 116.165 35.6066 105.624C40.6665 101.197 45.4924 96.5103 50.065 91.5819L67.1411 92.8307C64.1163 99.9165 65.7258 111.04 66.2947 111.59C66.8636 112.141 83.1304 114.444 83.1304 114.444C85.8777 113.806 92.4039 115.494 95.3964 117.293Z" fill="#FBD689"/>
<path opacity="0.4" d="M37.8408 133.639C36.2266 136.59 31.6939 137.362 28.4933 140.817C25.2187 144.346 15.7417 155.766 10.4551 162.158C13.2302 154.295 23.2715 146.797 24.9319 144.23C27.1242 140.831 24.9319 137.135 28.8355 137.158C32.7392 137.182 37.8038 133.629 37.8038 133.629L37.8408 133.639Z" fill="#FBD689"/>
<path d="M6.81527 166.593C6.81527 166.593 23.8683 145.812 28.4981 140.817C31.856 137.191 36.6801 136.52 38.063 133.19C38.063 133.19 47.7065 132.265 52.8959 130.415C58.0854 128.565 65.7262 125.054 71.1053 124.356C76.4844 123.657 78.8432 122.645 81.8727 122.788C84.9022 122.931 96.4328 123.755 96.4328 123.755C97.5012 121.683 98.5927 119.99 96.3588 117.978C94.1248 115.966 86.2342 113.723 83.1492 114.444C83.1492 114.444 66.8779 112.132 66.3043 111.581C65.7308 111.031 64.1259 99.9072 67.1508 92.8214L50.0746 91.5726C50.0746 91.5726 25.2605 119.065 1.57031 127.751" stroke="#263238" stroke-linecap="round" stroke-linejoin="round"/>
<path d="M55.6289 81.0318C55.6289 81.0318 71.3545 68.0489 72.2194 67.7714C73.0843 67.4939 76.8446 66.4625 80.517 65.6068C84.1894 64.7512 87.1033 64.1453 89.9061 65.6068C92.709 67.0684 98.9345 68.5346 98.9345 68.5346C98.9345 68.5346 99.7254 71.4346 96.8901 72.4382C94.0549 73.4419 85.7296 72.6232 85.7296 72.6232C85.7296 72.6232 79.9666 75.366 76.4792 76.0089C76.4792 76.0089 68.9772 83.9642 68.9772 87.2573" fill="white"/>
<path opacity="0.4" d="M99.0039 69.9175C98.9411 70.4998 98.7066 71.0503 98.3302 71.4992C97.9539 71.948 97.4527 72.2748 96.8902 72.4383C94.055 73.4465 85.7297 72.6233 85.7297 72.6233C85.7297 72.6233 79.9667 75.366 76.4793 76.0089C76.4793 76.0089 71.2297 81.5591 69.5138 85.324L61.8545 83.6173C61.8545 83.6173 70.0873 74.478 70.2677 74.367C71.6513 73.8288 73.1042 73.4894 74.583 73.3587C76.7892 73.1783 80.9657 70.9166 80.9657 70.9166C80.9657 70.9166 84.3606 69.6076 86.4651 69.8852C88.5695 70.1627 93.4029 71.0738 96.3445 70.8888C97.3183 70.8921 98.2614 70.5477 99.0039 69.9175V69.9175Z" fill="#FBD689"/>
<path d="M55.6289 81.0318C55.6289 81.0318 71.3545 68.0489 72.2194 67.7714C73.0843 67.4939 76.8446 66.4625 80.517 65.6068C84.1894 64.7512 87.1033 64.1453 89.9061 65.6068C92.709 67.0684 98.9345 68.5346 98.9345 68.5346C98.9345 68.5346 99.7254 71.4346 96.8901 72.4382C94.0549 73.4419 85.7296 72.6232 85.7296 72.6232C85.7296 72.6232 79.9666 75.366 76.4792 76.0089C76.4792 76.0089 68.9772 83.9642 68.9772 87.2573" stroke="#263238" stroke-linecap="round" stroke-linejoin="round"/>
<path d="M85.73 72.6233C85.3473 72.5982 84.9754 72.486 84.6428 72.2952C84.3101 72.1044 84.0254 71.8401 83.8105 71.5225" stroke="#263238" stroke-linecap="round" stroke-linejoin="round"/>
<path d="M76.489 76.0274C76.489 76.0274 73.8666 76.2401 72.6455 74.8341" stroke="#263238" stroke-linecap="round" stroke-linejoin="round"/>
<path d="M212.881 172.731C212.881 172.731 196.55 150.123 192.285 144.832C189.177 140.988 184.423 139.998 183.252 136.58C183.252 136.58 173.688 135.022 168.637 132.806C163.586 130.591 156.186 126.608 150.876 125.563C145.566 124.518 143.272 123.338 140.238 123.278C137.204 123.218 125.646 123.278 125.646 123.278C124.721 121.146 123.736 119.379 126.108 117.52C128.481 115.661 136.496 113.949 139.521 114.874C139.521 114.874 155.908 113.653 156.519 113.144C157.129 112.636 159.474 101.642 156.926 94.3709L174.039 94.2691C174.039 94.2691 197.627 124.333 220.689 134.564C220.684 134.554 222.099 160.206 212.881 172.731Z" fill="white"/>
<path opacity="0.4" d="M183.497 129.083C177.826 130.008 172.669 122.233 172.669 122.233C169.344 121.229 163.918 127.631 160.991 126.534C158.063 125.438 154.677 121.229 154.677 121.229C154.677 121.229 145.075 120.679 141.963 120.129C139.761 119.74 130.487 118.796 125.266 118.278C125.504 117.993 125.772 117.734 126.066 117.506C128.429 115.656 136.454 113.935 139.479 114.86C139.479 114.86 155.866 113.639 156.476 113.131C157.087 112.622 159.432 101.628 156.883 94.357L173.997 94.2552C173.997 94.2552 177.979 99.3429 184.264 106.003C187.123 116.692 186.734 128.574 183.497 129.083Z" fill="#FBD689"/>
<path opacity="0.4" d="M210.096 168.882C205.235 162.19 195.439 148.754 192.266 144.832C189.158 140.988 184.403 139.998 183.233 136.58C183.233 136.58 179.963 136.048 176.235 135.165C178.798 135.22 181.009 135.072 182.22 134.554C182.22 134.554 187.308 138.102 191.202 138.083C195.097 138.065 192.909 141.756 195.106 145.155C197.174 148.351 212.224 159.207 210.096 168.882Z" fill="#FBD689"/>
<path d="M212.881 172.731C212.881 172.731 196.55 150.123 192.285 144.832C189.177 140.988 184.423 139.998 183.252 136.58C183.252 136.58 173.688 135.022 168.637 132.806C163.586 130.591 156.186 126.608 150.876 125.563C145.566 124.518 143.272 123.338 140.238 123.278C137.204 123.218 125.646 123.278 125.646 123.278C124.721 121.146 123.736 119.379 126.108 117.52C128.481 115.661 136.496 113.949 139.521 114.874C139.521 114.874 155.908 113.653 156.519 113.144C157.129 112.636 159.474 101.642 156.926 94.3709L174.039 94.2691C174.039 94.2691 197.627 124.333 220.689 134.564" stroke="#263238" stroke-linecap="round" stroke-linejoin="round"/>
<path d="M169.029 83.3445C169.029 83.3445 153.303 70.3616 152.439 70.0841C151.574 69.8066 147.813 68.7751 144.146 67.9195C140.478 67.0638 137.559 66.4579 134.752 67.9195C131.944 69.381 125.723 70.8472 125.723 70.8472C125.723 70.8472 124.933 73.7472 127.768 74.7509C130.603 75.7545 138.928 74.9359 138.928 74.9359C138.928 74.9359 144.696 77.6786 148.179 78.3215C148.179 78.3215 155.681 86.2768 155.681 89.57" fill="white"/>
<path opacity="0.4" d="M168.118 83.7699L155.672 89.5699C155.672 86.2768 148.17 78.3215 148.17 78.3215C144.696 77.6786 138.919 74.9358 138.919 74.9358C138.919 74.9358 130.594 75.7591 127.759 74.7508C127.325 74.6213 126.926 74.3949 126.592 74.0889C126.257 73.7829 125.997 73.4051 125.83 72.984C126.704 73.5622 128.281 74.1403 130.95 73.835C135.751 73.2893 139.391 71.3143 140.455 71.5225C141.519 71.7306 141.792 73.3725 141.792 73.3725C141.792 73.3725 149.839 76.5824 151.578 75.9858C153.318 75.3891 159.996 79.0522 159.996 79.0522C162.603 80.7913 165.316 82.3669 168.118 83.7699V83.7699Z" fill="#FBD689"/>
<path d="M169.029 83.3445C169.029 83.3445 153.303 70.3616 152.439 70.0841C151.574 69.8066 147.813 68.7751 144.146 67.9195C140.478 67.0638 137.559 66.4579 134.752 67.9195C131.944 69.381 125.723 70.8472 125.723 70.8472C125.723 70.8472 124.933 73.7472 127.768 74.7509C130.603 75.7545 138.928 74.9359 138.928 74.9359C138.928 74.9359 144.696 77.6786 148.179 78.3215C148.179 78.3215 155.681 86.2768 155.681 89.57" stroke="#263238" stroke-linecap="round" stroke-linejoin="round"/>
<path d="M138.929 74.9359C139.312 74.9105 139.684 74.7982 140.018 74.6074C140.351 74.4167 140.637 74.1526 140.853 73.8351" stroke="#263238" stroke-linecap="round" stroke-linejoin="round"/>
<path d="M148.17 78.34C148.17 78.34 150.792 78.5528 152.013 77.1467" stroke="#263238" stroke-linecap="round" stroke-linejoin="round"/>
<path d="M142.471 74.8896H76.5115C75.5511 74.8896 74.7725 75.6682 74.7725 76.6287V114.315C74.7725 115.275 75.5511 116.054 76.5115 116.054H142.471C143.432 116.054 144.21 115.275 144.21 114.315V76.6287C144.21 75.6682 143.432 74.8896 142.471 74.8896Z" fill="#FBD689"/>
<path opacity="0.3" d="M142.476 74.8896H76.5115C76.0503 74.8896 75.608 75.0729 75.2818 75.399C74.9557 75.7251 74.7725 76.1675 74.7725 76.6287V114.315C74.7725 114.776 74.9557 115.218 75.2818 115.544C75.608 115.871 76.0503 116.054 76.5115 116.054H142.476C142.937 116.054 143.379 115.871 143.706 115.544C144.032 115.218 144.215 114.776 144.215 114.315V76.6287C144.215 76.1675 144.032 75.7251 143.706 75.399C143.379 75.0729 142.937 74.8896 142.476 74.8896V74.8896ZM142.147 113.348C142.147 113.726 141.997 114.088 141.73 114.355C141.463 114.622 141.101 114.773 140.723 114.773H78.283C78.0959 114.773 77.9107 114.736 77.7378 114.664C77.565 114.593 77.4079 114.488 77.2757 114.355C77.1434 114.223 77.0385 114.066 76.9669 113.893C76.8953 113.72 76.8584 113.535 76.8584 113.348V77.4474C76.8578 77.2599 76.8942 77.0742 76.9655 76.9008C77.0368 76.7274 77.1417 76.5698 77.274 76.4371C77.4064 76.3043 77.5636 76.1989 77.7368 76.1271C77.9099 76.0552 78.0955 76.0182 78.283 76.0182H140.723C140.91 76.0182 141.096 76.0552 141.269 76.1271C141.442 76.1989 141.6 76.3043 141.732 76.4371C141.864 76.5698 141.969 76.7274 142.04 76.9008C142.112 77.0742 142.148 77.2599 142.147 77.4474V113.348Z" fill="black" fill-opacity="0.7"/>
<path d="M144.21 84.0844H74.7725V113.69H144.21V84.0844Z" fill="#263238"/>
<path opacity="0.2" d="M142.152 84.0844H76.8398V113.69H142.152V84.0844Z" fill="white"/>
<path opacity="0.3" d="M80.9517 114.773L81.9877 116.054H76.5115C76.0503 116.054 75.608 115.87 75.2818 115.544C74.9557 115.218 74.7725 114.776 74.7725 114.315V78.7562C74.7725 78.7562 79.5179 79.3575 80.4198 79.8432C81.3217 80.3288 88.2826 90.9713 89.1383 95.3976C89.9939 99.8239 80.9517 114.773 80.9517 114.773Z" fill="black" fill-opacity="0.7"/>
<path opacity="0.3" d="M143.345 84.6764L141.199 86.4617C141.199 86.4617 137.43 90.8279 135.501 94.9906L135.478 94.7408L135.233 94.6483C135.235 94.6067 135.235 94.565 135.233 94.5234L135.445 94.3708L135.358 93.8111L135.112 93.7279C135.112 93.6863 135.112 93.6446 135.089 93.603L135.293 93.4411L135.177 92.8815L134.927 92.8167C134.927 92.7751 134.904 92.7335 134.895 92.6872L135.089 92.5161L134.946 91.9703L134.696 91.9148C134.681 91.8725 134.669 91.8292 134.659 91.7853L134.84 91.6096L134.668 91.0684L134.419 91.0268C134.4 90.9846 134.385 90.9414 134.372 90.8973L134.548 90.7123L134.349 90.1804L134.095 90.1526L134.044 90.0277L134.21 89.8289L133.984 89.3108H133.729L133.674 89.1906L133.827 88.9871L133.577 88.4783H133.318L133.258 88.3627L133.401 88.1499L133.124 87.655H132.865L132.8 87.5394L132.934 87.322L132.633 86.8595L132.374 86.8826L132.305 86.7716L132.425 86.545L132.101 86.0825L131.842 86.1195L131.768 86.0131L131.875 85.7818L131.528 85.3193L131.273 85.3702C131.246 85.3378 131.223 85.3008 131.195 85.2638L131.292 85.0279L130.922 84.5978L130.668 84.6625L130.58 84.5654L130.668 84.3203L130.274 83.9086L130.029 83.9826L129.937 83.8948L130.011 83.645L129.599 83.2565L129.359 83.3397L129.257 83.2565L129.317 83.0021L128.887 82.6321L128.651 82.7338L128.545 82.6506L128.596 82.3962L128.133 82.0493L127.902 82.1603L127.795 82.0863L127.828 81.8273L127.365 81.5035L127.139 81.6284L127.028 81.5544L127.051 81.2954L126.565 80.9994L126.348 81.1335L126.232 81.0641V80.8098L125.737 80.5322L125.524 80.6756L125.409 80.6155V80.3611L124.9 80.1114L124.696 80.264L124.572 80.2085V79.9541L124.049 79.7275L123.855 79.894L123.73 79.8477L123.702 79.5887L123.166 79.3945L122.981 79.5702L122.856 79.524L122.814 79.2742L122.268 79.1031L122.093 79.2881L121.963 79.2511L121.907 79.0013L121.362 78.8579L121.191 79.0522L121.061 79.0198L120.992 78.77L120.437 78.659L120.275 78.8626L120.131 78.8024L120.048 78.5573L119.489 78.4694L119.336 78.6822H119.206L119.114 78.4417L118.55 78.3815L118.411 78.6035H118.281L118.175 78.363L117.611 78.3353L117.477 78.5619H117.296L117.176 78.3307H116.616L116.496 78.5665H116.371L116.237 78.3353L115.673 78.3677L115.566 78.6082H115.437L115.298 78.3862L114.734 78.4463L114.641 78.6914H114.512L114.359 78.4833L113.8 78.5712L113.721 78.8163H113.591L113.43 78.6128L112.875 78.7284L112.805 78.9782L112.68 79.0059L112.509 78.8163L111.959 78.9597L111.903 79.2094L111.778 79.2464L111.598 79.0614L111.057 79.2326L111.015 79.487L110.89 79.5286L110.701 79.3574L110.169 79.5563L110.141 79.8107L110.016 79.857L109.822 79.6951L109.299 79.9217V80.1761L109.179 80.2316L108.971 80.079L108.462 80.3287V80.5877L108.342 80.6479L108.129 80.5045L107.634 80.782V81.0364L107.519 81.1058L107.297 80.9716L106.834 81.2723V81.5313L106.723 81.6007L106.501 81.4804L106.039 81.8042L106.076 82.0632C106.038 82.0852 106.003 82.1099 105.969 82.1372L105.738 82.0262L105.275 82.3777L105.322 82.6321L105.22 82.7107L104.984 82.6136L104.554 82.9836L104.614 83.2334L104.517 83.3212L104.276 83.238L103.865 83.6265L103.939 83.8763C103.906 83.904 103.879 83.9364 103.846 83.9688L103.596 83.8948L103.208 84.3064L103.296 84.5469C103.263 84.5793 103.236 84.6163 103.208 84.6487L102.958 84.5839L102.588 85.0187L102.685 85.2546L102.607 85.3563L102.352 85.3101L102.001 85.7726L102.112 86.0038L102.038 86.1102L101.779 86.0732L101.455 86.5357L101.58 86.7624L101.51 86.8734L101.251 86.8502L100.951 87.3128L101.085 87.5348L101.02 87.6458H100.761L100.484 88.1453L100.632 88.3581C100.609 88.3951 100.59 88.4367 100.572 88.4737H100.313L100.063 88.9824L100.215 89.186C100.215 89.2276 100.183 89.2692 100.165 89.3062H99.9055L99.6835 89.8289L99.8454 90.0231L99.7991 90.148L99.5448 90.1757L99.3459 90.7076L99.5216 90.8973L99.48 91.0222L99.2256 91.0638L99.0545 91.6049L99.2395 91.7853C99.2395 91.8269 99.2164 91.8686 99.2025 91.9102L98.9527 91.9657L98.8093 92.5161L99.0036 92.6872L98.9759 92.8167L98.7261 92.8815L98.6105 93.4411L98.814 93.5984C98.814 93.6446 98.814 93.6863 98.7908 93.7279L98.5457 93.8065L98.4578 94.3708L98.6706 94.5234V94.6483L98.4255 94.7408L98.37 95.3097L98.5873 95.4485C98.5873 95.4901 98.5873 95.5317 98.5873 95.578L98.3515 95.6797L98.3191 96.2486L98.5503 96.3781C98.5503 96.4197 98.5503 96.466 98.5503 96.5076L98.3145 96.6233V97.1922L98.5503 97.3124C98.5503 97.3725 98.5503 97.4327 98.5503 97.4928L98.3237 97.6223L98.3515 98.1912L98.592 98.2976C98.5943 98.3392 98.5943 98.3809 98.592 98.4225L98.3746 98.5658L98.4347 99.1301L98.6752 99.2226C98.6752 99.2642 98.6752 99.3059 98.6752 99.3521L98.4625 99.5001L98.5503 100.064L98.7955 100.143C98.8054 100.186 98.8131 100.229 98.8186 100.273L98.6151 100.434L98.7353 100.989L98.9805 101.054C98.9934 101.097 99.0042 101.14 99.0129 101.184L98.8186 101.355L98.962 101.905L99.2164 101.956C99.2164 101.998 99.2395 102.044 99.2487 102.086L99.0684 102.266L99.2395 102.807L99.4939 102.849L99.5355 102.974L99.3597 103.159L99.5586 103.695L99.813 103.723L99.8639 103.843L99.6974 104.042L99.924 104.565H100.183L100.234 104.685L100.081 104.888L100.331 105.397H100.59L100.65 105.513L100.507 105.726L100.784 106.225H101.043L101.108 106.341L100.974 106.558L101.275 107.021L101.534 106.998L101.603 107.109L101.483 107.335L101.811 107.798L102.065 107.761C102.093 107.794 102.117 107.83 102.139 107.867L102.033 108.098L102.38 108.561L102.634 108.51L102.718 108.616L102.616 108.852L102.991 109.282L103.24 109.218C103.267 109.254 103.296 109.288 103.328 109.319L103.24 109.56L103.633 109.972L103.879 109.898L103.971 109.99L103.897 110.235L104.309 110.628L104.554 110.54L104.651 110.628L104.591 110.878L105.021 111.248L105.257 111.151L105.363 111.23L105.312 111.484L105.775 111.831L106.006 111.72L106.117 111.798L106.08 112.053L106.543 112.377L106.765 112.256L106.876 112.326L106.853 112.585L107.338 112.885L107.556 112.751L107.671 112.816V113.075L108.166 113.348L108.379 113.205L108.494 113.265V113.524L109.003 113.773L109.211 113.616L109.332 113.672V113.931L109.854 114.153L110.049 113.986L110.173 114.037L110.201 114.291L110.738 114.49L110.923 114.315L111.048 114.356L111.089 114.611L111.635 114.777L111.811 114.597L111.94 114.629L111.996 114.883L112.546 115.022L112.713 114.833L112.842 114.86L112.912 115.11L113.467 115.221L113.628 115.022H113.753L113.837 115.272L114.396 115.355L114.549 115.142H114.678L114.771 115.388L115.335 115.443L115.474 115.221H115.603L115.71 115.462L116.279 115.489L116.408 115.263H116.589L116.709 115.499H117.273L117.393 115.263H117.518L117.652 115.489L118.217 115.457L118.323 115.216H118.452L118.591 115.438L119.156 115.378L119.248 115.133H119.378L119.53 115.346L120.131 115.341L120.21 115.092L120.34 115.068L120.501 115.272L121.056 115.156L121.126 114.907L121.251 114.879L121.422 115.073L121.972 114.93L122.028 114.675L122.153 114.638L122.333 114.823L122.874 114.652L122.907 114.416L123.031 114.375L123.221 114.55L123.753 114.352L123.781 114.093L123.906 114.046L124.1 114.208L124.622 113.986V113.727L124.743 113.672L124.951 113.829L125.46 113.575V113.32L125.58 113.26L125.793 113.403L126.288 113.126V112.867L126.399 112.802L126.621 112.932L127.083 112.631L127.06 112.377L127.171 112.303L127.398 112.427L127.86 112.099L127.823 111.845L127.929 111.766L128.165 111.877L128.628 111.53L128.577 111.276L128.679 111.193L128.915 111.29L129.345 110.92L129.285 110.67L129.382 110.582L129.627 110.67L129.997 110.309L131.384 110.994L132.948 109.185L132.023 107.83H132.111L132.434 107.368L132.31 107.141L132.379 107.03L132.638 107.053L132.939 106.591L132.804 106.373L132.869 106.257H133.128L133.406 105.763L133.258 105.55C133.281 105.508 133.299 105.471 133.318 105.43H133.577L133.827 104.916L133.674 104.713C133.674 104.671 133.711 104.634 133.725 104.592H133.984L134.206 104.07L134.044 103.871C134.044 103.829 134.076 103.788 134.09 103.751L134.345 103.718L134.543 103.186L134.368 103.001L134.409 102.872L134.664 102.83L134.738 102.594C135.728 107.987 138.438 114.888 138.438 114.888L138.258 115.85L138.48 116.077H142.471C142.932 116.077 143.375 115.894 143.701 115.567C144.027 115.241 144.21 114.799 144.21 114.338V84.7874L143.345 84.6764Z" fill="black" fill-opacity="0.7"/>
<path d="M142.471 74.8896H76.5115C75.5511 74.8896 74.7725 75.6682 74.7725 76.6287V114.315C74.7725 115.275 75.5511 116.054 76.5115 116.054H142.471C143.432 116.054 144.21 115.275 144.21 114.315V76.6287C144.21 75.6682 143.432 74.8896 142.471 74.8896Z" stroke="#263238" stroke-linecap="round" stroke-linejoin="round"/>
<path d="M89.1437 73.1506V74.8896H78.6631V73.1506C78.6631 73.0169 78.7162 72.8886 78.8107 72.7941C78.9053 72.6995 79.0335 72.6464 79.1672 72.6464H88.635C88.7016 72.6458 88.7676 72.6584 88.8293 72.6835C88.891 72.7085 88.9471 72.7456 88.9945 72.7924C89.0418 72.8393 89.0793 72.8951 89.1049 72.9566C89.1306 73.018 89.1438 73.084 89.1437 73.1506V73.1506Z" fill="#999999"/>
<path opacity="0.4" d="M89.1437 73.1506V73.3772H78.6631V73.1506C78.6631 73.0169 78.7162 72.8886 78.8107 72.7941C78.9053 72.6995 79.0335 72.6464 79.1672 72.6464H88.635C88.7016 72.6458 88.7676 72.6584 88.8293 72.6835C88.891 72.7085 88.9471 72.7456 88.9945 72.7924C89.0418 72.8393 89.0793 72.8951 89.1049 72.9566C89.1306 73.018 89.1438 73.084 89.1437 73.1506V73.1506Z" fill="white"/>
<path d="M89.1437 73.1506V74.8896H78.6631V73.1506C78.6631 73.0169 78.7162 72.8886 78.8107 72.7941C78.9053 72.6995 79.0335 72.6464 79.1672 72.6464H88.635C88.7016 72.6458 88.7676 72.6584 88.8293 72.6835C88.891 72.7085 88.9471 72.7456 88.9945 72.7924C89.0418 72.8393 89.0793 72.8951 89.1049 72.9566C89.1306 73.018 89.1438 73.084 89.1437 73.1506V73.1506Z" stroke="#263238" stroke-linecap="round" stroke-linejoin="round"/>
<path d="M99.0039 73.8397V74.8896H90.623V73.8397L92.1817 73.3771V72.7527C92.1817 72.6301 92.2305 72.5124 92.3172 72.4257C92.4039 72.339 92.5216 72.2902 92.6443 72.2902H96.9642C97.0868 72.2902 97.2045 72.339 97.2912 72.4257C97.378 72.5124 97.4267 72.6301 97.4267 72.7527V73.3771L99.0039 73.8397Z" fill="#999999"/>
<path opacity="0.4" d="M99.0039 74.0893V73.8396L97.4452 73.3771H92.1817L90.623 73.8396V74.0893H99.0039Z" fill="white"/>
<path opacity="0.4" d="M97.4682 72.7527V72.8313H92.1816V72.7527C92.1816 72.63 92.2304 72.5124 92.3171 72.4256C92.4038 72.3389 92.5215 72.2901 92.6442 72.2901H96.9641C97.0282 72.2843 97.0929 72.292 97.1539 72.3126C97.2149 72.3333 97.2709 72.3664 97.3184 72.41C97.3658 72.4535 97.4037 72.5065 97.4295 72.5655C97.4553 72.6245 97.4685 72.6883 97.4682 72.7527V72.7527Z" fill="white"/>
<path d="M99.0039 73.8397V74.8896H90.623V73.8397L92.1817 73.3771V72.7527C92.1817 72.6301 92.2305 72.5124 92.3172 72.4257C92.4039 72.339 92.5216 72.2902 92.6443 72.2902H96.9642C97.0868 72.2902 97.2045 72.339 97.2912 72.4257C97.378 72.5124 97.4267 72.6301 97.4267 72.7527V73.3771L99.0039 73.8397Z" stroke="#263238" stroke-linecap="round" stroke-linejoin="round"/>
<path d="M92.1816 73.3771H97.4451" stroke="#263238" stroke-linecap="round" stroke-linejoin="round"/>
<path d="M133.503 95.6381V96.4846L133.804 96.3319V95.7954L133.503 95.6381Z" fill="#263238"/>
<path d="M98.606 95.6381L98.3008 95.7954V96.3319L98.606 96.4846V95.6381Z" fill="#263238"/>
<path d="M133.457 97.3679L133.767 97.2292L133.795 96.6926L133.499 96.5215L133.457 97.3679Z" fill="#263238"/>
<path d="M98.6482 94.7594L98.3383 94.8935L98.3105 95.4347L98.6066 95.6058L98.6482 94.7594Z" fill="#263238"/>
<path d="M133.369 98.2467L133.688 98.1264L133.744 97.5853L133.457 97.4049L133.369 98.2467Z" fill="#263238"/>
<path d="M98.7408 93.8806L98.4217 94.0008L98.3662 94.542L98.653 94.7223L98.7408 93.8806Z" fill="#263238"/>
<path d="M133.235 99.1209L133.559 99.0146L133.642 98.478L133.365 98.2838L133.235 99.1209Z" fill="#263238"/>
<path d="M98.8702 93.0063L98.5464 93.1127L98.4678 93.6492L98.7407 93.8435L98.8702 93.0063Z" fill="#263238"/>
<path d="M133.06 99.9858L133.388 99.8933L133.499 99.366L133.231 99.1533L133.06 99.9858Z" fill="#263238"/>
<path d="M99.0461 92.1415L98.7177 92.2294L98.6113 92.7613L98.875 92.974L99.0461 92.1415Z" fill="#263238"/>
<path d="M132.842 100.837L133.175 100.767L133.309 100.245L133.055 100.018L132.842 100.837Z" fill="#263238"/>
<path d="M99.2679 91.2905L98.9349 91.3598L98.8008 91.8825L99.0552 92.1091L99.2679 91.2905Z" fill="#263238"/>
<path d="M132.578 101.679L132.911 101.628L133.073 101.11L132.833 100.874L132.578 101.679Z" fill="#263238"/>
<path d="M99.5317 90.4441L99.1941 90.4996L99.0322 91.0176L99.2774 91.2535L99.5317 90.4441Z" fill="#263238"/>
<path d="M132.273 102.507L132.611 102.47L132.796 101.965L132.565 101.716L132.273 102.507Z" fill="#263238"/>
<path d="M99.8368 89.6161L99.4992 89.6578L99.3096 90.1619L99.5408 90.4117L99.8368 89.6161Z" fill="#263238"/>
<path d="M131.927 103.321L132.264 103.297L132.477 102.803L132.26 102.544L131.927 103.321Z" fill="#263238"/>
<path d="M100.184 88.8068L99.8417 88.8253L99.6289 89.3248L99.8509 89.5839L100.184 88.8068Z" fill="#263238"/>
<path d="M131.538 104.116L131.88 104.112L132.116 103.626L131.913 103.353L131.538 104.116Z" fill="#263238"/>
<path d="M100.567 88.0112L100.23 88.0158L99.9893 88.5015L100.197 88.7744L100.567 88.0112Z" fill="#263238"/>
<path d="M131.112 104.884L131.455 104.898L131.714 104.426L131.524 104.144L131.112 104.884Z" fill="#263238"/>
<path d="M100.997 87.2388L100.655 87.2249L100.392 87.7013L100.586 87.9788L100.997 87.2388Z" fill="#263238"/>
<path d="M130.646 105.638L130.988 105.665L131.27 105.208L131.094 104.916L130.646 105.638Z" fill="#263238"/>
<path d="M101.46 86.4896L101.123 86.4618L100.836 86.9197L101.012 87.2111L101.46 86.4896Z" fill="#263238"/>
<path d="M130.146 106.359L130.483 106.41L130.788 105.966L130.627 105.666L130.146 106.359Z" fill="#263238"/>
<path d="M101.964 85.7634L101.626 85.7171L101.316 86.1611L101.478 86.4618L101.964 85.7634Z" fill="#263238"/>
<path d="M129.604 107.062L129.938 107.127L130.271 106.697L130.123 106.392L129.604 107.062Z" fill="#263238"/>
<path d="M102.501 85.065L102.168 85.0002L101.84 85.4304L101.983 85.7356L102.501 85.065Z" fill="#263238"/>
<path d="M129.031 107.733L129.364 107.812L129.716 107.4L129.582 107.09L129.031 107.733Z" fill="#263238"/>
<path d="M103.074 84.3943L102.746 84.311L102.395 84.7227L102.524 85.0372L103.074 84.3943Z" fill="#263238"/>
<path d="M128.425 108.371L128.753 108.473L129.123 108.08L129.008 107.761L128.425 108.371Z" fill="#263238"/>
<path d="M103.68 83.7515L103.356 83.6544L102.986 84.0475L103.097 84.3666L103.68 83.7515Z" fill="#263238"/>
<path d="M127.787 108.982L128.111 109.097L128.499 108.723L128.402 108.399L127.787 108.982Z" fill="#263238"/>
<path d="M104.319 83.1455L104 83.0299L103.611 83.4045L103.708 83.7283L104.319 83.1455Z" fill="#263238"/>
<path d="M127.121 109.56L127.436 109.689L127.843 109.338L127.764 109.005L127.121 109.56Z" fill="#263238"/>
<path d="M104.989 82.5673L104.674 82.4378L104.263 82.7893L104.346 83.1177L104.989 82.5673Z" fill="#263238"/>
<path d="M126.422 110.101L126.732 110.249L127.157 109.916L127.093 109.583L126.422 110.101Z" fill="#263238"/>
<path d="M105.683 82.0263L105.378 81.8783L104.952 82.2113L105.017 82.5443L105.683 82.0263Z" fill="#263238"/>
<path d="M125.701 110.605L126.002 110.767L126.441 110.457L126.395 110.124L125.701 110.605Z" fill="#263238"/>
<path d="M106.409 81.5175L106.108 81.3556L105.664 81.6655L105.715 82.0031L106.409 81.5175Z" fill="#263238"/>
<path d="M124.951 111.077L125.243 111.253L125.7 110.966L125.673 110.628L124.951 111.077Z" fill="#263238"/>
<path d="M107.154 81.0504L106.862 80.8746L106.404 81.1614L106.437 81.499L107.154 81.0504Z" fill="#263238"/>
<path d="M124.184 111.507L124.466 111.697L124.938 111.433L124.924 111.096L124.184 111.507Z" fill="#263238"/>
<path d="M107.926 80.6202L107.644 80.426L107.172 80.6896L107.186 81.0319L107.926 80.6202Z" fill="#263238"/>
<path d="M123.661 112.104L124.146 111.863L124.151 111.526L123.393 111.9L123.661 112.104Z" fill="#263238"/>
<path d="M108.445 80.0236L107.959 80.2641V80.6017L108.718 80.2271L108.445 80.0236Z" fill="#263238"/>
<path d="M122.842 112.469L123.337 112.252L123.36 111.914L122.583 112.247L122.842 112.469Z" fill="#263238"/>
<path d="M109.267 79.6582L108.768 79.871L108.749 80.2132L109.526 79.8756L109.267 79.6582Z" fill="#263238"/>
<path d="M122.006 112.788L122.51 112.599L122.547 112.261L121.756 112.557L122.006 112.788Z" fill="#263238"/>
<path d="M110.104 79.3391L109.596 79.5241L109.559 79.8617L110.354 79.5703L110.104 79.3391Z" fill="#263238"/>
<path d="M121.15 113.07L121.668 112.909L121.723 112.571L120.914 112.825L121.15 113.07Z" fill="#263238"/>
<path d="M110.956 79.0569L110.442 79.2188L110.387 79.5565L111.196 79.3021L110.956 79.0569Z" fill="#263238"/>
<path d="M120.284 113.306L120.807 113.168L120.881 112.835L120.058 113.052L120.284 113.306Z" fill="#263238"/>
<path d="M111.821 78.821L111.303 78.9598L111.229 79.2928L112.047 79.0754L111.821 78.821Z" fill="#263238"/>
<path d="M119.406 113.496L119.938 113.385L120.026 113.057L119.198 113.232L119.406 113.496Z" fill="#263238"/>
<path d="M112.699 78.6314L112.172 78.7377L112.084 79.0661L112.912 78.895L112.699 78.6314Z" fill="#263238"/>
<path d="M118.522 113.644L119.059 113.561L119.16 113.237L118.323 113.366L118.522 113.644Z" fill="#263238"/>
<path d="M113.587 78.4834L113.051 78.5666L112.949 78.8904L113.782 78.7609L113.587 78.4834Z" fill="#263238"/>
<path d="M117.63 113.746L118.167 113.69L118.287 113.371L117.445 113.459L117.63 113.746Z" fill="#263238"/>
<path d="M114.475 78.3816L113.939 78.4371L113.818 78.7563L114.66 78.6684L114.475 78.3816Z" fill="#263238"/>
<path d="M116.733 113.806L117.274 113.773L117.413 113.464L116.566 113.51L116.733 113.806Z" fill="#263238"/>
<path d="M115.373 78.3215L114.836 78.3539L114.697 78.6638L115.544 78.6176L115.373 78.3215Z" fill="#263238"/>
<path d="M115.835 113.815H116.376L116.529 113.51L115.683 113.515L115.835 113.815Z" fill="#263238"/>
<path d="M116.27 78.3122H115.729L115.576 78.6175L116.427 78.6129L116.27 78.3122Z" fill="#263238"/>
<path d="M117.223 78.3493L116.682 78.3215L116.516 78.6176L117.357 78.6592L117.223 78.3493Z" fill="#263238"/>
<path d="M114.887 113.778L115.428 113.806L115.594 113.51L114.748 113.468L114.887 113.778Z" fill="#263238"/>
<path d="M118.115 78.4278L117.579 78.377L117.394 78.6637L118.235 78.747L118.115 78.4278Z" fill="#263238"/>
<path d="M113.994 113.695L114.531 113.75L114.711 113.464L113.869 113.38L113.994 113.695Z" fill="#263238"/>
<path d="M119.003 78.5573L118.471 78.4741L118.272 78.7516L119.11 78.8811L119.003 78.5573Z" fill="#263238"/>
<path d="M113.102 113.57L113.638 113.653L113.837 113.376L113 113.246L113.102 113.57Z" fill="#263238"/>
<path d="M119.887 78.7285L119.355 78.6175L119.146 78.8858L119.974 79.0569L119.887 78.7285Z" fill="#263238"/>
<path d="M112.223 113.399L112.75 113.505L112.963 113.242L112.135 113.07L112.223 113.399Z" fill="#263238"/>
<path d="M120.756 78.9458L120.234 78.8071L120.012 79.0661L120.83 79.2788L120.756 78.9458Z" fill="#263238"/>
<path d="M111.349 113.181L111.876 113.32L112.098 113.061L111.279 112.848L111.349 113.181Z" fill="#263238"/>
<path d="M121.617 79.2048L121.099 79.043L120.863 79.2881L121.673 79.5378L121.617 79.2048Z" fill="#263238"/>
<path d="M110.493 112.923L111.006 113.084L111.242 112.839L110.438 112.589L110.493 112.923Z" fill="#263238"/>
<path d="M122.464 79.5056L121.955 79.3206L121.705 79.5518L122.501 79.8432L122.464 79.5056Z" fill="#263238"/>
<path d="M109.646 112.622L110.155 112.807L110.4 112.576L109.609 112.284L109.646 112.622Z" fill="#263238"/>
<path d="M123.291 79.8525L122.791 79.6397L122.532 79.8571L123.309 80.1901L123.291 79.8525Z" fill="#263238"/>
<path d="M108.819 112.275L109.314 112.488L109.578 112.27L108.796 111.937L108.819 112.275Z" fill="#263238"/>
<path d="M124.1 80.2363L123.615 80.0004L123.342 80.2039L124.105 80.5785L124.1 80.2363Z" fill="#263238"/>
<path d="M108.01 111.886L108.495 112.127L108.763 111.919L108.005 111.549L108.01 111.886Z" fill="#263238"/>
<path d="M124.892 80.6664L124.415 80.4028L124.138 80.5971L124.878 81.0041L124.892 80.6664Z" fill="#263238"/>
<path d="M107.219 111.461L107.691 111.724L107.973 111.53L107.233 111.123L107.219 111.461Z" fill="#263238"/>
<path d="M125.659 81.1289L125.197 80.8468L124.91 81.0225L125.627 81.4712L125.659 81.1289Z" fill="#263238"/>
<path d="M106.451 110.994L106.909 111.28L107.2 111.105L106.484 110.656L106.451 110.994Z" fill="#263238"/>
<path d="M126.353 81.9708L126.399 81.6378L125.955 81.3279L125.654 81.4898L126.353 81.9708Z" fill="#263238"/>
<path d="M105.757 110.152L105.706 110.49L106.15 110.799L106.451 110.638L105.757 110.152Z" fill="#263238"/>
<path d="M127.052 82.5119L127.116 82.1789L126.691 81.8459L126.381 81.9939L127.052 82.5119Z" fill="#263238"/>
<path d="M105.059 109.615L104.994 109.948L105.42 110.281L105.725 110.133L105.059 109.615Z" fill="#263238"/>
<path d="M127.722 83.0855L127.805 82.7525L127.394 82.4009L127.079 82.5351L127.722 83.0855Z" fill="#263238"/>
<path d="M104.388 109.042L104.305 109.37L104.716 109.722L105.026 109.592L104.388 109.042Z" fill="#263238"/>
<path d="M128.365 83.6913L128.462 83.3675L128.069 82.9929L127.75 83.1085L128.365 83.6913Z" fill="#263238"/>
<path d="M103.745 108.436L103.647 108.76L104.041 109.134L104.36 109.019L103.745 108.436Z" fill="#263238"/>
<path d="M128.975 84.3296L129.086 84.0105L128.716 83.6173L128.388 83.7191L128.975 84.3296Z" fill="#263238"/>
<path d="M103.134 107.798L103.019 108.117L103.393 108.51L103.717 108.408L103.134 107.798Z" fill="#263238"/>
<path d="M129.549 84.9957L129.679 84.6858L129.327 84.2741L128.999 84.3574L129.549 84.9957Z" fill="#263238"/>
<path d="M102.556 107.127L102.427 107.442L102.778 107.853L103.111 107.77L102.556 107.127Z" fill="#263238"/>
<path d="M130.095 85.6941L130.238 85.3888L129.905 84.9587L129.572 85.0234L130.095 85.6941Z" fill="#263238"/>
<path d="M102.015 106.433L101.867 106.739L102.2 107.169L102.533 107.099L102.015 106.433Z" fill="#263238"/>
<path d="M130.599 86.4156L130.761 86.1149L130.451 85.6755L130.113 85.7218L130.599 86.4156Z" fill="#263238"/>
<path d="M101.511 105.712L101.35 106.008L101.659 106.452L101.993 106.406L101.511 105.712Z" fill="#263238"/>
<path d="M131.066 87.1649L131.242 86.8735L130.955 86.4156L130.617 86.448L131.066 87.1649Z" fill="#263238"/>
<path d="M101.039 104.963L100.863 105.254L101.15 105.712L101.488 105.679L101.039 104.963Z" fill="#263238"/>
<path d="M131.496 87.9373L131.69 87.6552L131.426 87.1834L131.084 87.1973L131.496 87.9373Z" fill="#263238"/>
<path d="M100.61 104.19L100.42 104.472L100.684 104.944L101.021 104.93L100.61 104.19Z" fill="#263238"/>
<path d="M131.889 88.7282L132.093 88.4553L131.857 87.9696L131.515 87.965L131.889 88.7282Z" fill="#263238"/>
<path d="M100.216 103.399L100.013 103.672L100.253 104.158H100.591L100.216 103.399Z" fill="#263238"/>
<path d="M132.241 89.5375L132.458 89.2739L132.246 88.779L131.903 88.7605L132.241 89.5375Z" fill="#263238"/>
<path d="M99.8688 102.59L99.6514 102.853L99.8641 103.348L100.202 103.367L99.8688 102.59Z" fill="#263238"/>
<path d="M132.551 90.3608L132.782 90.1111L132.593 89.6069L132.255 89.5699L132.551 90.3608Z" fill="#263238"/>
<path d="M99.5594 101.762L99.3281 102.012L99.5178 102.52L99.8554 102.557L99.5594 101.762Z" fill="#263238"/>
<path d="M132.819 91.2025L133.059 90.9667L132.897 90.4486L132.56 90.3978L132.819 91.2025Z" fill="#263238"/>
<path d="M99.291 100.925L99.0459 101.161L99.2124 101.674L99.5454 101.73L99.291 100.925Z" fill="#263238"/>
<path d="M133.041 92.0583L133.295 91.8316L133.161 91.309L132.828 91.2396L133.041 92.0583Z" fill="#263238"/>
<path d="M99.0688 100.069L98.8145 100.296L98.9486 100.818L99.2816 100.888L99.0688 100.069Z" fill="#263238"/>
<path d="M133.221 92.9231L133.489 92.7104L133.378 92.1785L133.05 92.0906L133.221 92.9231Z" fill="#263238"/>
<path d="M98.8837 99.2042L98.6201 99.4169L98.7311 99.9442L99.0595 100.032L98.8837 99.2042Z" fill="#263238"/>
<path d="M133.36 93.7928L133.633 93.5939L133.549 93.062L133.226 92.9556L133.36 93.7928Z" fill="#263238"/>
<path d="M98.7502 98.3347L98.4727 98.5335L98.5559 99.0654L98.8797 99.1718L98.7502 98.3347Z" fill="#263238"/>
<path d="M133.453 94.6714L133.74 94.4864L133.68 93.9499L133.365 93.8297L133.453 94.6714Z" fill="#263238"/>
<path d="M98.6569 97.4558L98.3701 97.6408L98.4256 98.1773L98.7448 98.2976L98.6569 97.4558Z" fill="#263238"/>
<path d="M133.498 95.5503L133.794 95.3838L133.767 94.8427L133.452 94.7085L133.498 95.5503Z" fill="#263238"/>
<path d="M98.6114 96.5771L98.3154 96.7436L98.3432 97.2847L98.6531 97.4189L98.6114 96.5771Z" fill="#263238"/>
<path d="M132.909 100.212C135.203 90.9007 129.515 81.4932 120.204 79.1994C110.893 76.9055 101.485 82.5939 99.1915 91.9048C96.8976 101.216 102.586 110.623 111.897 112.917C121.208 115.211 130.615 109.523 132.909 100.212Z" fill="#999999" stroke="#263238" stroke-linecap="round" stroke-linejoin="round"/>
<path d="M132.147 100.024C134.338 91.1348 128.909 82.1524 120.02 79.9608C111.131 77.7693 102.149 83.1985 99.9574 92.0874C97.7659 100.976 103.195 109.959 112.084 112.15C120.973 114.342 129.955 108.912 132.147 100.024Z" fill="#BFBFBF" stroke="#263238" stroke-linecap="round" stroke-linejoin="round"/>
<path opacity="0.3" d="M129.883 98.3891C131.164 90.7533 126.012 83.5252 118.376 82.2446C110.74 80.9641 103.512 86.1161 102.232 93.7519C100.951 101.388 106.103 108.616 113.739 109.896C121.375 111.177 128.603 106.025 129.883 98.3891Z" fill="black" fill-opacity="0.7"/>
<path d="M128.791 99.3306C130.594 92.2956 126.352 85.1315 119.317 83.3292C112.282 81.5268 105.118 85.7687 103.315 92.8037C101.513 99.8387 105.755 107.003 112.79 108.805C119.825 110.607 126.989 106.366 128.791 99.3306Z" fill="#BFBFBF" stroke="#263238" stroke-linecap="round" stroke-linejoin="round"/>
<path d="M125.91 98.5107C127.262 93.0664 123.944 87.5574 118.5 86.206C113.055 84.8547 107.546 88.1727 106.195 93.617C104.844 99.0612 108.162 104.57 113.606 105.922C119.05 107.273 124.559 103.955 125.91 98.5107Z" fill="#757575" stroke="#263238" stroke-linecap="round" stroke-linejoin="round"/>
<path d="M131.283 107.682L129.799 109.407L128.342 108.7L130.368 106.35L131.283 107.682Z" fill="#BFBFBF" stroke="#263238" stroke-linecap="round" stroke-linejoin="round"/>
<g opacity="0.3">
<path opacity="0.3" d="M110.063 85.0789L110.188 85.2917L110.378 86.633L110.84 86.3694L110.965 86.5821L110.276 86.9891L110.151 86.781L109.962 85.4397L109.536 85.6895L109.411 85.4767L110.063 85.0789Z" fill="black"/>
<path opacity="0.3" d="M110.466 85.3379C110.418 85.238 110.412 85.1231 110.449 85.0186C110.485 84.914 110.562 84.8284 110.662 84.7806C110.762 84.7328 110.877 84.7266 110.982 84.7635C111.086 84.8003 111.172 84.8772 111.22 84.9772L111.613 85.7958C111.636 85.8453 111.65 85.899 111.653 85.9538C111.656 86.0086 111.648 86.0635 111.63 86.1152C111.612 86.167 111.583 86.2146 111.547 86.2554C111.51 86.2963 111.466 86.3295 111.416 86.3532C111.367 86.3769 111.313 86.3906 111.258 86.3935C111.203 86.3964 111.149 86.3886 111.097 86.3703C111.045 86.3521 110.997 86.3238 110.957 86.2871C110.916 86.2505 110.883 86.2061 110.859 86.1566L110.466 85.3379ZM111.118 86.0548C111.169 86.1658 111.238 86.1843 111.317 86.1473C111.395 86.1103 111.428 86.041 111.372 85.93L110.965 85.0789C110.91 84.9679 110.84 84.9494 110.762 84.9864C110.683 85.0234 110.655 85.0928 110.706 85.2038L111.118 86.0548Z" fill="black"/>
<path opacity="0.3" d="M111.442 84.8846C111.417 84.8326 111.404 84.7761 111.402 84.7186C111.401 84.6612 111.411 84.604 111.433 84.5508C111.455 84.4976 111.487 84.4494 111.528 84.4093C111.57 84.3693 111.619 84.3382 111.672 84.318C111.726 84.2978 111.784 84.289 111.841 84.2921C111.898 84.2952 111.955 84.3101 112.006 84.336C112.057 84.3618 112.103 84.398 112.139 84.4423C112.176 84.4866 112.203 84.538 112.219 84.5932L112.538 85.4442C112.557 85.4956 112.566 85.5502 112.564 85.6049C112.562 85.6596 112.549 85.7135 112.526 85.7633C112.504 85.8131 112.471 85.8579 112.431 85.8953C112.391 85.9326 112.344 85.9616 112.293 85.9808C112.241 85.9999 112.187 86.0087 112.132 86.0068C112.077 86.0048 112.024 85.9921 111.974 85.9693C111.924 85.9466 111.879 85.9142 111.842 85.8741C111.804 85.834 111.775 85.787 111.756 85.7356L111.442 84.8846ZM112.02 85.657C112.066 85.7726 112.136 85.7958 112.214 85.768C112.293 85.7403 112.33 85.6709 112.288 85.5553L111.955 84.6718C111.914 84.5562 111.844 84.5331 111.766 84.5608C111.687 84.5886 111.65 84.658 111.692 84.7736L112.02 85.657Z" fill="black"/>
<path opacity="0.3" d="M113.227 85.1575L113.093 83.9087L113.463 83.8162L113.925 85.5044L113.675 85.5691L113.361 84.3573L113.495 85.6154L113.245 85.6801L112.732 84.5377L113.042 85.7356L112.81 85.7958L112.371 84.103L112.741 84.0058L113.227 85.1575Z" fill="black"/>
<path opacity="0.3" d="M114.217 83.6867L114.49 83.6544L114.67 85.1437L115.133 85.0882L115.16 85.3379L114.439 85.4212L114.217 83.6867Z" fill="black"/>
<path opacity="0.3" d="M115.461 84.3111H115.835V84.5563H115.456L115.479 85.065H115.942V85.3148L115.197 85.3426L115.123 83.6035L115.872 83.5711V83.8209H115.41L115.461 84.3111Z" fill="black"/>
<path opacity="0.3" d="M116.432 84.0475L116.372 85.3102H116.127L116.206 83.5711H116.548L116.779 84.6256L116.825 83.585H117.07L116.987 85.3287H116.71L116.432 84.0475Z" fill="black"/>
<path opacity="0.3" d="M117.746 83.6589C117.803 83.6622 117.858 83.6783 117.908 83.706C117.958 83.7337 118.001 83.7724 118.034 83.8191C118.067 83.8658 118.089 83.9193 118.098 83.9757C118.107 84.032 118.104 84.0898 118.088 84.1446V84.2001L117.829 84.1677V84.0937C117.829 83.9688 117.801 83.9179 117.713 83.9041C117.625 83.8902 117.57 83.9318 117.556 84.0567C117.542 84.1816 117.579 84.2833 117.736 84.4637C117.818 84.5356 117.881 84.6261 117.921 84.7275C117.96 84.8289 117.975 84.9383 117.963 85.0465C117.962 85.1048 117.949 85.1624 117.924 85.2152C117.9 85.2681 117.864 85.3152 117.82 85.3532C117.776 85.3913 117.724 85.4196 117.668 85.4361C117.612 85.4526 117.553 85.4571 117.495 85.4492C117.438 85.4412 117.382 85.4211 117.333 85.3901C117.283 85.3591 117.241 85.318 117.209 85.2694C117.176 85.2208 117.155 85.1659 117.145 85.1084C117.136 85.0508 117.138 84.9919 117.153 84.9355V84.8291L117.408 84.8661V84.9864C117.408 85.1112 117.436 85.1621 117.523 85.176C117.611 85.1899 117.672 85.1482 117.69 85.028C117.709 84.9077 117.662 84.7967 117.505 84.621C117.424 84.5488 117.361 84.4582 117.323 84.3567C117.284 84.2553 117.27 84.146 117.283 84.0382C117.325 83.7607 117.482 83.6219 117.746 83.6589Z" fill="black"/>
<path opacity="0.3" d="M119.123 85.7728C119.065 85.7624 119.01 85.739 118.962 85.7042C118.915 85.6695 118.876 85.6243 118.848 85.5721C118.82 85.52 118.805 85.4622 118.803 85.4032C118.801 85.3442 118.812 85.2855 118.837 85.2316L118.874 85.1021C118.887 85.0323 118.918 84.9673 118.966 84.9143C119.013 84.8613 119.074 84.8223 119.142 84.8015C119.096 84.7511 119.065 84.6886 119.054 84.6213C119.042 84.5541 119.05 84.485 119.077 84.4222V84.3667C119.091 84.3098 119.116 84.2564 119.151 84.2095C119.186 84.1626 119.23 84.1234 119.28 84.0942C119.331 84.065 119.387 84.0464 119.445 84.0396C119.503 84.0328 119.562 84.0378 119.618 84.0545C119.674 84.0712 119.726 84.0991 119.771 84.1366C119.816 84.1741 119.853 84.2203 119.879 84.2725C119.906 84.3246 119.921 84.3816 119.925 84.44C119.928 84.4983 119.92 84.5568 119.9 84.6118V84.6627C119.889 84.7304 119.859 84.7934 119.813 84.8443C119.767 84.8951 119.708 84.9317 119.641 84.9495V84.9495C119.687 85.0037 119.717 85.0696 119.728 85.1399C119.738 85.2101 119.729 85.2819 119.701 85.3472L119.664 85.4767C119.655 85.5352 119.631 85.5907 119.597 85.6391C119.563 85.6874 119.518 85.7273 119.466 85.7558C119.414 85.7842 119.356 85.8006 119.296 85.8035C119.237 85.8065 119.178 85.7959 119.123 85.7728V85.7728ZM119.193 85.5369C119.276 85.56 119.35 85.5369 119.396 85.3935L119.442 85.2362C119.484 85.1067 119.442 85.0327 119.35 85.005C119.257 84.9772 119.188 85.005 119.146 85.1484L119.1 85.3056C119.059 85.4536 119.109 85.5091 119.207 85.5369H119.193ZM119.327 84.5425C119.285 84.6766 119.327 84.7413 119.424 84.7645C119.521 84.7876 119.586 84.7645 119.623 84.6303L119.651 84.5378C119.697 84.3898 119.651 84.3297 119.558 84.302C119.466 84.2742 119.401 84.302 119.355 84.45L119.327 84.5425Z" fill="black"/>
<path opacity="0.3" d="M120.003 85.7727L119.91 86.0225L119.665 85.93L119.758 85.6802L120.003 85.7727Z" fill="black"/>
<path opacity="0.3" d="M120.423 86.2538C120.368 86.2351 120.317 86.2042 120.275 86.1634C120.233 86.1225 120.2 86.0728 120.18 86.0178C120.159 85.9628 120.152 85.904 120.157 85.8456C120.162 85.7871 120.18 85.7306 120.21 85.6802L120.266 85.5554C120.287 85.4883 120.327 85.4283 120.38 85.3819C120.433 85.3354 120.497 85.3043 120.567 85.2917V85.2917C120.528 85.2341 120.508 85.1666 120.508 85.0975C120.508 85.0284 120.528 84.9608 120.567 84.9032L120.59 84.8523C120.609 84.796 120.641 84.7444 120.681 84.7008C120.722 84.6572 120.771 84.6225 120.826 84.599C120.881 84.5754 120.94 84.5635 120.999 84.564C121.059 84.5645 121.118 84.5774 121.172 84.6018C121.227 84.6263 121.275 84.6618 121.315 84.7061C121.355 84.7503 121.385 84.8024 121.404 84.859C121.423 84.9156 121.43 84.9755 121.424 85.0349C121.418 85.0942 121.4 85.1518 121.371 85.2038L121.348 85.2547C121.328 85.3202 121.289 85.3784 121.237 85.4227C121.184 85.4669 121.12 85.4953 121.052 85.5045V85.5045C121.089 85.5643 121.109 85.6331 121.109 85.7034C121.109 85.7736 121.089 85.8424 121.052 85.9022L120.997 86.0271C120.98 86.0839 120.95 86.1361 120.91 86.1798C120.87 86.2234 120.82 86.2574 120.765 86.2792C120.71 86.301 120.65 86.3101 120.591 86.3057C120.532 86.3012 120.475 86.2835 120.423 86.2538V86.2538ZM120.525 86.0271C120.604 86.0641 120.682 86.0271 120.747 85.9115L120.812 85.7635C120.867 85.634 120.839 85.5554 120.752 85.5183C120.664 85.4813 120.585 85.5183 120.53 85.634L120.465 85.7866C120.4 85.9254 120.446 85.9901 120.525 86.0271ZM120.784 85.0605C120.728 85.1853 120.784 85.2547 120.853 85.2917C120.923 85.3287 121.011 85.2917 121.071 85.1853L121.108 85.0975C121.172 84.9494 121.108 84.8847 121.048 84.8523C120.987 84.8199 120.89 84.8246 120.826 84.968L120.784 85.0605Z" fill="black"/>
<path opacity="0.3" d="M121.746 85.7726L122.176 86.027L122.051 86.2398L121.621 85.99L121.746 85.7726Z" fill="black"/>
<path opacity="0.3" d="M123.324 86.4203C123.416 86.2954 123.398 86.2306 123.324 86.1751C123.25 86.1196 123.18 86.1289 123.106 86.2306L123.042 86.3231L122.834 86.1659L122.889 86.0919C122.916 86.0407 122.953 85.9961 122.999 85.9617C123.046 85.9273 123.099 85.9038 123.156 85.8931C123.212 85.8824 123.271 85.8847 123.326 85.9C123.382 85.9152 123.433 85.9428 123.476 85.9809C123.526 86.0114 123.567 86.0525 123.598 86.1013C123.629 86.15 123.648 86.2051 123.655 86.2625C123.662 86.3198 123.655 86.3779 123.636 86.4325C123.618 86.487 123.587 86.5366 123.546 86.5775L123.518 86.6145C123.483 86.6781 123.429 86.7289 123.363 86.7597C123.298 86.7904 123.224 86.7995 123.153 86.7857V86.7857C123.186 86.8517 123.198 86.9266 123.186 86.9996C123.175 87.0727 123.14 87.1403 123.088 87.1927L123.009 87.3037C122.982 87.3546 122.943 87.3987 122.897 87.4327C122.85 87.4667 122.796 87.4897 122.739 87.4999C122.682 87.5101 122.624 87.5073 122.568 87.4918C122.512 87.4762 122.461 87.4483 122.417 87.4101C122.368 87.3801 122.327 87.3393 122.296 87.291C122.265 87.2426 122.246 87.1879 122.239 87.1309C122.232 87.0739 122.239 87.0161 122.257 86.9619C122.276 86.9077 122.307 86.8585 122.348 86.818L122.436 86.7024L122.644 86.855L122.547 86.9845C122.473 87.0863 122.491 87.1557 122.547 87.2065C122.602 87.2574 122.686 87.2574 122.778 87.1325L122.861 87.0215C122.954 86.892 122.945 86.8134 122.861 86.7394L122.787 86.6839L122.935 86.4804L123.019 86.5451C123.102 86.6053 123.18 86.6053 123.264 86.4943L123.324 86.4203Z" fill="black"/>
<path opacity="0.3" d="M123.73 86.7394C123.761 86.6882 123.804 86.6449 123.854 86.6128C123.905 86.5807 123.962 86.5608 124.022 86.5545C124.081 86.5482 124.141 86.5558 124.198 86.5767C124.254 86.5975 124.304 86.631 124.345 86.6747C124.391 86.7106 124.427 86.7563 124.452 86.8084C124.477 86.8604 124.49 86.9175 124.49 86.9753C124.49 87.0331 124.477 87.0902 124.452 87.1422C124.427 87.1943 124.391 87.24 124.345 87.2759L124.318 87.3083L124.123 87.1372L124.165 87.0909C124.248 86.9984 124.239 86.9244 124.165 86.8689C124.091 86.8134 124.017 86.8042 123.906 86.929L123.698 87.1649C123.745 87.1416 123.798 87.134 123.85 87.1432C123.901 87.1523 123.948 87.1778 123.985 87.2158C124.133 87.3499 124.119 87.5257 123.948 87.7153L123.735 87.9558C123.698 87.9968 123.654 88.0302 123.605 88.0542C123.555 88.0781 123.502 88.0921 123.447 88.0953C123.392 88.0985 123.337 88.0909 123.286 88.073C123.234 88.055 123.186 88.027 123.145 87.9905C123.104 87.9541 123.071 87.9099 123.047 87.8606C123.023 87.8112 123.009 87.7576 123.006 87.7028C123.002 87.6481 123.01 87.5932 123.028 87.5414C123.046 87.4896 123.074 87.4418 123.11 87.4008L123.73 86.7394ZM123.541 87.3684L123.332 87.6043C123.249 87.6968 123.263 87.7662 123.332 87.8263C123.402 87.8864 123.467 87.8865 123.55 87.7939L123.758 87.5581C123.841 87.4609 123.832 87.3916 123.758 87.3314C123.684 87.2713 123.624 87.2759 123.541 87.3684V87.3684Z" fill="black"/>
<path opacity="0.3" d="M123.962 88.3859L123.772 88.5709L123.587 88.3812L123.777 88.1962L123.962 88.3859Z" fill="black"/>
<path opacity="0.3" d="M124.138 88.9779C124.095 88.9374 124.062 88.8878 124.041 88.8329C124.02 88.7779 124.012 88.719 124.017 88.6604C124.022 88.6019 124.04 88.5451 124.07 88.4944C124.099 88.4437 124.14 88.4003 124.189 88.3674L124.29 88.2795C124.337 88.2266 124.398 88.1882 124.466 88.1685C124.534 88.1489 124.606 88.1489 124.674 88.1685V88.1685C124.663 88.1007 124.672 88.0313 124.699 87.9682C124.726 87.9051 124.77 87.851 124.827 87.8123L124.864 87.7753C124.904 87.732 124.953 87.698 125.008 87.676C125.062 87.6539 125.121 87.6443 125.18 87.6479C125.239 87.6514 125.296 87.668 125.348 87.6965C125.4 87.7249 125.445 87.7645 125.479 87.8123C125.522 87.8529 125.555 87.9024 125.575 87.9573C125.596 88.0123 125.605 88.0712 125.6 88.1298C125.595 88.1884 125.577 88.2451 125.547 88.2958C125.518 88.3465 125.477 88.3899 125.428 88.4229L125.387 88.4599C125.34 88.5099 125.28 88.5458 125.214 88.5638C125.147 88.5818 125.078 88.581 125.012 88.5616C125.022 88.6316 125.012 88.7028 124.983 88.7674C124.954 88.8319 124.908 88.8872 124.85 88.927L124.748 89.0195C124.708 89.0618 124.659 89.0947 124.604 89.1159C124.55 89.137 124.492 89.1459 124.433 89.142C124.375 89.138 124.318 89.1212 124.267 89.0929C124.216 89.0645 124.172 89.0253 124.138 88.9779V88.9779ZM124.327 88.816C124.383 88.8807 124.457 88.9039 124.577 88.816L124.697 88.7096C124.799 88.6217 124.808 88.5385 124.744 88.4645C124.679 88.3905 124.6 88.3859 124.494 88.4645L124.374 88.5709C124.258 88.6911 124.267 88.7697 124.327 88.8345V88.816ZM124.97 88.0482C124.864 88.1407 124.873 88.2193 124.933 88.2887C124.993 88.3581 125.067 88.372 125.174 88.2887L125.248 88.2286C125.363 88.1222 125.354 88.0436 125.294 87.9788C125.234 87.9141 125.16 87.891 125.044 87.9788L124.97 88.0482Z" fill="black"/>
<path opacity="0.3" d="M125.257 89.57L126.367 88.9872L126.594 89.2971L125.183 90.3239L125.03 90.1158L126.039 89.3757L124.919 89.9585L124.767 89.7504L125.646 88.8623L124.651 89.5931L124.508 89.3988L125.919 88.3721L126.145 88.6773L125.257 89.57Z" fill="black"/>
<path opacity="0.3" d="M125.979 90.7401L127.158 90.3146L127.343 90.6476L125.803 91.4755L125.678 91.2489L126.783 90.6569L125.595 91.087L125.47 90.8558L126.464 90.0972L125.373 90.68L125.262 90.4719L126.802 89.644L126.982 89.977L125.979 90.7401Z" fill="black"/>
<path opacity="0.3" d="M127.496 91.5773C127.511 91.6448 127.552 91.7039 127.609 91.7426C127.667 91.7813 127.737 91.7966 127.805 91.7854L127.87 91.9565L126.228 92.567L126.136 92.308L127.385 91.8455L127.311 91.6466L127.496 91.5773Z" fill="black"/>
<path opacity="0.3" d="M126.649 93.0296L126.399 93.1036L126.32 92.8539L126.575 92.7753L126.649 93.0296ZM127.574 92.7568L127.319 92.8354L127.245 92.581L127.5 92.507L127.574 92.7568Z" fill="black"/>
<path opacity="0.3" d="M127.995 93.1036C128.002 93.1727 128.035 93.2365 128.088 93.2821C128.14 93.3276 128.208 93.3514 128.277 93.3487L128.319 93.5291L126.617 93.9176L126.557 93.6494L127.856 93.3534L127.805 93.1499L127.995 93.1036Z" fill="black"/>
<path opacity="0.3" d="M126.954 94.4218L126.695 94.4681L126.653 94.2044L126.912 94.1628L126.954 94.4218Z" fill="black"/>
<path opacity="0.3" d="M126.742 95.0323C126.73 94.9747 126.732 94.9152 126.747 94.8585C126.762 94.8017 126.79 94.7491 126.828 94.7046C126.867 94.6601 126.914 94.6248 126.968 94.6015C127.022 94.5781 127.081 94.5673 127.139 94.5698H127.273C127.342 94.5541 127.414 94.5584 127.48 94.5822C127.547 94.606 127.605 94.6482 127.648 94.7039V94.7039C127.677 94.642 127.724 94.5899 127.782 94.5538C127.841 94.5177 127.908 94.4991 127.976 94.5004H128.032C128.089 94.4927 128.148 94.4966 128.203 94.5119C128.259 94.5272 128.311 94.5536 128.356 94.5895C128.402 94.6254 128.439 94.6701 128.467 94.7209C128.495 94.7717 128.512 94.8275 128.518 94.885C128.523 94.9426 128.517 95.0007 128.5 95.0558C128.482 95.111 128.454 95.1621 128.416 95.206C128.379 95.25 128.333 95.286 128.281 95.3117C128.229 95.3375 128.173 95.3526 128.115 95.3561H128.06C127.992 95.3693 127.922 95.3634 127.857 95.3389C127.793 95.3143 127.736 95.2722 127.694 95.2173V95.2173C127.661 95.2793 127.612 95.331 127.552 95.3669C127.491 95.4028 127.422 95.4214 127.352 95.4208H127.213C127.156 95.4325 127.097 95.4313 127.04 95.4171C126.983 95.403 126.93 95.3763 126.885 95.3391C126.84 95.3019 126.803 95.255 126.778 95.2019C126.754 95.1488 126.741 95.0909 126.742 95.0323V95.0323ZM126.991 95.0092C126.991 95.097 127.047 95.1572 127.199 95.1433H127.361C127.5 95.1433 127.551 95.0647 127.542 94.9675C127.532 94.8704 127.468 94.8195 127.334 94.8334H127.172C127.019 94.8519 126.982 94.9213 126.991 94.9907V95.0092ZM127.963 94.7594C127.819 94.7594 127.782 94.8427 127.791 94.9305C127.801 95.0184 127.852 95.0832 127.99 95.0693H128.087C128.245 95.0693 128.277 94.9814 128.272 94.8982C128.268 94.8149 128.212 94.7455 128.055 94.7594H127.963Z" fill="black"/>
<path opacity="0.3" d="M127.81 95.9573V96.4568H127.532V95.9619L127.81 95.9573Z" fill="black"/>
<path opacity="0.3" d="M128.235 97.5437C128.235 97.4559 128.207 97.3957 128.082 97.3819L127.897 97.3587L127.93 97.0997H128.096C128.153 97.1013 128.21 97.1147 128.261 97.1392C128.313 97.1637 128.359 97.1988 128.397 97.2421C128.434 97.2854 128.462 97.336 128.479 97.3908C128.496 97.4455 128.501 97.5031 128.494 97.56C128.487 97.6168 128.469 97.6716 128.439 97.7209C128.41 97.7702 128.371 97.8128 128.325 97.8461C128.278 97.8794 128.225 97.9026 128.169 97.9142C128.113 97.9259 128.055 97.9257 127.999 97.9138C127.868 97.8924 127.743 97.8445 127.632 97.7729C127.521 97.7013 127.425 97.6075 127.352 97.4975C127.199 97.3125 127.125 97.2616 127.032 97.2477H126.995L126.931 97.7657L126.686 97.738L126.778 96.9471L126.991 96.9748C127.097 96.9913 127.198 97.0298 127.288 97.088C127.378 97.1462 127.455 97.2226 127.513 97.3125C127.569 97.4013 127.644 97.477 127.732 97.5344C127.819 97.5919 127.918 97.6298 128.022 97.6455C128.179 97.6779 128.226 97.627 128.235 97.5437Z" fill="black"/>
<path opacity="0.3" d="M126.862 98.2283L126.603 98.1774L126.649 97.9184L126.908 97.9693L126.862 98.2283Z" fill="black"/>
<path opacity="0.3" d="M126.455 98.7278C126.464 98.6697 126.486 98.6143 126.52 98.5657C126.553 98.5171 126.596 98.4765 126.647 98.4469C126.698 98.4172 126.755 98.3993 126.814 98.3943C126.872 98.3893 126.932 98.3973 126.987 98.4179L127.116 98.4549C127.186 98.4647 127.252 98.4936 127.307 98.5385C127.362 98.5834 127.403 98.6425 127.426 98.7093V98.7093C127.475 98.661 127.537 98.6279 127.604 98.6139C127.671 98.6 127.741 98.6058 127.805 98.6307H127.861C127.971 98.6589 128.065 98.7296 128.122 98.8272C128.18 98.9247 128.197 99.0412 128.168 99.151C128.14 99.2608 128.07 99.3549 127.972 99.4126C127.874 99.4703 127.758 99.4868 127.648 99.4586H127.593C127.525 99.4465 127.462 99.4166 127.41 99.3718C127.358 99.3271 127.319 99.2692 127.297 99.2042C127.246 99.2523 127.182 99.2852 127.114 99.2991C127.045 99.313 126.974 99.3074 126.908 99.2829L126.774 99.2459C126.716 99.2389 126.66 99.2189 126.611 99.1874C126.562 99.1559 126.52 99.1137 126.489 99.0639C126.459 99.0141 126.44 98.958 126.434 98.8998C126.428 98.8416 126.435 98.7828 126.455 98.7278ZM126.695 98.788C126.672 98.8758 126.695 98.9452 126.848 98.9868L127.005 99.0285C127.139 99.0609 127.209 99.0285 127.236 98.9267C127.264 98.825 127.213 98.7602 127.084 98.7278L126.927 98.6862C126.774 98.6492 126.718 98.6908 126.695 98.788ZM127.694 98.8851C127.556 98.8481 127.5 98.8851 127.477 98.9868C127.454 99.0886 127.477 99.1487 127.616 99.1811L127.708 99.2088C127.861 99.2459 127.921 99.2088 127.944 99.1071C127.967 99.0053 127.944 98.9452 127.787 98.9082L127.694 98.8851Z" fill="black"/>
<path opacity="0.3" d="M118.499 107.576L118.129 107.65L118.078 107.405L118.448 107.331L118.346 106.831L117.884 106.924L117.833 106.678L118.564 106.53L118.915 108.242L118.185 108.39L118.134 108.145L118.596 108.052L118.499 107.576Z" fill="black"/>
<path opacity="0.3" d="M117.606 107.983L117.463 106.729L117.708 106.702L117.907 108.436L117.565 108.473L117.171 107.465L117.287 108.505L117.047 108.533L116.848 106.799L117.125 106.766L117.606 107.983Z" fill="black"/>
<path opacity="0.3" d="M116.367 108.579C116.099 108.579 115.96 108.431 115.951 108.154V108.098H116.21V108.172C116.21 108.297 116.265 108.344 116.353 108.344C116.441 108.344 116.487 108.293 116.487 108.168C116.487 108.043 116.427 107.946 116.242 107.793C116.15 107.736 116.073 107.657 116.018 107.564C115.963 107.47 115.932 107.365 115.927 107.257C115.914 107.199 115.915 107.139 115.929 107.081C115.943 107.023 115.971 106.97 116.01 106.925C116.048 106.88 116.097 106.845 116.152 106.822C116.207 106.799 116.266 106.79 116.325 106.794C116.593 106.794 116.737 106.942 116.746 107.22V107.326H116.487V107.201C116.487 107.076 116.427 107.03 116.339 107.035C116.251 107.039 116.196 107.081 116.2 107.206C116.205 107.331 116.26 107.428 116.445 107.58C116.537 107.638 116.613 107.717 116.668 107.811C116.722 107.904 116.754 108.009 116.76 108.117C116.765 108.404 116.63 108.575 116.367 108.579Z" fill="black"/>
<path opacity="0.3" d="M114.669 106.706C114.728 106.708 114.786 106.724 114.839 106.751C114.891 106.779 114.936 106.818 114.971 106.866C115.006 106.913 115.03 106.968 115.041 107.026C115.052 107.084 115.05 107.144 115.035 107.201V107.335C115.034 107.406 115.013 107.476 114.974 107.535C114.936 107.595 114.882 107.643 114.817 107.673V107.673C114.871 107.715 114.911 107.772 114.933 107.837C114.954 107.902 114.956 107.972 114.938 108.038V108.094C114.934 108.153 114.918 108.21 114.892 108.263C114.865 108.315 114.828 108.362 114.782 108.399C114.737 108.437 114.684 108.465 114.627 108.481C114.571 108.497 114.511 108.502 114.453 108.494C114.394 108.487 114.338 108.467 114.287 108.437C114.237 108.406 114.193 108.366 114.158 108.318C114.124 108.27 114.1 108.216 114.088 108.158C114.075 108.1 114.075 108.041 114.087 107.983V107.927C114.086 107.858 114.107 107.791 114.144 107.733C114.182 107.676 114.236 107.631 114.299 107.604V107.604C114.245 107.558 114.205 107.499 114.184 107.431C114.163 107.364 114.161 107.292 114.179 107.224V107.086C114.179 107.026 114.193 106.967 114.22 106.913C114.246 106.86 114.284 106.813 114.332 106.776C114.379 106.74 114.434 106.714 114.492 106.702C114.551 106.69 114.611 106.691 114.669 106.706V106.706ZM114.669 107.955C114.669 107.816 114.628 107.765 114.54 107.756C114.452 107.747 114.383 107.756 114.364 107.918V108.011C114.364 108.168 114.406 108.219 114.494 108.233C114.581 108.246 114.651 108.209 114.669 108.052V107.955ZM114.646 106.956C114.558 106.956 114.489 106.979 114.466 107.132V107.289C114.466 107.428 114.494 107.493 114.591 107.506C114.688 107.52 114.753 107.469 114.771 107.331V107.169C114.785 107.016 114.725 106.965 114.637 106.956H114.646Z" fill="black"/>
<path opacity="0.3" d="M113.8 106.85L113.851 106.591L114.11 106.642L114.059 106.901L113.8 106.85Z" fill="black"/>
<path opacity="0.3" d="M113.309 106.443C113.368 106.452 113.423 106.474 113.471 106.507C113.52 106.54 113.56 106.584 113.59 106.635C113.619 106.686 113.636 106.743 113.641 106.802C113.645 106.861 113.636 106.92 113.615 106.975L113.578 107.109C113.569 107.178 113.54 107.244 113.495 107.298C113.45 107.352 113.39 107.392 113.323 107.414V107.414C113.37 107.465 113.401 107.528 113.414 107.595C113.427 107.663 113.421 107.733 113.397 107.798V107.849C113.368 107.959 113.297 108.054 113.198 108.111C113.1 108.169 112.983 108.185 112.872 108.156C112.762 108.127 112.667 108.056 112.61 107.957C112.552 107.859 112.536 107.742 112.565 107.631V107.58C112.575 107.512 112.605 107.448 112.65 107.396C112.695 107.344 112.753 107.305 112.819 107.284V107.284C112.773 107.232 112.742 107.167 112.729 107.098C112.717 107.028 112.724 106.957 112.75 106.891L112.782 106.757C112.791 106.699 112.813 106.644 112.845 106.595C112.878 106.546 112.921 106.506 112.972 106.476C113.022 106.445 113.078 106.427 113.137 106.421C113.195 106.416 113.254 106.423 113.309 106.443V106.443ZM113.143 107.682C113.18 107.548 113.143 107.483 113.041 107.465C112.939 107.446 112.879 107.465 112.847 107.604L112.819 107.696C112.782 107.849 112.819 107.904 112.921 107.927C113.023 107.95 113.078 107.927 113.12 107.775L113.143 107.682ZM113.245 106.683C113.161 106.683 113.087 106.683 113.046 106.836L113.004 106.993C112.972 107.123 113.004 107.197 113.106 107.22C113.208 107.243 113.268 107.22 113.305 107.072L113.346 106.914C113.383 106.766 113.333 106.706 113.245 106.683V106.683Z" fill="black"/>
<path opacity="0.3" d="M112.061 107.118L111.599 106.942L111.687 106.706L112.149 106.887L112.061 107.118Z" fill="black"/>
<path opacity="0.3" d="M110.419 106.729C110.345 106.868 110.377 106.933 110.451 106.975C110.525 107.016 110.599 106.975 110.659 106.887L110.71 106.785L110.942 106.905L110.895 106.988C110.878 107.044 110.847 107.094 110.807 107.135C110.767 107.177 110.718 107.209 110.663 107.229C110.609 107.248 110.55 107.255 110.493 107.249C110.435 107.242 110.38 107.223 110.331 107.192C110.278 107.169 110.231 107.135 110.192 107.092C110.154 107.049 110.126 106.997 110.111 106.942C110.095 106.886 110.093 106.828 110.103 106.771C110.113 106.714 110.135 106.661 110.169 106.614L110.192 106.572C110.276 106.406 110.382 106.332 110.525 106.346C110.483 106.285 110.461 106.213 110.461 106.14C110.461 106.066 110.483 105.994 110.525 105.934L110.59 105.809C110.612 105.756 110.644 105.707 110.685 105.667C110.726 105.627 110.776 105.596 110.829 105.576C110.883 105.556 110.941 105.548 110.998 105.552C111.056 105.555 111.112 105.571 111.163 105.598C111.214 105.624 111.258 105.661 111.294 105.706C111.33 105.751 111.356 105.803 111.37 105.859C111.385 105.915 111.388 105.973 111.378 106.029C111.369 106.086 111.348 106.14 111.316 106.188L111.252 106.313L111.02 106.198L111.094 106.054C111.15 105.943 111.127 105.874 111.048 105.832C110.969 105.791 110.9 105.804 110.831 105.943L110.766 106.063C110.692 106.211 110.715 106.29 110.826 106.346L110.909 106.387L110.794 106.609L110.696 106.558C110.609 106.512 110.53 106.526 110.465 106.651L110.419 106.729Z" fill="black"/>
<path opacity="0.3" d="M109.956 106.489C109.931 106.542 109.896 106.588 109.851 106.626C109.807 106.664 109.755 106.692 109.7 106.709C109.644 106.726 109.585 106.731 109.527 106.723C109.47 106.716 109.414 106.696 109.364 106.666C109.314 106.636 109.271 106.595 109.238 106.548C109.205 106.5 109.182 106.445 109.171 106.388C109.161 106.331 109.162 106.272 109.175 106.215C109.188 106.158 109.213 106.105 109.249 106.059L109.276 106.022L109.494 106.16L109.461 106.211C109.392 106.318 109.415 106.387 109.489 106.433C109.563 106.48 109.642 106.475 109.73 106.332L109.901 106.068C109.858 106.098 109.807 106.115 109.755 106.115C109.703 106.115 109.652 106.098 109.609 106.068C109.438 105.962 109.429 105.786 109.563 105.568L109.734 105.3C109.765 105.254 109.804 105.214 109.85 105.183C109.895 105.152 109.947 105.131 110.001 105.119C110.055 105.108 110.111 105.108 110.165 105.118C110.219 105.129 110.271 105.15 110.317 105.18C110.363 105.21 110.403 105.249 110.434 105.295C110.465 105.341 110.487 105.392 110.498 105.446C110.509 105.501 110.51 105.556 110.499 105.611C110.489 105.665 110.468 105.717 110.437 105.763L109.956 106.489ZM110.044 105.837L110.211 105.573C110.28 105.467 110.257 105.397 110.183 105.351C110.109 105.305 110.04 105.314 109.97 105.42L109.804 105.684C109.739 105.79 109.757 105.86 109.831 105.906C109.905 105.952 109.979 105.943 110.044 105.837Z" fill="black"/>
<path opacity="0.3" d="M109.462 104.898L109.619 104.685L109.832 104.842L109.679 105.055L109.462 104.898Z" fill="black"/>
<path opacity="0.3" d="M109.189 104.32C109.238 104.353 109.279 104.397 109.308 104.448C109.338 104.499 109.356 104.556 109.361 104.615C109.366 104.674 109.357 104.733 109.337 104.789C109.316 104.844 109.283 104.894 109.24 104.935L109.152 105.037C109.114 105.096 109.06 105.143 108.996 105.173C108.932 105.204 108.861 105.216 108.791 105.208V105.208C108.814 105.272 108.817 105.342 108.8 105.409C108.784 105.475 108.749 105.535 108.699 105.582L108.662 105.624C108.628 105.673 108.584 105.714 108.533 105.745C108.482 105.776 108.425 105.796 108.366 105.804C108.307 105.812 108.246 105.808 108.189 105.791C108.132 105.774 108.079 105.746 108.033 105.708C107.987 105.669 107.95 105.622 107.923 105.568C107.897 105.515 107.882 105.456 107.879 105.397C107.877 105.337 107.887 105.278 107.908 105.222C107.93 105.166 107.963 105.116 108.005 105.074L108.037 105.032C108.077 104.976 108.131 104.931 108.194 104.903C108.256 104.876 108.326 104.866 108.394 104.875V104.875C108.372 104.808 108.369 104.737 108.387 104.669C108.404 104.601 108.44 104.539 108.491 104.491L108.579 104.384C108.61 104.335 108.653 104.293 108.703 104.262C108.753 104.231 108.81 104.212 108.868 104.205C108.927 104.199 108.986 104.206 109.042 104.226C109.097 104.246 109.148 104.278 109.189 104.32ZM108.519 105.37C108.606 105.263 108.583 105.189 108.519 105.129C108.454 105.069 108.371 105.069 108.283 105.175L108.222 105.249C108.121 105.37 108.144 105.444 108.222 105.499C108.301 105.555 108.366 105.568 108.468 105.448L108.519 105.37ZM109.032 104.514C108.963 104.458 108.889 104.449 108.787 104.565L108.685 104.69C108.597 104.796 108.602 104.879 108.685 104.939C108.768 105 108.842 104.995 108.93 104.889L109.032 104.764C109.124 104.643 109.097 104.569 109.032 104.514V104.514Z" fill="black"/>
<path opacity="0.3" d="M107.991 103.926L106.973 104.657L106.705 104.384L107.958 103.168L108.139 103.353L107.237 104.241L108.264 103.501L108.444 103.686L107.699 104.69L108.588 103.825L108.754 104L107.501 105.217L107.237 104.944L107.991 103.926Z" fill="black"/>
<path opacity="0.3" d="M107.103 102.9L106.007 103.506L105.775 103.205L107.163 102.146L107.316 102.349L106.326 103.108L107.431 102.497L107.588 102.701L106.733 103.626L107.713 102.877L107.861 103.071L106.474 104.13L106.243 103.825L107.103 102.9Z" fill="black"/>
<path opacity="0.3" d="M105.475 102.308C105.448 102.243 105.398 102.192 105.334 102.163C105.271 102.135 105.199 102.132 105.133 102.155L105.045 101.993L106.562 101.133L106.696 101.369L105.54 102.026L105.642 102.211L105.475 102.308Z" fill="black"/>
<path opacity="0.3" d="M105.216 101.156L105.456 101.04L105.572 101.276L105.331 101.392L105.216 101.156ZM106.071 100.74L106.312 100.624L106.428 100.865L106.187 100.98L106.071 100.74Z" fill="black"/>
<path opacity="0.3" d="M104.753 100.883C104.736 100.817 104.693 100.759 104.635 100.723C104.576 100.687 104.506 100.675 104.439 100.689L104.369 100.518L105.983 99.861L106.085 100.115L104.869 100.615L104.947 100.809L104.753 100.883Z" fill="black"/>
<path opacity="0.3" d="M105.549 99.4031L105.799 99.3198L105.882 99.5696L105.632 99.6528L105.549 99.4031Z" fill="black"/>
<path opacity="0.3" d="M105.665 98.7787C105.685 98.834 105.692 98.8931 105.686 98.9515C105.68 99.0099 105.661 99.0663 105.63 99.1164C105.6 99.1666 105.558 99.2092 105.509 99.2412C105.46 99.2732 105.404 99.2938 105.346 99.3014L105.216 99.3384C105.15 99.3634 105.079 99.3697 105.009 99.3566C104.94 99.3436 104.876 99.3117 104.823 99.2644V99.2644C104.802 99.3301 104.764 99.3888 104.711 99.4338C104.659 99.4787 104.595 99.5082 104.527 99.5188H104.472C104.416 99.5359 104.357 99.5415 104.299 99.5353C104.242 99.5291 104.186 99.5113 104.135 99.4828C104.084 99.4543 104.04 99.4158 104.004 99.3696C103.969 99.3234 103.943 99.2705 103.928 99.2141C103.914 99.1577 103.911 99.0989 103.92 99.0414C103.929 98.9839 103.95 98.9288 103.981 98.8794C104.011 98.83 104.052 98.7875 104.1 98.7543C104.148 98.7211 104.202 98.6979 104.259 98.6862H104.31C104.375 98.6615 104.445 98.6558 104.513 98.6697C104.581 98.6836 104.644 98.7166 104.694 98.7649C104.716 98.6981 104.756 98.6388 104.81 98.5939C104.864 98.5489 104.929 98.52 104.999 98.5105L105.133 98.4781C105.187 98.4566 105.246 98.4476 105.304 98.4516C105.363 98.4557 105.42 98.4728 105.471 98.5016C105.522 98.5304 105.566 98.5702 105.599 98.6182C105.633 98.6661 105.655 98.721 105.665 98.7787V98.7787ZM104.504 99.2413C104.638 99.2089 104.666 99.1349 104.643 99.047C104.62 98.9591 104.559 98.9082 104.425 98.9452H104.333C104.18 98.9822 104.157 99.0609 104.176 99.1441C104.194 99.2274 104.259 99.2829 104.411 99.2459L104.504 99.2413ZM105.429 98.8435C105.429 98.7602 105.35 98.7093 105.198 98.7417L105.04 98.7834C104.906 98.8204 104.865 98.8897 104.888 98.9822C104.911 99.0747 104.985 99.121 105.119 99.084L105.276 99.0424C105.42 99.0007 105.448 98.9221 105.424 98.8389L105.429 98.8435Z" fill="black"/>
<path opacity="0.3" d="M104.462 98.0341L104.388 97.5438L104.637 97.5068L104.707 98.0017L104.462 98.0341Z" fill="black"/>
<path opacity="0.3" d="M103.787 96.5308C103.787 96.6187 103.842 96.6696 103.967 96.665H104.152V96.924H103.981C103.923 96.937 103.864 96.9365 103.806 96.9225C103.749 96.9084 103.696 96.8813 103.651 96.8431C103.606 96.805 103.571 96.7569 103.548 96.7027C103.525 96.6485 103.515 96.5896 103.518 96.5308C103.518 96.2626 103.662 96.1192 103.944 96.1053C104.076 96.1062 104.207 96.1346 104.328 96.1888C104.449 96.2429 104.558 96.3216 104.647 96.4198C104.827 96.5725 104.91 96.6187 105.003 96.6141H105.04V96.0961H105.29L105.317 96.887H105.105C104.998 96.8878 104.892 96.8655 104.795 96.8216C104.697 96.7777 104.611 96.7132 104.54 96.6326C104.47 96.554 104.384 96.4915 104.287 96.4492C104.191 96.4069 104.086 96.3858 103.981 96.3875C103.824 96.3782 103.782 96.443 103.787 96.5308Z" fill="black"/>
<path opacity="0.3" d="M105.04 95.6475H105.303V95.9157H105.035L105.04 95.6475Z" fill="black"/>
<path opacity="0.3" d="M105.364 95.0924C105.364 95.1501 105.352 95.2071 105.328 95.2593C105.303 95.3116 105.268 95.3579 105.224 95.395C105.18 95.4321 105.128 95.459 105.072 95.4739C105.016 95.4887 104.958 95.4911 104.901 95.481H104.763C104.692 95.4838 104.622 95.466 104.561 95.4299C104.501 95.3938 104.452 95.3408 104.42 95.2774V95.2774C104.379 95.3332 104.323 95.376 104.258 95.4006C104.193 95.4252 104.123 95.4306 104.055 95.4162H104C103.941 95.4137 103.884 95.3994 103.832 95.3742C103.779 95.349 103.732 95.3133 103.694 95.2695C103.656 95.2256 103.627 95.1744 103.609 95.119C103.591 95.0636 103.584 95.0051 103.59 94.9471C103.595 94.8891 103.612 94.8328 103.64 94.7816C103.668 94.7303 103.705 94.6853 103.751 94.6492C103.797 94.613 103.849 94.5865 103.906 94.5713C103.962 94.556 104.021 94.5524 104.078 94.5606H104.134C104.203 94.5595 104.271 94.5781 104.33 94.6141C104.389 94.6501 104.436 94.7021 104.467 94.7641V94.7641C104.51 94.7084 104.568 94.6659 104.634 94.6414C104.7 94.6168 104.772 94.6113 104.841 94.6253H104.98C105.038 94.6264 105.094 94.64 105.146 94.665C105.198 94.6901 105.243 94.7261 105.28 94.7704C105.316 94.8148 105.343 94.8666 105.357 94.9222C105.372 94.9778 105.374 95.0359 105.364 95.0924ZM104.115 95.1341C104.254 95.1341 104.305 95.0878 104.314 94.9953C104.323 94.9028 104.282 94.8381 104.143 94.8242H104.046C103.889 94.8242 103.842 94.8751 103.833 94.9629C103.824 95.0508 103.861 95.1202 104.018 95.1341H104.115ZM105.114 95.0693C105.114 94.9861 105.086 94.9167 104.934 94.8982H104.772C104.633 94.8982 104.568 94.9352 104.559 95.0323C104.55 95.1294 104.605 95.1942 104.744 95.2035H104.906C105.059 95.222 105.105 95.1572 105.114 95.0693V95.0693Z" fill="black"/>
</g>
<path d="M124.655 92.5994V99.5371C124.655 100.412 124.308 101.251 123.69 101.871C123.071 102.49 122.232 102.838 121.357 102.84H110.747C109.873 102.837 109.035 102.488 108.418 101.869C107.801 101.25 107.454 100.411 107.454 99.5371V92.5994C107.454 91.7259 107.8 90.8881 108.416 90.2691C109.033 89.6502 109.869 89.3007 110.743 89.297H121.381C122.252 89.3043 123.084 89.6555 123.698 90.274C124.311 90.8925 124.655 91.7283 124.655 92.5994V92.5994Z" fill="#757575" stroke="#263238" stroke-linecap="round" stroke-linejoin="round"/>
<path opacity="0.3" d="M124.655 92.5994V99.5371C124.655 100.412 124.308 101.251 123.69 101.871C123.071 102.49 122.232 102.838 121.357 102.84H110.747C109.873 102.837 109.035 102.488 108.418 101.869C107.801 101.25 107.454 100.411 107.454 99.5371V92.5994C107.454 91.7259 107.8 90.8881 108.416 90.2691C109.033 89.6502 109.869 89.3007 110.743 89.297H121.381C122.252 89.3043 123.084 89.6555 123.698 90.274C124.311 90.8925 124.655 91.7283 124.655 92.5994V92.5994Z" fill="black" fill-opacity="0.7"/>
<path opacity="0.3" d="M119.698 89.297H117.649C119.184 89.6444 120.555 90.5034 121.537 91.733C122.52 92.9627 123.055 94.4898 123.055 96.0636C123.055 97.6375 122.52 99.1646 121.537 100.394C120.555 101.624 119.184 102.483 117.649 102.83H119.67C120.893 102.173 121.914 101.197 122.626 100.005C123.339 98.8139 123.715 97.4517 123.715 96.0636C123.715 94.6756 123.339 93.3134 122.626 92.1219C121.914 90.9305 120.893 89.9543 119.67 89.297H119.698ZM114.457 89.297H112.413C111.19 89.9543 110.169 90.9305 109.456 92.1219C108.744 93.3134 108.368 94.6756 108.368 96.0636C108.368 97.4517 108.744 98.8139 109.456 100.005C110.169 101.197 111.19 102.173 112.413 102.83H114.448C112.913 102.483 111.542 101.624 110.559 100.394C109.577 99.1646 109.042 97.6375 109.042 96.0636C109.042 94.4898 109.577 92.9627 110.559 91.733C111.542 90.5034 112.913 89.6444 114.448 89.297H114.457Z" fill="black" fill-opacity="0.7"/>
<path opacity="0.3" d="M116.053 89.9677C114.847 89.9677 113.669 90.3252 112.666 90.995C111.664 91.6648 110.882 92.6169 110.421 93.7308C109.96 94.8447 109.839 96.0704 110.074 97.2529C110.309 98.4354 110.89 99.5216 111.743 100.374C112.595 101.227 113.681 101.807 114.864 102.043C116.046 102.278 117.272 102.157 118.386 101.696C119.5 101.234 120.452 100.453 121.122 99.4504C121.791 98.4479 122.149 97.2693 122.149 96.0636C122.149 94.4469 121.507 92.8963 120.364 91.7531C119.22 90.6099 117.67 89.9677 116.053 89.9677ZM116.053 100.999C115.076 100.999 114.121 100.709 113.308 100.166C112.496 99.6229 111.863 98.8512 111.489 97.9483C111.115 97.0454 111.018 96.052 111.209 95.0936C111.4 94.1353 111.87 93.2551 112.562 92.5645C113.253 91.8738 114.134 91.4038 115.092 91.2137C116.051 91.0236 117.044 91.1221 117.947 91.4967C118.849 91.8712 119.62 92.5051 120.162 93.318C120.705 94.131 120.994 95.0865 120.993 96.0636C120.993 96.7125 120.866 97.3551 120.618 97.9547C120.37 98.5543 120.006 99.0991 119.547 99.5579C119.088 100.017 118.544 100.381 117.944 100.629C117.344 100.877 116.702 101.004 116.053 101.003V100.999Z" fill="black" fill-opacity="0.7"/>
<path d="M116.053 99.4863C117.943 99.4863 119.475 97.9539 119.475 96.0636C119.475 94.1734 117.943 92.641 116.053 92.641C114.162 92.641 112.63 94.1734 112.63 96.0636C112.63 97.9539 114.162 99.4863 116.053 99.4863Z" fill="#263238"/>
<path d="M116.053 101.239C118.911 101.239 121.228 98.922 121.228 96.0637C121.228 93.2053 118.911 90.8881 116.053 90.8881C113.194 90.8881 110.877 93.2053 110.877 96.0637C110.877 98.922 113.194 101.239 116.053 101.239Z" stroke="#263238" stroke-linecap="round" stroke-linejoin="round"/>
<path d="M123.004 96.0591C123.013 97.6308 122.488 99.159 121.515 100.393C120.542 101.628 119.179 102.495 117.649 102.853H114.457C112.922 102.506 111.551 101.647 110.568 100.417C109.586 99.1878 109.051 97.6607 109.051 96.0868C109.051 94.5129 109.586 92.9858 110.568 91.7562C111.551 90.5266 112.922 89.6676 114.457 89.3202H117.649C119.17 89.6764 120.526 90.5355 121.498 91.7585C122.47 92.9815 123.001 94.4968 123.004 96.0591V96.0591Z" stroke="#263238" stroke-linecap="round" stroke-linejoin="round"/>
<path d="M124.656 96.0591C124.661 97.3681 124.366 98.661 123.795 99.8386C123.223 101.016 122.389 102.048 121.358 102.853H110.752C109.726 102.049 108.897 101.022 108.326 99.8496C107.755 98.6773 107.459 97.3906 107.459 96.0868C107.459 94.783 107.755 93.4963 108.326 92.3241C108.897 91.1518 109.726 90.1246 110.752 89.3202H121.39C122.408 90.124 123.23 91.1479 123.796 92.315C124.362 93.4821 124.655 94.7622 124.656 96.0591V96.0591Z" stroke="#263238" stroke-linecap="round" stroke-linejoin="round"/>
<path d="M139.854 77.9977H133.452C133.115 77.9977 132.842 78.2711 132.842 78.6083V80.2363C132.842 80.5735 133.115 80.8469 133.452 80.8469H139.854C140.191 80.8469 140.464 80.5735 140.464 80.2363V78.6083C140.464 78.2711 140.191 77.9977 139.854 77.9977Z" fill="#BFBFBF" stroke="#263238" stroke-linecap="round" stroke-linejoin="round"/>
<path d="M136.903 78.562H133.646C133.452 78.562 133.295 78.7193 133.295 78.9135V79.2881C133.295 79.4823 133.452 79.6396 133.646 79.6396H136.903C137.097 79.6396 137.254 79.4823 137.254 79.2881V78.9135C137.254 78.7193 137.097 78.562 136.903 78.562Z" fill="white"/>
<path d="M138.457 78.562H137.976C137.781 78.562 137.624 78.7193 137.624 78.9135V79.2881C137.624 79.4823 137.781 79.6396 137.976 79.6396H138.457C138.651 79.6396 138.808 79.4823 138.808 79.2881V78.9135C138.808 78.7193 138.651 78.562 138.457 78.562Z" fill="white"/>
<path d="M101.336 79.0708H98.3385C97.986 79.0708 97.7002 79.3566 97.7002 79.7091V81.1475C97.7002 81.5 97.986 81.7858 98.3385 81.7858H101.336C101.688 81.7858 101.974 81.5 101.974 81.1475V79.7091C101.974 79.3566 101.688 79.0708 101.336 79.0708Z" fill="#263238"/>
<path opacity="0.2" d="M101.261 79.6812H99.1014C98.8766 79.6812 98.6943 79.8635 98.6943 80.0883V81.1151C98.6943 81.3398 98.8766 81.5221 99.1014 81.5221H101.261C101.486 81.5221 101.668 81.3398 101.668 81.1151V80.0883C101.668 79.8635 101.486 79.6812 101.261 79.6812Z" fill="white"/>
<path d="M214.893 130.179C213.043 128.167 209.038 126.534 207.664 123.329C207.095 121.981 206.16 120.819 204.963 119.976C204.201 119.442 203.585 118.724 203.173 117.89C201.929 115.337 199.621 113.052 196.596 108.783C193.03 103.755 191.471 99.4539 190.19 97.8999C188.909 96.3458 185.528 93.6031 185.528 93.6031C184.14 90.2221 182.448 89.0241 182.448 89.0241C182.448 89.0241 180.311 85.0002 178.572 83.5341C176.833 82.0679 174.548 81.98 172.17 82.0725C169.793 82.165 164.636 80.9717 164.636 80.9717C164.636 80.9717 156.889 79.2326 154.239 79.2326H148.656C148.656 79.2326 147.102 79.6027 146.371 80.6988C145.64 81.795 140.789 89.6624 139.6 93.0481C138.411 96.4337 138.134 98.3531 138.592 100.185C139.05 102.016 140.15 106.04 140.15 106.04C140.15 106.04 142.708 113.635 142.801 114.638C142.893 115.642 148.563 116.562 148.749 111.803C148.749 111.803 149.479 114.731 150.599 116.562C151.718 118.394 154.895 117.566 155.446 116.743C155.446 116.743 157.643 122.325 157.823 123.681C158.003 125.036 160.113 125.142 161.301 123.954C162.49 122.765 163.498 118.556 162.763 116.451C162.763 116.451 167.527 111.146 168.443 107.941C168.443 107.941 173.886 106.822 174.548 107.335C174.717 108.337 175.243 109.244 176.028 109.888C176.028 109.888 179.326 117.751 179.233 128.62C179.233 128.62 181.971 140.239 194.69 140.604C207.41 140.97 210.879 148.837 210.879 148.837L220.453 134.536C220.453 134.536 216.725 132.191 214.893 130.179ZM162.286 99.2689C160.734 101.186 159.356 103.239 158.17 105.402C157.629 106.443 156.926 107.747 156.292 108.991C156.292 108.991 155.885 106.216 155.427 105.629C155.427 105.629 158.813 96.4337 159.086 95.8833H164.025C165.58 95.8833 167.962 95.5179 168.785 96.3458C167.504 96.7066 163.295 97.9877 162.286 99.2689Z" fill="white"/>
<path opacity="0.4" d="M180.259 117.931C179.663 119.088 179.131 120.05 178.705 120.915C178.244 117.15 177.332 113.454 175.99 109.907C175.205 109.262 174.68 108.355 174.51 107.354C173.849 106.84 168.405 107.96 168.405 107.96C167.48 111.165 162.725 116.47 162.725 116.47C163.461 118.574 162.452 122.783 161.264 123.972C160.075 125.161 157.97 125.068 157.785 123.699C157.6 122.33 155.408 116.761 155.408 116.761C154.858 117.585 151.657 118.408 150.561 116.581C149.465 114.754 148.711 111.822 148.711 111.822C148.526 116.581 142.855 115.665 142.763 114.657C142.67 113.649 140.113 106.059 140.113 106.059C140.113 106.059 139.012 102.035 138.554 100.203C138.522 100.083 138.498 99.9627 138.471 99.8378C139.683 100.347 141.246 100.818 142.495 100.499C144.807 99.8979 148.97 86.73 150.057 84.6533C151.144 82.5766 154.502 81.4943 155.39 81.6701C156.278 81.8458 164.575 83.3952 164.575 83.3952C164.575 83.3952 156.675 82.5997 155.746 83.1362C154.61 83.7778 153.527 84.5094 152.508 85.324C152.115 85.7495 145.714 101.697 145.714 101.697C145.714 101.697 145.099 104.851 148.119 105.73C149.838 106.276 151.69 106.24 153.387 105.628C153.387 105.628 157.425 95.9989 157.166 95.1802C156.907 94.3616 159.205 92.1415 159.205 92.1415C159.205 92.1415 164.002 93.8574 166.194 93.8805C168.386 93.9037 172.642 92.7982 173.016 95.1802C173.016 95.1802 167.429 96.6834 164.76 97.7379C166.073 97.1962 167.417 96.7329 168.784 96.3504C167.961 95.5271 165.579 95.8879 164.025 95.8879H159.085C158.812 96.4383 155.427 105.633 155.427 105.633C155.889 106.23 156.292 108.996 156.292 108.996C156.925 107.751 157.628 106.447 158.169 105.406C159.356 103.243 160.733 101.191 162.286 99.2735C162.639 98.89 163.061 98.5762 163.53 98.3485C162.286 99.2735 155.667 110.157 155.279 111.109C154.89 112.062 156.731 115.628 159.205 115.508C161.68 115.388 167.868 106.091 167.868 106.091C167.868 106.091 174.441 106.026 176.235 104.907C178.03 103.788 178.761 104.907 178.761 104.907C178.761 104.907 177.401 106.295 178.03 106.905C178.659 107.516 181.351 106.299 181.762 106.114C181.3 106.378 177.549 108.39 177.66 109C177.771 109.611 180.995 111.826 182.664 111.627C182.664 111.627 179.737 113.195 178.881 113.066C178.025 112.936 181.92 114.763 180.259 117.931Z" fill="#FBD689"/>
<path opacity="0.4" d="M182.447 89.0241C181.727 87.9573 180.773 87.0693 179.657 86.428C178.541 85.7867 177.293 85.409 176.009 85.3239C173.054 85.1713 175.265 83.0113 178.414 83.4276L178.562 83.5479C180.311 85.0002 182.447 89.0241 182.447 89.0241Z" fill="#FBD689"/>
<path opacity="0.4" d="M185.527 93.6031C184.127 93.1579 182.667 92.9286 181.198 92.9232C180.643 92.9232 182.456 91.5079 184.093 90.8789C184.665 91.7342 185.146 92.6473 185.527 93.6031V93.6031Z" fill="#FBD689"/>
<path opacity="0.4" d="M218.186 133.01C214.703 131.798 208.857 130.184 207.895 127.08C206.799 123.547 204.847 123.912 203.732 122.511C202.705 121.197 202.747 117.141 200.957 114.546C201.798 115.583 202.531 116.704 203.145 117.89C203.557 118.724 204.173 119.442 204.935 119.976C206.131 120.819 207.067 121.981 207.636 123.329C209.023 126.534 213.033 128.167 214.865 130.179C215.882 131.223 216.994 132.171 218.186 133.01V133.01Z" fill="#FBD689"/>
<path d="M167.869 83.2611C166.222 83.6265 158.262 83.0761 157.346 82.8957C156.431 82.7153 153.78 83.719 152.957 84.6302C152.134 85.5413 145.455 101.651 145.455 102.853C145.455 104.056 146.551 106.419 147.028 107.368C147.504 108.316 148.748 111.817 148.748 111.817" stroke="#263238" stroke-linecap="round" stroke-linejoin="round"/>
<path d="M220.439 134.554C220.439 134.554 216.739 132.191 214.889 130.179C213.039 128.167 209.033 126.534 207.659 123.329C207.091 121.981 206.155 120.819 204.958 119.976C204.196 119.442 203.581 118.724 203.168 117.89C201.924 115.337 199.616 113.052 196.591 108.783C193.025 103.755 191.467 99.4539 190.186 97.8999C188.904 96.3458 185.528 93.6031 185.528 93.6031C184.14 90.2221 182.448 89.0241 182.448 89.0241C182.448 89.0241 180.311 85.0002 178.572 83.5341C176.833 82.0679 174.548 81.98 172.17 82.0725C169.793 82.165 164.636 80.9717 164.636 80.9717C164.636 80.9717 156.889 79.2326 154.239 79.2326H148.656C148.656 79.2326 147.102 79.6027 146.371 80.6988C145.64 81.795 140.789 89.6624 139.6 93.0481C138.411 96.4337 138.134 98.3531 138.592 100.185C139.05 102.016 140.15 106.04 140.15 106.04C140.15 106.04 142.708 113.635 142.801 114.638C142.893 115.642 148.563 116.562 148.749 111.803C148.749 111.803 149.479 114.731 150.599 116.562C151.718 118.394 154.895 117.566 155.446 116.743C155.446 116.743 157.643 122.325 157.823 123.681C158.003 125.036 160.113 125.142 161.301 123.954C162.49 122.765 163.498 118.556 162.763 116.451C162.763 116.451 167.527 111.146 168.443 107.941C168.443 107.941 173.886 106.822 174.548 107.335C174.717 108.337 175.243 109.244 176.028 109.888C177.078 112.642 177.853 115.492 178.34 118.399C178.863 121.28 177.846 126.261 180.551 129.989" stroke="#263238" stroke-linecap="round" stroke-linejoin="round"/>
<path d="M155.427 116.729C155.427 116.729 154.696 113.986 154.696 112.89C154.696 111.794 156.889 107.858 158.17 105.388C159.356 103.225 160.734 101.173 162.286 99.255C163.295 97.9738 167.503 96.6927 168.785 96.3273C170.066 95.9619 173.502 95.2311 174.529 94.5003" stroke="#263238" stroke-linecap="round" stroke-linejoin="round"/>
<path d="M156.292 108.991C156.292 108.991 155.885 106.216 155.427 105.629C155.427 105.629 158.812 96.4337 159.085 95.8833C159.358 95.3329 159.085 93.6031 159.085 93.6031" stroke="#263238" stroke-linecap="round" stroke-linejoin="round"/>
<path d="M159.085 95.8834H164.025C165.579 95.8834 167.961 95.518 168.784 96.3459" stroke="#263238" stroke-linecap="round" stroke-linejoin="round"/>
<path d="M174.528 107.354C175.52 107.152 176.462 106.754 177.297 106.183C178.133 105.612 178.846 104.879 179.394 104.028" stroke="#263238" stroke-linecap="round" stroke-linejoin="round"/>
<path d="M175.033 107.238C176.962 108.695 182.78 106.776 185.528 103.57" stroke="#263238" stroke-linecap="round" stroke-linejoin="round"/>
<path d="M176.009 109.907C176.009 109.907 181.499 112.682 185.07 111.183" stroke="#263238" stroke-linecap="round" stroke-linejoin="round"/>
<path d="M1.3252 127.751L9.188 143.116C9.188 143.116 13.1795 135.498 25.8942 135.979C38.6088 136.46 42.1054 125.054 42.1054 125.054C42.7437 114.185 46.5502 106.581 46.5502 106.581C47.3801 105.992 47.967 105.121 48.2014 104.13C48.8952 103.668 54.2511 105.143 54.2511 105.143C54.9495 108.381 59.3388 114.009 59.3388 114.009C58.4693 116.063 59.1908 120.327 60.3009 121.595C61.4109 122.862 63.5107 122.908 63.7883 121.553C64.0658 120.198 66.6235 114.773 66.6235 114.773C67.1184 115.633 70.2589 116.669 71.4753 114.916C72.3708 113.465 73.0897 111.912 73.6168 110.291C73.4826 115.05 79.204 114.514 79.3612 113.528C79.5185 112.543 82.5989 105.124 82.5989 105.124C82.5989 105.124 83.9633 101.179 84.5415 99.3846C85.1196 97.59 84.9716 95.6521 84.0096 92.1971C83.0475 88.7421 78.7368 80.5647 78.0801 79.4223C77.4233 78.2799 75.897 77.8081 75.897 77.8081L70.3468 77.4381C67.7012 77.2577 59.8569 78.4788 59.8569 78.4788C59.8569 78.4788 54.635 79.3206 52.2669 79.0708C49.8988 78.821 47.6094 78.7563 45.7917 80.1022C43.974 81.4482 41.5041 85.3102 41.5041 85.3102C41.5041 85.3102 39.7234 86.3971 38.1278 89.6763C38.1278 89.6763 34.5664 92.1832 33.1834 93.6494C31.8005 95.1156 29.9458 99.3013 26.0699 104.084C22.7629 108.14 20.3116 110.268 18.9009 112.728C18.4385 113.533 17.7817 114.209 16.9907 114.694C15.7419 115.458 14.7311 116.555 14.0722 117.862C12.4904 120.961 8.36472 122.321 6.40364 124.208C4.85259 125.58 3.14853 126.769 1.3252 127.751V127.751ZM54.6674 93.5245C55.5462 92.7613 57.905 93.284 59.4452 93.3857L64.3757 93.7188C64.6115 94.283 67.3774 103.681 67.3774 103.681C66.8779 104.246 66.2859 106.979 66.2859 106.979C65.7401 105.698 65.1249 104.347 64.6532 103.279C63.6129 101.044 62.3746 98.9061 60.953 96.8916C60.0372 95.5364 55.9208 93.9778 54.6674 93.5245V93.5245Z" fill="white"/>
<path opacity="0.4" d="M55.708 93.9176C56.1104 94.0748 56.5729 94.2599 57.0493 94.468L55.708 93.9176Z" fill="#FBD689"/>
<path opacity="0.4" d="M84.5182 99.3707C83.9401 101.165 82.5756 105.111 82.5756 105.111C82.5756 105.111 79.5091 112.511 79.338 113.515C79.1669 114.518 73.4594 115.045 73.5935 110.277C73.0665 111.898 72.3476 113.451 71.4521 114.902C70.2357 116.655 67.0952 115.619 66.6003 114.759C66.6003 114.759 64.0379 120.184 63.765 121.539C63.4921 122.894 61.3831 122.848 60.2776 121.581C59.1722 120.314 58.4276 116.031 59.3156 113.996C59.3156 113.996 54.9171 108.385 54.2279 105.129C54.2279 105.129 48.8719 103.649 48.1782 104.116C47.9438 105.107 47.3568 105.978 46.527 106.567C44.9409 110.046 43.7793 113.703 43.0673 117.46C42.6973 116.507 42.2117 115.443 41.6798 114.144C40.2922 110.855 44.3069 109.329 43.4466 109.389C42.5863 109.449 39.7881 107.664 39.7881 107.664C41.4393 107.987 44.8064 106.063 44.9775 105.425C45.1487 104.787 41.6058 102.553 41.1155 102.238C41.5318 102.46 44.1543 103.839 44.774 103.307C45.3938 102.775 44.1959 101.262 44.1959 101.262C44.1959 101.262 45.0145 100.208 46.712 101.457C48.4094 102.705 54.9679 103.316 54.9679 103.316C54.9679 103.316 60.421 113.029 62.8816 113.343C65.3422 113.658 67.4467 110.24 67.1368 109.259C66.8269 108.279 61.3923 97.5854 60.0048 96.0175C60.3681 96.2491 60.6889 96.5417 60.9529 96.8824C62.3744 98.8968 63.6128 101.034 64.6531 103.27C65.1156 104.347 65.74 105.698 66.2857 106.97C66.2857 106.97 66.8778 104.236 67.3773 103.672C67.3773 103.672 64.6022 94.2738 64.3755 93.7095L59.4451 93.3765C57.9049 93.2747 55.5692 92.7567 54.6812 93.506C52.586 92.6966 50.6758 92.0213 50.6758 92.0213C51.2354 89.6763 55.3842 91.0963 57.5765 91.2489C59.7689 91.4015 64.6762 90.0556 64.6762 90.0556C64.6762 90.0556 66.7991 92.4422 66.48 93.2423C66.1609 94.0425 69.4447 103.95 69.4447 103.95C71.0802 104.663 72.9031 104.825 74.6388 104.412C77.7192 103.769 77.3446 100.578 77.3446 100.578C77.3446 100.578 72.1921 84.1816 71.8313 83.733C70.8855 82.8411 69.8676 82.0289 68.788 81.3048C67.8999 80.6942 59.9677 80.8792 59.9677 80.8792C59.9677 80.8792 68.3578 79.9542 69.2551 79.8663C70.1524 79.7784 73.4178 81.0966 74.3428 83.2519C75.2678 85.4073 78.3991 98.8527 80.6654 99.6297C81.8079 100.051 83.3203 99.7592 84.5182 99.3707Z" fill="#FBD689"/>
<path opacity="0.4" d="M48.4414 81.9523C47.1529 81.9408 45.8788 82.2241 44.7164 82.7804C43.5541 83.3368 42.5343 84.1514 41.7349 85.1621L41.6748 85.0604C42.2345 84.1862 44.1955 81.2307 45.745 80.0929C45.8427 80.0178 45.9446 79.9483 46.0502 79.8848V79.8848C49.311 79.6304 51.4524 82.0401 48.4414 81.9523Z" fill="#FBD689"/>
<path opacity="0.4" d="M42.6929 89.1444C41.2284 89.0414 39.7566 89.1583 38.3267 89.4913L38.2666 89.4404C38.7182 88.5282 39.2672 87.6675 39.9039 86.8734C41.5042 87.5903 43.2525 89.1953 42.6929 89.1444Z" fill="#FBD689"/>
<path opacity="0.4" d="M20.3624 110.67C19.1829 113.029 18.8407 115.906 17.9156 116.909C16.7131 118.223 14.7936 117.709 13.4292 121.151C12.4024 123.731 7.90211 124.953 4.3916 125.841C5.10101 125.346 5.77344 124.8 6.40356 124.208C8.36463 122.321 12.4903 120.97 14.0721 117.862C14.731 116.555 15.7418 115.458 16.9906 114.694C17.7884 114.211 18.4517 113.535 18.9193 112.728C19.3437 112.004 19.8263 111.316 20.3624 110.67V110.67Z" fill="#FBD689"/>
<path d="M73.6254 110.291C73.6254 110.291 75.1055 106.882 75.642 105.966C76.1785 105.05 77.432 102.729 77.4921 101.563C77.5522 100.397 72.002 83.8902 71.2388 82.9004C70.4757 81.9106 67.8995 80.7497 66.9744 80.8699C66.0494 80.9902 58.071 81.0087 56.4521 80.5323" stroke="#263238" stroke-linecap="round" stroke-linejoin="round"/>
<path d="M1.3252 127.751C3.15176 126.769 4.85895 125.581 6.41289 124.208C8.37397 122.321 12.4996 120.97 14.0814 117.862C14.7379 116.556 15.7453 115.459 16.9907 114.694C17.7885 114.211 18.4518 113.535 18.9194 112.728C20.3069 110.268 22.7814 108.14 26.0884 104.084C29.9828 99.3013 31.8236 95.1155 33.2019 93.6493C34.5802 92.1831 38.1463 89.6763 38.1463 89.6763C39.7419 86.397 41.5226 85.3101 41.5226 85.3101C41.5226 85.3101 43.9231 81.4388 45.7547 80.0929C47.5863 78.747 49.8757 78.8117 52.2299 79.0615C54.5842 79.3112 59.8199 78.4695 59.8199 78.4695C59.8199 78.4695 67.6827 77.2484 70.3098 77.4288L75.86 77.7988C75.86 77.7988 77.3863 78.2613 78.0431 79.413C78.6998 80.5647 83.0151 88.7327 83.9725 92.1878C84.93 95.6428 85.0826 97.5807 84.5044 99.3753C83.9263 101.17 82.5619 105.115 82.5619 105.115C82.5619 105.115 79.4954 112.515 79.3242 113.519C79.1531 114.523 73.4456 115.05 73.5798 110.281C73.0527 111.903 72.3338 113.456 71.4383 114.907C70.2219 116.66 67.0814 115.624 66.5865 114.763C66.5865 114.763 64.0241 120.189 63.7513 121.544C63.4784 122.899 61.3693 122.853 60.2639 121.585C59.1585 120.318 58.4138 116.035 59.3018 114C59.3018 114 54.9033 108.39 54.2141 105.134C54.2141 105.134 48.8582 103.654 48.1644 104.121C47.93 105.111 47.3431 105.983 46.5132 106.572C45.2794 109.245 44.3141 112.034 43.6317 114.897C42.9194 117.737 43.604 122.76 40.6531 126.317" stroke="#263238" stroke-linecap="round" stroke-linejoin="round"/>
<path d="M66.6326 114.772C66.6326 114.772 67.5576 112.085 67.6224 110.989C67.6871 109.893 65.7723 105.823 64.653 103.27C63.6127 101.034 62.3744 98.8967 60.9529 96.8823C60.0278 95.5363 55.9207 93.9777 54.6672 93.5244C53.4138 93.0711 50.0421 92.1368 49.0615 91.3182" stroke="#263238" stroke-linecap="round" stroke-linejoin="round"/>
<path d="M66.2861 106.979C66.2861 106.979 66.8781 104.246 67.3777 103.681C67.3777 103.681 64.6026 94.2829 64.3759 93.7187C64.1493 93.1544 64.5286 91.4385 64.5286 91.4385" stroke="#263238" stroke-linecap="round" stroke-linejoin="round"/>
<path d="M64.3752 93.7187L59.4448 93.3857C57.8954 93.284 55.5458 92.7613 54.667 93.5245" stroke="#263238" stroke-linecap="round" stroke-linejoin="round"/>
<path d="M48.2014 104.13C47.2264 103.861 46.315 103.401 45.5207 102.775C44.7264 102.149 44.0652 101.37 43.5762 100.485" stroke="#263238" stroke-linecap="round" stroke-linejoin="round"/>
<path d="M47.7067 103.977C45.667 105.305 40.0058 102.997 37.4805 99.6158" stroke="#263238" stroke-linecap="round" stroke-linejoin="round"/>
<path d="M46.5505 106.581C46.5505 106.581 40.8893 108.968 37.4297 107.247" stroke="#263238" stroke-linecap="round" stroke-linejoin="round"/>
</svg>
