<svg width="305" height="222" viewBox="0 0 305 222" fill="none" xmlns="http://www.w3.org/2000/svg">
<path d="M0.501709 200.776H304.498" stroke="#263238" stroke-linecap="round" stroke-linejoin="round"/>
<path d="M105.385 222C134.694 222 158.454 219.112 158.454 215.55C158.454 211.987 134.694 209.1 105.385 209.1C76.0753 209.1 52.3152 211.987 52.3152 215.55C52.3152 219.112 76.0753 222 105.385 222Z" fill="#FBD689"/>
<path opacity="0.5" d="M105.385 222C134.694 222 158.454 219.112 158.454 215.55C158.454 211.987 134.694 209.1 105.385 209.1C76.0753 209.1 52.3152 211.987 52.3152 215.55C52.3152 219.112 76.0753 222 105.385 222Z" fill="white"/>
<path d="M215.204 215.529C215.204 217.306 203.355 218.746 188.757 218.746C174.16 218.746 162.311 217.277 162.311 215.529C162.311 213.78 174.153 212.318 188.757 212.318C203.362 212.318 215.204 213.78 215.204 215.529Z" fill="#FBD689"/>
<path opacity="0.5" d="M215.204 215.529C215.204 217.306 203.355 218.746 188.757 218.746C174.16 218.746 162.311 217.277 162.311 215.529C162.311 213.78 174.153 212.318 188.757 212.318C203.362 212.318 215.204 213.78 215.204 215.529Z" fill="white"/>
<path d="M115.971 3.0659C115.971 3.0659 111.864 -0.159126 107.155 1.44971C102.446 3.05855 98.8761 10.9044 97.6052 17.281C96.3342 23.6575 91.449 28.4914 92.6244 35.9699C93.7998 43.4485 102.299 44.6165 112.562 45.7185C122.825 46.8204 128.393 45.5715 133.227 38.8276C138.061 32.0837 136.012 23.8779 133.154 16.6198C130.296 9.36167 125.536 2.62512 121.576 1.37625C117.616 0.12738 115.971 3.0659 115.971 3.0659Z" fill="#263238" stroke="#263238" stroke-linecap="round" stroke-linejoin="round"/>
<path d="M99.0002 41.4204C99.6932 41.732 100.414 41.978 101.153 42.155" stroke="white" stroke-linecap="round" stroke-linejoin="round"/>
<path d="M114.942 8.28955C113.269 12.0291 111.147 15.5517 108.625 18.7801C104.422 24.1796 95.1294 29.2779 94.5344 34.9419C94.4387 35.7002 94.5052 36.4702 94.7294 37.2009C94.9535 37.9316 95.3302 38.6064 95.8347 39.1807" stroke="white" stroke-linecap="round" stroke-linejoin="round"/>
<path d="M131.993 35.375C131.689 36.0861 131.299 36.7571 130.832 37.3732" stroke="white" stroke-linecap="round" stroke-linejoin="round"/>
<path d="M128.459 21.1816C128.459 21.1816 133.183 26.6326 132.727 32.4508" stroke="white" stroke-linecap="round" stroke-linejoin="round"/>
<path d="M114.046 5.28416C112.205 5.09677 110.346 5.35314 108.624 6.03183C106.903 6.71051 105.369 7.79176 104.151 9.18504C103.982 9.37604 103.827 9.56705 103.68 9.75805" stroke="white" stroke-linecap="round" stroke-linejoin="round"/>
<path d="M86.9456 143.755L86.0273 157.889C86.0273 157.889 82.1191 176.85 80.8849 184.666C79.6507 192.483 77.3881 204.369 76.9767 204.369C76.5653 204.369 69.8214 208.446 67.6616 211.774C65.5018 215.102 68.2419 216.512 71.2392 215.447C74.2365 214.382 78.3064 211.37 79.636 207.792C80.9657 204.215 81.6269 202.885 81.715 202.305C81.8032 201.724 96.0183 163.56 97.4288 159.483C98.8392 155.406 101.837 143.432 101.837 143.432L108.823 119.732C108.823 119.732 116.301 144.1 116.39 145.18C116.478 146.26 124.118 208.542 124.47 210.871C124.823 213.199 124.72 214.86 126.131 215.359C127.541 215.859 130.869 215.859 132.617 215.859C134.366 215.859 140.434 216.777 143.424 216.028C146.414 215.278 146.752 214.779 144.673 213.28C142.594 211.781 131.045 210.826 129.98 206.463C129.892 206.132 129.811 142.021 129.811 142.021C129.811 142.021 128.812 120.82 127.152 114.84H88.7307L86.9456 143.755Z" fill="white" stroke="#263238" stroke-linecap="round" stroke-linejoin="round"/>
<path d="M71.2316 215.433C74.2216 214.345 78.2988 211.355 79.6284 207.778L79.9076 207.043C78.2106 208.85 75.4998 211.363 75.4998 211.363C75.3337 210.51 74.9631 209.711 74.4199 209.034C74.1829 208.772 73.8793 208.58 73.5416 208.478C73.2039 208.376 72.8447 208.367 72.5025 208.454L75.4411 205.221C73.2372 206.588 69.2702 209.379 67.7128 211.781C65.4868 215.095 68.2197 216.512 71.2316 215.433Z" fill="#263238" stroke="#263238" stroke-linecap="round" stroke-linejoin="round"/>
<path d="M144.621 213.265C143.196 212.244 137.341 211.472 133.433 209.687C133.271 209.824 133.145 209.998 133.065 210.194C132.817 210.898 132.623 211.62 132.485 212.354L124.404 210.627V210.855C124.735 213.184 124.654 214.844 126.064 215.344C127.475 215.843 130.803 215.843 132.551 215.843C134.3 215.843 140.368 216.761 143.357 216.012C146.347 215.263 146.729 214.793 144.621 213.265Z" fill="#263238" stroke="#263238" stroke-linecap="round" stroke-linejoin="round"/>
<path d="M98.1415 80.3564C98.1415 80.3564 94.3288 82.1122 89.7153 90.3988C84.6684 99.4421 85.5353 104.467 85.4618 115.376C85.3884 126.285 85.168 144.394 85.168 144.394C85.168 144.394 99.1259 148.133 109.139 147.546C119.152 146.958 131.854 144.688 131.854 144.688C131.854 144.688 129.143 107.751 126.579 97.128C124.015 86.5053 122.472 81.7008 122.472 81.7008C117.517 82.3885 112.496 82.4626 107.523 81.9212C99.0231 81.0911 98.1415 80.3564 98.1415 80.3564Z" fill="#263238" stroke="#263238" stroke-linecap="round" stroke-linejoin="round"/>
<path d="M114.2 113.025C114.582 114.281 114.935 115.552 115.244 116.823" stroke="white" stroke-linecap="round" stroke-linejoin="round"/>
<path d="M105.348 92.2349C108.307 97.6954 110.846 103.373 112.944 109.219" stroke="white" stroke-linecap="round" stroke-linejoin="round"/>
<path d="M191.725 73.3328C191.285 73.039 184.063 71.9076 184.063 71.9076L182.653 71.3273C182.653 71.3273 191.395 72.0252 191.468 71.6579C191.542 71.2906 191.836 70.8498 191.248 70.7763C190.66 70.7029 179.413 68.4182 179.413 68.4182C179.413 68.4182 182.271 65.7147 182.638 65.127C183.005 64.5393 183.512 63.3639 182.925 63.3639C182.337 63.3639 182.19 63.7312 181.389 64.2455C180.588 64.7597 177.43 66.0086 176.548 66.7359C175.666 67.4631 173.036 69.3732 173.036 69.3732L142.491 65.1711C142.491 65.1711 131.765 51.9478 129.436 49.1268C127.817 47.2443 125.975 45.5666 123.949 44.1313C121.701 43.1396 121.745 44.7998 121.745 44.7998L126.439 65.6633C126.439 65.6633 138.582 72.8994 139.332 72.8994C140.081 72.8994 172.89 73.9866 172.89 73.9866C172.89 73.9866 175.093 75.0151 176.475 75.8893C177.856 76.7635 186.664 79.5625 186.664 79.5625C186.664 79.5625 187.252 79.2686 186.59 78.7544C185.929 78.2402 181.683 76.1905 181.683 76.1905L190.499 78.1006C190.499 78.1006 191.013 77.7332 190.792 77.3659C190.572 76.9986 182.712 73.994 182.712 73.994L191.527 74.4348C191.527 74.4348 192.159 73.6267 191.725 73.3328Z" fill="white" stroke="#263238" stroke-linecap="round" stroke-linejoin="round"/>
<path d="M140.647 62.9011C137.48 59.0002 131.155 51.2132 129.436 49.1268C127.817 47.2443 125.975 45.5666 123.949 44.1313C121.701 43.1396 121.745 44.7998 121.745 44.7998L126.439 65.6633C126.439 65.6633 131.919 68.9251 135.739 71.0702L140.647 62.9011Z" fill="white" stroke="#263238" stroke-linecap="round" stroke-linejoin="round"/>
<path d="M108.183 42.3462C108.183 42.3462 101.807 42.6401 97.8986 46.967C93.9904 51.294 94.4532 60.8148 96.0694 66.5302C97.6856 72.2456 99.7426 75.3972 99.2944 77.3807C98.8463 79.3642 97.2448 80.018 98.119 81.8472C98.9932 83.6764 104.055 85.6599 112.995 85.3661C121.936 85.0722 123.625 83.1622 123.699 81.4872C123.772 79.8123 123.111 78.4091 123.331 77.3807C123.552 76.3522 130.002 70.6368 130.002 64.3337C130.002 58.0305 127.218 55.834 126.557 51.2866C125.895 46.7393 126.116 46.0855 123.405 44.102C120.694 42.1185 111.776 41.0973 108.183 42.3462Z" fill="white" stroke="#263238" stroke-linecap="round" stroke-linejoin="round"/>
<path d="M105.29 64.1938C103.158 65.9772 100.793 67.4603 98.2593 68.6016" stroke="#263238" stroke-linecap="round" stroke-linejoin="round"/>
<path d="M105.994 64.9292C105.994 64.9292 104.415 70.0275 100.543 72.8412" stroke="#263238" stroke-linecap="round" stroke-linejoin="round"/>
<path d="M121.818 46.9604L122.553 53.9982L119.467 50.4059L121.818 46.9604Z" fill="white" stroke="#263238" stroke-linecap="round" stroke-linejoin="round"/>
<path d="M117.711 54.5853L121.818 46.9598L118.079 42.9341L117.711 54.5853Z" fill="white" stroke="#263238" stroke-linecap="round" stroke-linejoin="round"/>
<path d="M109.799 29.8872C110.44 32.4281 110.758 35.0393 110.747 37.6596C110.726 39.3562 110.553 41.0476 110.233 42.7138L117.711 54.5854L119.834 43.566L121.23 35.9405C121.23 35.9405 112.73 35.4557 109.799 29.8872Z" fill="white" stroke="#263238" stroke-linecap="round" stroke-linejoin="round"/>
<path d="M117.271 48.209L117.712 54.5856L115.515 51.1401L117.271 48.209Z" fill="white" stroke="#263238" stroke-linecap="round" stroke-linejoin="round"/>
<path d="M107.743 42.4198L114.56 54.6587L117.271 48.2087L110.02 38.2397L107.743 42.4198Z" fill="white" stroke="#263238" stroke-linecap="round" stroke-linejoin="round"/>
<path d="M227.179 48.1284H165.316V98.8913H227.179V48.1284Z" fill="#FBD689"/>
<path opacity="0.2" d="M227.179 48.1279H165.316V98.8908H227.179V48.1279Z" fill="black"/>
<path d="M227.179 48.1284H165.316V98.8913H227.179V48.1284Z" stroke="#263238" stroke-linecap="round" stroke-linejoin="round"/>
<path d="M214.081 48.1284H152.218V98.8913H214.081V48.1284Z" fill="#FBD689" stroke="#263238" stroke-linecap="round" stroke-linejoin="round"/>
<path d="M237.368 115.979C235.385 112.834 227.179 98.8911 227.179 98.8911H214.088L220.824 115.979H237.368Z" fill="#FBD689"/>
<path opacity="0.2" d="M237.368 115.979C235.385 112.835 227.179 98.8916 227.179 98.8916H214.088L220.824 115.979H237.368Z" fill="black"/>
<path d="M237.368 115.979C235.385 112.834 227.179 98.8911 227.179 98.8911H214.088L220.824 115.979H237.368Z" stroke="#263238" stroke-linecap="round" stroke-linejoin="round"/>
<path d="M141.991 115.979C143.975 112.834 152.173 98.8911 152.173 98.8911H165.272L158.535 115.979H141.991Z" fill="#FBD689" stroke="#263238" stroke-linecap="round" stroke-linejoin="round"/>
<path d="M152.173 98.8911L146.48 115.979H211.091L214.088 98.8911H152.173Z" fill="#FBD689" stroke="#263238" stroke-linecap="round" stroke-linejoin="round"/>
<path d="M235.142 66.4941V83.4935" stroke="#263238" stroke-linecap="round" stroke-linejoin="round"/>
<path d="M238.36 73.8477V87.6293" stroke="#263238" stroke-linecap="round" stroke-linejoin="round"/>
<path d="M145.568 83.4932V94.0571" stroke="#263238" stroke-linecap="round" stroke-linejoin="round"/>
<path d="M142.814 89.4653V97.7299" stroke="#263238" stroke-linecap="round" stroke-linejoin="round"/>
<path d="M97.5535 60.5952C99.7458 63.0783 102.29 65.2266 105.105 66.9718C109.513 69.6091 125.675 78.7699 126.946 79.2842C128.217 79.7984 166.814 73.4953 166.814 73.4953C166.814 73.4953 169.018 74.5238 170.407 75.398C171.795 76.2722 180.596 79.0711 180.596 79.0711C180.596 79.0711 181.184 78.7773 180.522 78.2704C179.861 77.7635 175.615 75.6992 175.615 75.6992L184.431 77.6092C184.431 77.6092 184.945 77.2419 184.725 76.8746C184.504 76.5073 176.644 73.5027 176.644 73.5027L185.459 73.9434C185.459 73.9434 186.12 73.1353 185.68 72.8415C185.239 72.5476 176.21 70.4907 176.21 70.4907C176.21 70.4907 185.812 69.6826 185.885 69.3153C185.959 68.948 186.253 68.5145 185.665 68.4411C185.077 68.3676 173.059 67.1922 173.059 67.1922C173.059 67.1922 176.21 65.216 176.578 64.6283C176.945 64.0406 177.459 62.8652 176.871 62.8652C176.284 62.8652 176.137 63.2325 175.336 63.7468C174.535 64.261 171.376 65.5099 170.495 66.2372C169.613 66.9645 166.976 68.8818 166.976 68.8818L131.655 68.9553L109.726 51.6548" fill="white"/>
<path d="M97.5535 60.5952C99.7458 63.0783 102.29 65.2266 105.105 66.9718C109.513 69.6091 125.675 78.7699 126.946 79.2842C128.217 79.7984 166.814 73.4953 166.814 73.4953C166.814 73.4953 169.018 74.5238 170.407 75.398C171.795 76.2722 180.596 79.0711 180.596 79.0711C180.596 79.0711 181.184 78.7773 180.522 78.2704C179.861 77.7635 175.615 75.6992 175.615 75.6992L184.431 77.6092C184.431 77.6092 184.945 77.2419 184.725 76.8746C184.504 76.5073 176.644 73.5027 176.644 73.5027L185.459 73.9434C185.459 73.9434 186.12 73.1353 185.68 72.8415C185.239 72.5476 176.21 70.4907 176.21 70.4907C176.21 70.4907 185.812 69.6826 185.885 69.3153C185.959 68.948 186.253 68.5145 185.665 68.4411C185.077 68.3676 173.059 67.1922 173.059 67.1922C173.059 67.1922 176.21 65.216 176.578 64.6283C176.945 64.0406 177.459 62.8652 176.871 62.8652C176.284 62.8652 176.137 63.2325 175.336 63.7468C174.535 64.261 171.376 65.5099 170.495 66.2372C169.613 66.9645 166.976 68.8818 166.976 68.8818L131.655 68.9553L109.726 51.6548" stroke="#263238" stroke-linecap="round" stroke-linejoin="round"/>
<path d="M185.651 68.4401C185.07 68.3666 173.044 67.1912 173.044 67.1912C173.044 67.1912 176.196 65.2151 176.563 64.6274C176.931 64.0397 177.445 62.8643 176.857 62.8643C176.269 62.8643 176.122 63.2316 175.322 63.7458C174.521 64.2601 171.362 65.5089 170.48 66.2362C169.599 66.9635 166.962 68.8809 166.962 68.8809L131.641 68.9543L127.725 65.8468C126.256 68.4254 123.508 73.2593 121.723 76.4475C124.471 77.9756 126.55 79.1142 126.968 79.2832C128.217 79.7974 166.837 73.4943 166.837 73.4943C166.837 73.4943 169.041 74.5228 170.429 75.397C171.817 76.2712 180.618 79.0702 180.618 79.0702C180.618 79.0702 181.206 78.7763 180.545 78.2694C179.884 77.7625 175.638 75.6982 175.638 75.6982L184.453 77.6083C184.453 77.6083 184.967 77.2409 184.747 76.8736C184.527 76.5063 176.666 73.5017 176.666 73.5017L185.482 73.9425C185.482 73.9425 186.143 73.1344 185.702 72.8405C185.261 72.5467 176.211 70.4897 176.211 70.4897C176.211 70.4897 185.812 69.6816 185.886 69.3143C185.959 68.947 186.238 68.5136 185.651 68.4401Z" fill="white" stroke="#263238" stroke-linecap="round" stroke-linejoin="round"/>
<path d="M126.506 23.7313C126.631 23.5793 126.796 23.4655 126.983 23.403C127.17 23.3405 127.37 23.3317 127.562 23.3776C127.753 23.4236 127.928 23.5224 128.066 23.6629C128.204 23.8034 128.3 23.9798 128.342 24.1721C128.465 24.969 128.424 25.7825 128.222 26.5631C128.02 27.3436 127.661 28.0748 127.167 28.7121C126.359 29.5202 125.624 29.7405 125.624 28.7121C125.828 27.0372 126.122 25.3745 126.506 23.7313V23.7313Z" fill="white" stroke="#263238" stroke-linecap="round" stroke-linejoin="round"/>
<path d="M117.484 10.8896C117.226 14.4648 115.697 17.8294 113.172 20.3737C110.819 22.6867 108.16 24.6644 105.267 26.2507C105.267 26.2507 105.693 28.5501 106.56 29.2701C107.427 29.99 109.146 29.8504 109.146 29.8504C110.145 32.5829 111.771 35.0435 113.892 37.0351C117.337 40.194 121.363 39.9075 123.662 35.1691C125.962 30.4308 127.115 25.6777 126.828 22.9449L126.542 20.2121C126.542 20.2121 119.063 16.0614 117.484 10.8896Z" fill="white" stroke="#263238" stroke-linecap="round" stroke-linejoin="round"/>
<path d="M117.051 25.0974C117.416 25.0974 117.712 24.5711 117.712 23.922C117.712 23.2728 117.416 22.7466 117.051 22.7466C116.686 22.7466 116.39 23.2728 116.39 23.922C116.39 24.5711 116.686 25.0974 117.051 25.0974Z" fill="#263238"/>
<path d="M120.643 34.4787C121.008 34.4787 121.305 33.9525 121.305 33.3033C121.305 32.6542 121.008 32.1279 120.643 32.1279C120.278 32.1279 119.982 32.6542 119.982 33.3033C119.982 33.9525 120.278 34.4787 120.643 34.4787Z" fill="#263238"/>
<path d="M123.427 25.0974C123.792 25.0974 124.088 24.5711 124.088 23.922C124.088 23.2728 123.792 22.7466 123.427 22.7466C123.062 22.7466 122.766 23.2728 122.766 23.922C122.766 24.5711 123.062 25.0974 123.427 25.0974Z" fill="#263238"/>
<path d="M122.105 22.6733C121.852 23.5534 121.777 24.4749 121.884 25.3841C122.105 26.633 123.133 28.7561 122.252 29.1234C121.849 29.3069 121.404 29.3765 120.965 29.3247C120.526 29.2729 120.11 29.1016 119.761 28.8295" stroke="#263238" stroke-linecap="round" stroke-linejoin="round"/>
<path d="M115.141 21.7989C115.141 21.7989 115.493 19.551 118.439 19.8081" stroke="#263238" stroke-linecap="round" stroke-linejoin="round"/>
<path d="M123.031 20.4984C123.031 20.4984 125.778 18.2945 126.667 22.3277" stroke="#263238" stroke-linecap="round" stroke-linejoin="round"/>
</svg>
