<svg width="265" height="240" viewBox="0 0 265 240" fill="none" xmlns="http://www.w3.org/2000/svg">
<path d="M264.081 142.468L1.30908 143.008" stroke="#263238" stroke-width="1.08162" stroke-miterlimit="10"/>
<path d="M234.619 192.599C233.749 192.601 232.894 192.381 232.133 191.96C231.372 191.54 230.73 190.932 230.269 190.195C229.808 189.457 229.543 188.615 229.497 187.746C229.452 186.878 229.629 186.012 230.011 185.231C231.002 183.247 231.197 180.959 230.557 178.836C229.917 176.713 228.489 174.915 226.566 173.81C218.894 168.897 201.05 168.115 194.801 168.213H194.714C193.354 168.226 192.044 167.698 191.073 166.745C190.102 165.792 189.549 164.493 189.536 163.132C189.523 161.772 190.051 160.462 191.004 159.491C191.957 158.52 193.256 157.967 194.616 157.954C197.236 157.9 220.437 157.715 232.087 165.17C243.574 172.527 241.792 184.416 239.238 189.687C238.819 190.557 238.164 191.292 237.347 191.807C236.53 192.322 235.585 192.597 234.619 192.599Z" fill="#263238"/>
<path d="M258.266 219.659L257.136 223.495L240.02 195.349L239.574 189.274L258.266 219.659Z" fill="white" stroke="#263238" stroke-width="1.08162" stroke-linecap="round" stroke-linejoin="round"/>
<path d="M257.136 223.495L262.483 220.854L263.439 217.192L258.266 219.659L257.136 223.495Z" fill="white" stroke="#263238" stroke-width="1.08162" stroke-linecap="round" stroke-linejoin="round"/>
<path d="M237.325 186.122L257.136 185.438L263.439 217.192L258.266 219.659L237.325 186.122Z" fill="white" stroke="#263238" stroke-width="1.08162" stroke-linecap="round" stroke-linejoin="round"/>
<path d="M234.619 187.47L254.43 220.789L247.909 223.941L218.633 200.076L234.619 187.47Z" fill="white" stroke="#263238" stroke-width="1.08162" stroke-linecap="round" stroke-linejoin="round"/>
<path d="M247.91 223.941L247.008 227.32L217.514 203.901L218.633 200.076L247.91 223.941Z" fill="white" stroke="#263238" stroke-width="1.08162" stroke-linecap="round" stroke-linejoin="round"/>
<path d="M247.91 223.94L254.43 220.789L253.539 224.169L247.008 227.32L247.91 223.94Z" fill="white" stroke="#263238" stroke-width="1.08162" stroke-linecap="round" stroke-linejoin="round"/>
<path d="M245.61 199.486C249.531 195.565 249.531 189.207 245.61 185.285C241.688 181.364 235.33 181.364 231.409 185.285C227.488 189.207 227.488 195.565 231.409 199.486C235.33 203.407 241.688 203.407 245.61 199.486Z" fill="#3266B1" stroke="#263238" stroke-width="1.08162" stroke-linecap="round" stroke-linejoin="round"/>
<path d="M26.8899 219.659L28.0201 223.495L45.1252 195.349L45.5817 189.274L26.8899 219.659Z" fill="white" stroke="#263238" stroke-width="1.08162" stroke-linecap="round" stroke-linejoin="round"/>
<path d="M28.0206 223.495L22.6738 220.854L21.7175 217.192L26.8904 219.659L28.0206 223.495Z" fill="white" stroke="#263238" stroke-width="1.08162" stroke-linecap="round" stroke-linejoin="round"/>
<path d="M47.8317 186.122L28.0206 185.438L21.7175 217.192L26.8904 219.659L47.8317 186.122Z" fill="white" stroke="#263238" stroke-width="1.08162" stroke-linecap="round" stroke-linejoin="round"/>
<path d="M50.5374 187.47L30.7155 220.789L37.2467 223.941L66.5124 200.076L50.5374 187.47Z" fill="white" stroke="#263238" stroke-width="1.08162" stroke-linecap="round" stroke-linejoin="round"/>
<path d="M37.2467 223.941L38.1487 227.32L67.6426 203.901L66.5124 200.076L37.2467 223.941Z" fill="white" stroke="#263238" stroke-width="1.08162" stroke-linecap="round" stroke-linejoin="round"/>
<path d="M37.2467 223.94L30.7155 220.789L31.6174 224.169L38.1487 227.32L37.2467 223.94Z" fill="white" stroke="#263238" stroke-width="1.08162" stroke-linecap="round" stroke-linejoin="round"/>
<path d="M47.2878 196.012C46.2269 196.016 45.1907 195.692 44.322 195.083C43.4533 194.474 42.7948 193.61 42.4372 192.611C42.0796 191.612 42.0406 190.527 42.3254 189.505C42.6102 188.483 43.2049 187.575 44.0276 186.905C84.8018 153.727 76.4992 104.248 76.4122 103.748C76.2092 102.425 76.5315 101.075 77.3102 99.9865C78.0889 98.8977 79.2623 98.1565 80.58 97.9211C81.8977 97.6856 83.2552 97.9746 84.3628 98.7263C85.4703 99.4779 86.2402 100.633 86.5079 101.944C86.91 104.216 95.919 157.911 50.5045 194.86C49.5963 195.602 48.4605 196.008 47.2878 196.012Z" fill="#263238"/>
<path d="M106.853 92.818C108.621 81.8683 101.177 71.5589 90.2277 69.7914C79.278 68.0238 68.9687 75.4674 67.2011 86.417C65.4335 97.3667 72.8771 107.676 83.8267 109.444C94.7764 111.211 105.086 103.768 106.853 92.818Z" fill="#ADADAD" stroke="#263238" stroke-width="1.08162" stroke-linecap="round" stroke-linejoin="round"/>
<path d="M53.7401 199.483C57.6615 195.561 57.6615 189.203 53.7401 185.282C49.8187 181.361 43.4608 181.361 39.5394 185.282C35.618 189.203 35.618 195.561 39.5394 199.483C43.4608 203.404 49.8187 203.404 53.7401 199.483Z" fill="#3266B1" stroke="#263238" stroke-width="1.08162" stroke-linecap="round" stroke-linejoin="round"/>
<path d="M140.801 172.321C158.405 172.321 172.675 159.009 172.675 142.588C172.675 126.167 158.405 112.855 140.801 112.855C123.198 112.855 108.927 126.167 108.927 142.588C108.927 159.009 123.198 172.321 140.801 172.321Z" fill="#ADADAD" stroke="#263238" stroke-width="1.08162" stroke-linecap="round" stroke-linejoin="round"/>
<path d="M124.196 129.884L127.174 141.501C128.053 144.376 129.918 146.848 132.44 148.484C134.963 150.12 137.981 150.814 140.964 150.445C143.944 150.072 146.697 148.66 148.739 146.458C150.78 144.255 151.979 141.403 152.125 138.404L152.712 126.689L124.196 129.884Z" fill="#263238" stroke="#263238" stroke-width="1.08162" stroke-linecap="round" stroke-linejoin="round"/>
<path d="M187.031 71.4285C184.023 71.4723 181.026 71.0619 178.141 70.2114L178.967 67.7879C179.109 67.7879 193.377 72.4283 207.907 61.8L209.417 63.8757C202.963 68.7374 195.111 71.3863 187.031 71.4285Z" fill="#263238"/>
<path d="M203.049 90.7072C191.291 73.526 177.913 74.8192 177.783 74.8301L177.5 72.2871C178.109 72.2219 192.552 70.82 205.158 89.2619L203.049 90.7072Z" fill="#263238"/>
<path d="M200.072 102.846C184.858 98.1624 175.718 77.9057 175.327 77.0472L177.674 75.9604C177.761 76.1669 186.738 96.0106 200.832 100.347L200.072 102.846Z" fill="#263238"/>
<path d="M207.983 63.5281L212.091 60.7896" stroke="#263238" stroke-width="1.08162" stroke-miterlimit="10"/>
<path d="M202.962 87.7078L205.701 93.174" stroke="#263238" stroke-width="1.08162" stroke-miterlimit="10"/>
<path d="M198.17 100.705C200.335 101.256 202.555 101.562 204.788 101.618" stroke="#263238" stroke-width="1.08162" stroke-miterlimit="10"/>
<path d="M82.8132 67.6579L86.6059 94.185L180.989 84.5348L180.641 56.9753L82.8132 67.6579Z" fill="white" stroke="#263238" stroke-width="1.08162" stroke-linecap="round" stroke-linejoin="round"/>
<path d="M86.6062 94.1846L103.483 136.893L176.164 129.655L180.989 84.5344L86.6062 94.1846Z" fill="#E5E5E5" stroke="#263238" stroke-width="1.08162" stroke-linecap="round" stroke-linejoin="round"/>
<path d="M109.373 105.345L116.002 124.907C116.475 126.318 117.422 127.522 118.682 128.314C119.941 129.107 121.437 129.439 122.914 129.254L152.027 126.08C153.497 125.901 154.86 125.223 155.889 124.159C156.918 123.094 157.549 121.708 157.678 120.234L159.482 99.6619C159.543 98.9883 159.453 98.3096 159.219 97.6751C158.985 97.0407 158.612 96.4663 158.128 95.9938C157.644 95.5214 157.061 95.1626 156.421 94.9437C155.781 94.7247 155.101 94.6511 154.429 94.7281L113.209 99.3358C112.529 99.4105 111.875 99.6366 111.294 99.9976C110.713 100.359 110.22 100.845 109.852 101.422C109.484 101.999 109.25 102.65 109.167 103.329C109.084 104.008 109.154 104.697 109.373 105.345Z" fill="#263238"/>
<path d="M109.373 116.093L121.393 115.028L125.207 104.671L134.183 120.809L138.748 108.779L141.03 112.594L162.808 109.996" stroke="white" stroke-width="1.08162" stroke-linecap="round" stroke-linejoin="round"/>
<path d="M109.373 105.345L116.002 124.907C116.475 126.318 117.422 127.522 118.682 128.314C119.941 129.107 121.437 129.439 122.914 129.254L152.027 126.08C153.497 125.901 154.86 125.223 155.889 124.159C156.918 123.094 157.549 121.708 157.678 120.234L159.482 99.6619C159.543 98.9883 159.453 98.3096 159.219 97.6751C158.985 97.0407 158.612 96.4663 158.128 95.9938C157.644 95.5214 157.061 95.1626 156.421 94.9437C155.781 94.7247 155.101 94.6511 154.429 94.7281L113.209 99.3358C112.529 99.4105 111.875 99.6366 111.294 99.9976C110.713 100.359 110.22 100.845 109.852 101.422C109.484 101.999 109.25 102.65 109.167 103.329C109.084 104.008 109.154 104.697 109.373 105.345V105.345Z" stroke="#263238" stroke-width="1.08162" stroke-linecap="round" stroke-linejoin="round"/>
<path d="M170.035 102.281C172.952 102.281 175.316 99.9162 175.316 96.9993C175.316 94.0824 172.952 91.7178 170.035 91.7178C167.118 91.7178 164.753 94.0824 164.753 96.9993C164.753 99.9162 167.118 102.281 170.035 102.281Z" fill="white" stroke="#263238" stroke-width="1.08162" stroke-linecap="round" stroke-linejoin="round"/>
<path d="M174.338 113.517C174.338 114.498 174.047 115.456 173.503 116.271C172.958 117.086 172.184 117.721 171.279 118.096C170.373 118.471 169.377 118.569 168.415 118.378C167.454 118.187 166.571 117.715 165.878 117.022C165.185 116.329 164.713 115.446 164.522 114.484C164.331 113.523 164.429 112.527 164.804 111.621C165.179 110.716 165.814 109.942 166.629 109.397C167.444 108.853 168.402 108.562 169.382 108.562C170.697 108.562 171.957 109.084 172.886 110.013C173.816 110.943 174.338 112.203 174.338 113.517Z" fill="#3266B1" stroke="#263238" stroke-width="1.08162" stroke-linecap="round" stroke-linejoin="round"/>
<path d="M105.732 102.738C106.034 103.738 106.032 104.804 105.727 105.803C105.422 106.802 104.828 107.688 104.019 108.349C103.211 109.011 102.225 109.417 101.185 109.518C100.146 109.619 99.0995 109.409 98.1791 108.916C97.2588 108.422 96.5054 107.667 96.0143 106.745C95.5231 105.823 95.3163 104.777 95.4198 103.738C95.5234 102.698 95.9327 101.713 96.5961 100.907C97.2594 100.1 98.1471 99.5081 99.1467 99.2058C99.811 99.0034 100.509 98.9343 101.2 99.0025C101.891 99.0706 102.562 99.2747 103.174 99.6029C103.786 99.9311 104.327 100.377 104.766 100.915C105.205 101.453 105.533 102.072 105.732 102.738Z" fill="#3266B1" stroke="#263238" stroke-width="1.08162" stroke-linecap="round" stroke-linejoin="round"/>
<path d="M108.969 122.986C110.46 120.69 109.807 117.621 107.512 116.131C105.217 114.64 102.148 115.293 100.657 117.588C99.1665 119.883 99.8188 122.952 102.114 124.443C104.409 125.933 107.479 125.281 108.969 122.986Z" fill="white" stroke="#263238" stroke-width="1.08162" stroke-linecap="round" stroke-linejoin="round"/>
<path d="M121.653 177.265C129.407 177.265 135.694 171.203 135.694 163.725C135.694 156.246 129.407 150.184 121.653 150.184C113.899 150.184 107.612 156.246 107.612 163.725C107.612 171.203 113.899 177.265 121.653 177.265Z" fill="#3266B1" stroke="#263238" stroke-width="1.08162" stroke-linecap="round" stroke-linejoin="round"/>
<path d="M101.005 194.11L113.861 165.246C114.412 164.006 115.4 163.012 116.636 162.453C117.872 161.894 119.271 161.809 120.566 162.214C121.902 162.624 123.033 163.524 123.733 164.733C124.432 165.943 124.648 167.372 124.337 168.734L115.871 206.683L101.005 194.11Z" fill="#263238" stroke="#263238" stroke-width="1.08162" stroke-linecap="round" stroke-linejoin="round"/>
<path d="M96.7127 149.902L124.783 215.964L91.0943 220.593C91.0943 220.593 70.9463 200.109 57.4056 161.138L96.7127 149.902Z" fill="#ADADAD" stroke="#263238" stroke-width="1.08162" stroke-linecap="round" stroke-linejoin="round"/>
<path d="M96.7123 149.847L98.0272 143.577L126.108 210.954L124.783 215.909L96.7123 149.847Z" fill="white" stroke="#263238" stroke-width="1.08162" stroke-linecap="round" stroke-linejoin="round"/>
<path d="M98.0277 143.577L59.7204 155.129L57.4056 161.084L96.7127 149.847L98.0277 143.577Z" fill="white" stroke="#263238" stroke-width="1.08162" stroke-linecap="round" stroke-linejoin="round"/>
<path d="M60.0463 167.354L98.6904 155.466" stroke="#263238" stroke-width="1.08162" stroke-linecap="round" stroke-linejoin="round"/>
<path d="M63.0132 174.288L101.994 163.725" stroke="#263238" stroke-width="1.08162" stroke-linecap="round" stroke-linejoin="round"/>
<path d="M65.9908 181.558L105.298 170.995" stroke="#263238" stroke-width="1.08162" stroke-linecap="round" stroke-linejoin="round"/>
<path d="M70.2836 190.48L108.602 179.244" stroke="#263238" stroke-width="1.08162" stroke-linecap="round" stroke-linejoin="round"/>
<path d="M74.3474 197.566L112.568 187.502" stroke="#263238" stroke-width="1.08162" stroke-linecap="round" stroke-linejoin="round"/>
<path d="M78.5425 204.042L115.872 195.099" stroke="#263238" stroke-width="1.08162" stroke-linecap="round" stroke-linejoin="round"/>
<path d="M83.3784 210.269L118.176 202.043" stroke="#263238" stroke-width="1.08162" stroke-linecap="round" stroke-linejoin="round"/>
<path d="M86.8014 215.355L121.37 209.639" stroke="#263238" stroke-width="1.08162" stroke-linecap="round" stroke-linejoin="round"/>
<path d="M159.048 177.265C166.802 177.265 173.088 171.203 173.088 163.725C173.088 156.246 166.802 150.184 159.048 150.184C151.293 150.184 145.007 156.246 145.007 163.725C145.007 171.203 151.293 177.265 159.048 177.265Z" fill="#3266B1" stroke="#263238" stroke-width="1.08162" stroke-linecap="round" stroke-linejoin="round"/>
<path d="M179.685 194.11L166.829 165.246C166.277 164.006 165.29 163.012 164.053 162.453C162.817 161.894 161.418 161.809 160.123 162.214C158.788 162.624 157.658 163.524 156.96 164.734C156.262 165.944 156.049 167.373 156.363 168.734L164.829 206.683L179.685 194.11Z" fill="#263238" stroke="#263238" stroke-width="1.08162" stroke-linecap="round" stroke-linejoin="round"/>
<path d="M183.988 149.902L155.907 215.964L189.596 220.593C189.596 220.593 209.744 200.109 223.284 161.138L183.988 149.902Z" fill="#ADADAD" stroke="#263238" stroke-width="1.08162" stroke-linecap="round" stroke-linejoin="round"/>
<path d="M183.988 149.847L182.662 143.577L154.581 210.954L155.907 215.909L183.988 149.847Z" fill="white" stroke="#263238" stroke-width="1.08162" stroke-linecap="round" stroke-linejoin="round"/>
<path d="M182.662 143.577L220.98 155.129L223.295 161.084L183.988 149.847L182.662 143.577Z" fill="white" stroke="#263238" stroke-width="1.08162" stroke-linecap="round" stroke-linejoin="round"/>
<path d="M220.644 167.354L181.999 155.466" stroke="#263238" stroke-width="1.08162" stroke-linecap="round" stroke-linejoin="round"/>
<path d="M217.676 174.288L178.695 163.725" stroke="#263238" stroke-width="1.08162" stroke-linecap="round" stroke-linejoin="round"/>
<path d="M214.699 181.558L175.392 170.995" stroke="#263238" stroke-width="1.08162" stroke-linecap="round" stroke-linejoin="round"/>
<path d="M210.407 190.48L172.089 179.244" stroke="#263238" stroke-width="1.08162" stroke-linecap="round" stroke-linejoin="round"/>
<path d="M206.342 197.566L168.133 187.502" stroke="#263238" stroke-width="1.08162" stroke-linecap="round" stroke-linejoin="round"/>
<path d="M202.147 204.042L164.829 195.099" stroke="#263238" stroke-width="1.08162" stroke-linecap="round" stroke-linejoin="round"/>
<path d="M197.322 210.269L162.514 202.043" stroke="#263238" stroke-width="1.08162" stroke-linecap="round" stroke-linejoin="round"/>
<path d="M193.888 215.355L159.319 209.639" stroke="#263238" stroke-width="1.08162" stroke-linecap="round" stroke-linejoin="round"/>
<path d="M209.581 93.4023L213.232 94.9998" stroke="#263238" stroke-width="1.08162" stroke-miterlimit="10"/>
<path d="M207.298 94.7717L210.95 100.477" stroke="#263238" stroke-width="1.08162" stroke-miterlimit="10"/>
<path d="M205.245 95L204.56 98.6514" stroke="#263238" stroke-width="1.08162" stroke-miterlimit="10"/>
<path d="M214.145 71.2764H223.034" stroke="#263238" stroke-width="1.08162" stroke-miterlimit="10"/>
<path d="M207.298 71.7329L220.067 75.3843" stroke="#263238" stroke-width="1.08162" stroke-miterlimit="10"/>
<path d="M212.091 66.9511L220.296 65.8101" stroke="#263238" stroke-width="1.08162" stroke-miterlimit="10"/>
<path d="M182.662 95.2283L184.944 101.846" stroke="#263238" stroke-width="1.08162" stroke-miterlimit="10"/>
<path d="M185.629 94.7717L192.008 105.27" stroke="#263238" stroke-width="1.08162" stroke-miterlimit="10"/>
<path d="M187.911 88.6208L194.062 90.6748" stroke="#263238" stroke-width="1.08162" stroke-miterlimit="10"/>
<path d="M221.893 85.1977L219.839 87.4364L221.328 90.088L218.557 88.8165L216.503 91.0552L216.851 88.0341L214.09 86.7626L217.068 86.1649L217.426 83.1438L218.915 85.7954L221.893 85.1977Z" fill="#3266B1" stroke="#263238" stroke-width="0.540812" stroke-linecap="round" stroke-linejoin="round"/>
<path d="M225.088 55.0842L223.023 57.3229L224.523 59.9745L221.752 58.703L219.698 60.9417L220.046 57.9206L217.285 56.6491L220.263 56.0514L220.611 53.0303L222.11 55.6819L225.088 55.0842Z" fill="#3266B1" stroke="#263238" stroke-width="0.540812" stroke-linecap="round" stroke-linejoin="round"/>
<path d="M191.78 107.78L189.726 110.018L191.215 112.67L188.455 111.399L186.39 113.637L186.737 110.616L183.977 109.345L186.955 108.747L187.313 105.726L188.802 108.377L191.78 107.78Z" fill="#3266B1" stroke="#263238" stroke-width="0.540812" stroke-linecap="round" stroke-linejoin="round"/>
<path d="M93.3222 58.018C101.791 58.018 108.656 51.2307 108.656 42.8581C108.656 34.4856 101.791 27.6982 93.3222 27.6982C84.8536 27.6982 77.9884 34.4856 77.9884 42.8581C77.9884 51.2307 84.8536 58.018 93.3222 58.018Z" fill="#ADADAD" stroke="#263238" stroke-width="1.08162" stroke-linecap="round" stroke-linejoin="round"/>
<path d="M160.145 53.8779C168.614 53.8779 175.479 47.0906 175.479 38.718C175.479 30.3454 168.614 23.5581 160.145 23.5581C151.676 23.5581 144.811 30.3454 144.811 38.718C144.811 47.0906 151.676 53.8779 160.145 53.8779Z" fill="#ADADAD" stroke="#263238" stroke-width="1.08162" stroke-linecap="round" stroke-linejoin="round"/>
<path d="M129.314 89.0118C139.968 89.0118 148.604 80.76 148.604 70.5809C148.604 60.4017 139.968 52.1499 129.314 52.1499C118.661 52.1499 110.025 60.4017 110.025 70.5809C110.025 80.76 118.661 89.0118 129.314 89.0118Z" fill="#3266B1" stroke="#263238" stroke-width="1.08162" stroke-linecap="round" stroke-linejoin="round"/>
<path d="M115.198 61.1154L117.86 72.8086C118.656 75.7069 120.45 78.2308 122.925 79.9349C125.401 81.639 128.399 82.4136 131.39 82.1219C134.38 81.8318 137.171 80.4971 139.274 78.3525C141.377 76.2079 142.656 73.3907 142.888 70.3961L143.79 58.7029L115.198 61.1154Z" fill="#263238" stroke="#263238" stroke-width="1.08162" stroke-linecap="round" stroke-linejoin="round"/>
<path d="M97.6254 11.854L90.3987 40.7937L162.384 34.9362L151.712 7.37671L97.6254 11.854Z" fill="white" stroke="#263238" stroke-width="1.08162" stroke-linecap="round" stroke-linejoin="round"/>
<path d="M90.3987 40.7935L103.135 72.4826L159.634 66.9729L162.384 34.936L90.3987 40.7935Z" fill="#E5E5E5" stroke="#263238" stroke-width="1.08162" stroke-linecap="round" stroke-linejoin="round"/>
<path d="M122.772 53.7152C122.577 58.2143 118.643 61.757 113.937 62.1157C109.232 62.4743 104.624 59.5292 103.613 55.0736C102.526 49.966 106.341 44.9453 112.372 44.5649C118.404 44.1846 122.979 48.5859 122.772 53.7152Z" fill="#3266B1" stroke="#263238" stroke-width="1.08162" stroke-linecap="round" stroke-linejoin="round"/>
<path d="M119.175 53.9651C119.116 55.3873 118.525 56.7355 117.519 57.7421C116.512 58.7486 115.164 59.3399 113.742 59.3987C112.298 59.5548 110.847 59.175 109.665 58.3315C108.483 57.488 107.652 56.2396 107.33 54.8236C106.797 51.7373 109.221 48.8357 112.763 48.5966C113.54 48.5097 114.327 48.5813 115.075 48.8069C115.823 49.0326 116.518 49.4076 117.118 49.9094C117.717 50.4112 118.208 51.0294 118.562 51.7264C118.916 52.4235 119.124 53.1851 119.175 53.9651Z" fill="white" stroke="#263238" stroke-width="1.08162" stroke-linecap="round" stroke-linejoin="round"/>
<path d="M154.798 50.6176C154.614 55.1167 150.68 58.6594 145.974 59.0181C141.269 59.3767 136.65 56.4317 135.65 51.9652C134.509 46.8684 138.378 41.8477 144.409 41.4565C150.441 41.0653 155.016 45.4883 154.798 50.6176Z" fill="#3266B1" stroke="#263238" stroke-width="1.08162" stroke-linecap="round" stroke-linejoin="round"/>
<path d="M151.202 50.8674C151.145 52.2905 150.555 53.6401 149.548 54.6472C148.541 55.6542 147.191 56.2448 145.768 56.3011C144.323 56.4543 142.872 56.072 141.69 55.2267C140.509 54.3814 139.678 53.1319 139.356 51.7151C138.824 48.6287 141.247 45.738 144.79 45.499C145.567 45.4089 146.355 45.4782 147.104 45.7026C147.854 45.927 148.55 46.3019 149.15 46.8043C149.75 47.3066 150.242 47.926 150.594 48.6246C150.947 49.3232 151.154 50.0863 151.202 50.8674Z" fill="white" stroke="#263238" stroke-width="1.08162" stroke-linecap="round" stroke-linejoin="round"/>
<path d="M123.12 66.7778C122.458 66.7846 121.819 66.535 121.336 66.0814C120.854 65.6277 120.566 65.005 120.532 64.3437C120.498 63.6824 120.722 63.0337 121.156 62.5333C121.589 62.033 122.2 61.7198 122.859 61.6593L136.639 60.2791C137.316 60.2114 137.993 60.4155 138.52 60.8465C139.046 61.2776 139.38 61.9002 139.448 62.5775C139.516 63.2549 139.312 63.9313 138.881 64.4582C138.45 64.985 137.827 65.319 137.15 65.3867L123.424 66.7669L123.12 66.7778Z" fill="#263238" stroke="#263238" stroke-width="1.08162" stroke-linecap="round" stroke-linejoin="round"/>
<path d="M98.9513 26.0903C101.826 26.0903 104.157 23.7598 104.157 20.8849C104.157 18.01 101.826 15.6794 98.9513 15.6794C96.0764 15.6794 93.7458 18.01 93.7458 20.8849C93.7458 23.7598 96.0764 26.0903 98.9513 26.0903Z" fill="#3266B1" stroke="#263238" stroke-width="1.08162" stroke-linecap="round" stroke-linejoin="round"/>
<path d="M95.7344 22.2972C98.1892 22.2972 100.179 20.3072 100.179 17.8525C100.179 15.3977 98.1892 13.4077 95.7344 13.4077C93.2797 13.4077 91.2897 15.3977 91.2897 17.8525C91.2897 20.3072 93.2797 22.2972 95.7344 22.2972Z" fill="#3266B1" stroke="#263238" stroke-width="1.08162" stroke-linecap="round" stroke-linejoin="round"/>
<path d="M94.876 13.1256C94.8738 13.8172 94.6668 14.4927 94.281 15.0667C93.8952 15.6408 93.3479 16.0876 92.7083 16.3508C92.0687 16.614 91.3655 16.6817 90.6874 16.5455C90.0093 16.4092 89.3868 16.0751 88.8985 15.5853C88.4102 15.0955 88.078 14.4719 87.9439 13.7934C87.8098 13.1149 87.8797 12.4119 88.1448 11.7731C88.41 11.1344 88.8585 10.5885 89.4337 10.2045C90.009 9.82043 90.6851 9.61548 91.3767 9.61548C91.8371 9.61548 92.2931 9.70635 92.7183 9.88288C93.1436 10.0594 93.5298 10.3181 93.8549 10.6442C94.18 10.9703 94.4375 11.3574 94.6127 11.7832C94.7879 12.209 94.8774 12.6652 94.876 13.1256Z" fill="#3266B1" stroke="#263238" stroke-width="1.08162" stroke-linecap="round" stroke-linejoin="round"/>
<path d="M90.5292 11.8978L82.5743 4.50806" stroke="#263238" stroke-width="1.08162" stroke-linecap="round" stroke-linejoin="round"/>
<path d="M150.071 22.4932C152.946 22.4932 155.276 20.1626 155.276 17.2877C155.276 14.4128 152.946 12.0823 150.071 12.0823C147.196 12.0823 144.866 14.4128 144.866 17.2877C144.866 20.1626 147.196 22.4932 150.071 22.4932Z" fill="#3266B1" stroke="#263238" stroke-width="1.08162" stroke-linecap="round" stroke-linejoin="round"/>
<path d="M153.288 18.7005C155.743 18.7005 157.733 16.7105 157.733 14.2558C157.733 11.801 155.743 9.81104 153.288 9.81104C150.833 9.81104 148.843 11.801 148.843 14.2558C148.843 16.7105 150.833 18.7005 153.288 18.7005Z" fill="#3266B1" stroke="#263238" stroke-width="1.08162" stroke-linecap="round" stroke-linejoin="round"/>
<path d="M154.146 9.5282C154.148 10.2198 154.355 10.8953 154.741 11.4693C155.127 12.0433 155.674 12.4902 156.314 12.7534C156.954 13.0165 157.657 13.0843 158.335 12.948C159.013 12.8118 159.635 12.4777 160.124 11.9879C160.612 11.498 160.944 10.8745 161.078 10.196C161.212 9.51752 161.143 8.8145 160.877 8.17573C160.612 7.53695 160.164 6.99108 159.589 6.60705C159.013 6.22302 158.337 6.01807 157.646 6.01807C157.185 6.01806 156.729 6.10892 156.304 6.28545C155.879 6.46199 155.492 6.72072 155.167 7.04681C154.842 7.3729 154.585 7.75994 154.41 8.18574C154.234 8.61155 154.145 9.06776 154.146 9.5282Z" fill="#3266B1" stroke="#263238" stroke-width="1.08162" stroke-linecap="round" stroke-linejoin="round"/>
<path d="M158.493 8.28956L166.448 0.910645" stroke="#263238" stroke-width="1.08162" stroke-linecap="round" stroke-linejoin="round"/>
<path d="M146.844 199.435C146.844 201.945 145.181 203.977 143.127 203.977C141.073 203.977 139.421 201.945 139.421 199.435C139.421 196.924 141.084 194.892 143.127 194.892C145.17 194.892 146.844 196.924 146.844 199.435Z" fill="white" stroke="#263238" stroke-width="1.08162" stroke-linecap="round" stroke-linejoin="round"/>
<path d="M154.19 203.238H153.907L143.594 201.728C143.106 201.636 142.673 201.359 142.384 200.955C142.096 200.551 141.975 200.051 142.046 199.56C142.118 199.069 142.377 198.625 142.768 198.32C143.16 198.015 143.654 197.873 144.148 197.924L154.461 199.424C154.961 199.472 155.421 199.714 155.745 200.097C156.069 200.48 156.23 200.974 156.195 201.474C156.16 201.975 155.93 202.442 155.555 202.775C155.181 203.109 154.691 203.283 154.19 203.26V203.238Z" fill="white" stroke="#263238" stroke-width="1.08162" stroke-miterlimit="10"/>
<path d="M10.0564 220.67C8.70884 218.551 8.96968 215.942 10.7519 214.856C12.5342 213.769 14.9684 214.584 16.316 216.692C17.6635 218.801 17.3484 221.42 15.6096 222.517C13.8708 223.615 11.3931 222.789 10.0564 220.67Z" fill="white" stroke="#263238" stroke-width="1.08162" stroke-linecap="round" stroke-linejoin="round"/>
<path d="M1.80833 221.397C1.88814 221.348 1.97172 221.304 2.05829 221.267L11.5781 217.018C12.039 216.837 12.552 216.84 13.0103 217.028C13.4687 217.215 13.837 217.572 14.0387 218.025C14.2404 218.477 14.2598 218.99 14.0929 219.456C13.9261 219.922 13.5858 220.306 13.1429 220.528L3.62317 224.777C3.17972 224.974 2.67829 224.996 2.21934 224.839C1.76039 224.681 1.37783 224.356 1.14831 223.929C0.918788 223.502 0.859258 223.003 0.981657 222.534C1.10406 222.064 1.39933 221.658 1.80833 221.397Z" fill="white" stroke="#263238" stroke-width="1.08162" stroke-miterlimit="10"/>
<path d="M256.343 171.984C254.995 169.865 255.31 167.267 257.038 166.17C258.766 165.072 261.255 165.898 262.602 168.006C263.95 170.114 263.634 172.733 261.907 173.831C260.179 174.929 257.679 174.103 256.343 171.984Z" fill="white" stroke="#263238" stroke-width="1.08162" stroke-linecap="round" stroke-linejoin="round"/>
<path d="M248.105 172.723L248.344 172.593L257.864 168.344C258.096 168.227 258.35 168.159 258.609 168.144C258.869 168.128 259.129 168.165 259.373 168.253C259.618 168.34 259.842 168.476 260.033 168.653C260.223 168.83 260.376 169.043 260.482 169.28C260.588 169.518 260.644 169.774 260.648 170.034C260.652 170.294 260.604 170.552 260.505 170.792C260.407 171.033 260.261 171.251 260.076 171.433C259.891 171.616 259.671 171.759 259.429 171.854L249.92 176.103C249.477 176.3 248.975 176.322 248.516 176.164C248.057 176.007 247.675 175.682 247.445 175.255C247.216 174.827 247.156 174.329 247.279 173.859C247.401 173.39 247.696 172.984 248.105 172.723Z" fill="white" stroke="#263238" stroke-width="1.08162" stroke-miterlimit="10"/>
<path d="M72.5439 222.713C68.197 222.713 64.6978 224.799 64.6978 227.364C64.6978 229.929 68.2079 232.015 72.5439 232.015C76.88 232.015 80.401 229.929 80.401 227.364C80.401 224.799 76.88 222.713 72.5439 222.713ZM72.5439 229.766C70.3053 229.766 68.4904 228.679 68.4904 227.364C68.4904 226.049 70.3053 224.962 72.5439 224.962C74.7826 224.962 76.6083 226.049 76.6083 227.364C76.6083 228.679 74.7935 229.766 72.5439 229.766Z" fill="white" stroke="#263238" stroke-width="1.08162" stroke-miterlimit="10"/>
<path d="M143.268 223.463L137.91 221.289L132.542 223.463L131.216 228.244L134.933 232.08H140.888L144.594 228.244L143.268 223.463ZM139.421 229.57H136.4L134.509 227.625L135.183 225.201L137.91 224.115L140.627 225.201L141.301 227.625L139.421 229.57Z" fill="white" stroke="#263238" stroke-width="1.08162" stroke-linecap="round" stroke-linejoin="round"/>
<path d="M244.943 154.031L239.575 151.857L234.206 154.031L232.88 158.823L236.597 162.66H242.552L246.269 158.823L244.943 154.031ZM241.085 160.149H238.064L236.184 158.204L236.847 155.77L239.575 154.683L242.302 155.77L242.976 158.204L241.085 160.149Z" fill="white" stroke="#263238" stroke-width="1.08162" stroke-linecap="round" stroke-linejoin="round"/>
<path d="M179.141 234.373C178.989 234.374 178.839 234.348 178.696 234.297C177.966 233.989 177.35 233.461 176.935 232.787C176.337 231.863 175.848 230.222 176.794 227.679C177.125 226.749 177.68 225.914 178.409 225.249C179.139 224.584 180.021 224.109 180.978 223.865C182.205 223.568 183.485 223.56 184.716 223.841C185.947 224.121 187.097 224.684 188.074 225.484C188.205 225.59 188.314 225.721 188.393 225.87C188.473 226.019 188.523 226.182 188.539 226.349C188.555 226.517 188.538 226.687 188.488 226.848C188.438 227.009 188.356 227.158 188.248 227.288C188.032 227.55 187.72 227.715 187.382 227.748C187.044 227.781 186.706 227.678 186.444 227.462C185.777 226.93 184.999 226.556 184.167 226.368C183.335 226.179 182.471 226.182 181.641 226.375C181.079 226.52 180.563 226.801 180.136 227.193C179.709 227.586 179.386 228.077 179.195 228.624C178.228 231.178 179.391 231.885 179.63 231.95C179.936 232.086 180.177 232.335 180.305 232.644C180.432 232.954 180.436 233.301 180.315 233.613C180.216 233.841 180.052 234.035 179.843 234.171C179.634 234.306 179.39 234.377 179.141 234.373Z" fill="white" stroke="#263238" stroke-width="1.08162" stroke-linecap="round" stroke-linejoin="round"/>
<path d="M205.635 239.09C205.23 239.091 204.826 239.029 204.44 238.905L183.586 232.113C183.093 231.967 182.634 231.724 182.236 231.398C181.839 231.072 181.511 230.67 181.271 230.215C181.032 229.76 180.886 229.262 180.842 228.75C180.799 228.238 180.858 227.722 181.017 227.233C181.176 226.744 181.432 226.292 181.769 225.904C182.105 225.515 182.516 225.198 182.978 224.971C183.439 224.745 183.941 224.612 184.454 224.583C184.967 224.553 185.481 224.627 185.966 224.799L206.831 231.591C207.697 231.878 208.433 232.464 208.907 233.244C209.381 234.024 209.563 234.947 209.419 235.848C209.275 236.75 208.816 237.57 208.123 238.164C207.43 238.758 206.548 239.086 205.635 239.09Z" fill="white" stroke="#263238" stroke-width="1.08162" stroke-linecap="round" stroke-linejoin="round"/>
<path d="M182.955 231.939C182.955 231.939 183.781 226.636 190.41 226.505" stroke="#263238" stroke-width="1.08162" stroke-linecap="round" stroke-linejoin="round"/>
<path d="M187.422 233.091C187.422 233.091 188.259 227.798 194.877 227.657" stroke="#263238" stroke-width="1.08162" stroke-linecap="round" stroke-linejoin="round"/>
<path d="M191.399 234.579C191.399 234.579 192.225 229.287 198.844 229.146" stroke="#263238" stroke-width="1.08162" stroke-linecap="round" stroke-linejoin="round"/>
<path d="M195.54 235.753C195.54 235.753 196.366 230.461 202.984 230.32" stroke="#263238" stroke-width="1.08162" stroke-linecap="round" stroke-linejoin="round"/>
<path d="M199.68 237.232C199.68 237.232 200.506 231.939 207.124 231.798" stroke="#263238" stroke-width="1.08162" stroke-linecap="round" stroke-linejoin="round"/>
<path d="M205.625 239.014C205.476 239.011 205.329 238.982 205.19 238.927C204.456 238.626 203.836 238.101 203.419 237.427C202.821 236.503 202.332 234.862 203.278 232.309C203.612 231.38 204.168 230.548 204.897 229.883C205.626 229.218 206.506 228.742 207.461 228.494C208.69 228.199 209.97 228.192 211.201 228.475C212.432 228.758 213.581 229.323 214.558 230.124C214.689 230.231 214.797 230.362 214.877 230.51C214.957 230.659 215.006 230.822 215.023 230.99C215.039 231.158 215.021 231.327 214.971 231.488C214.921 231.649 214.84 231.799 214.732 231.928C214.515 232.19 214.204 232.356 213.866 232.388C213.527 232.421 213.19 232.318 212.928 232.102C212.261 231.57 211.483 231.195 210.651 231.007C209.819 230.819 208.955 230.822 208.124 231.015C207.563 231.156 207.046 231.435 206.619 231.826C206.192 232.217 205.869 232.707 205.679 233.254C204.712 235.819 205.875 236.514 206.114 236.579C206.384 236.697 206.605 236.904 206.742 237.165C206.878 237.426 206.921 237.726 206.864 238.015C206.807 238.304 206.653 238.565 206.428 238.754C206.203 238.944 205.919 239.051 205.625 239.057V239.014Z" fill="white" stroke="#263238" stroke-width="1.08162" stroke-linecap="round" stroke-linejoin="round"/>
</svg>
