<svg width="335" height="249" viewBox="0 0 335 249" fill="none" xmlns="http://www.w3.org/2000/svg">
<path d="M123.628 227.34C123.628 227.34 123.198 229.272 118.282 231.835C113.366 234.398 107.81 238.032 110.583 239.525C113.357 241.017 123.198 237.602 125.981 235.039C128.764 232.476 131.959 230.975 131.959 228.842C131.959 226.709 129.395 225.418 127.262 225.418C126.534 225.338 125.798 225.478 125.15 225.821C124.502 226.164 123.972 226.693 123.628 227.34Z" fill="#263238" stroke="#263238" stroke-linecap="round" stroke-linejoin="round"/>
<path d="M127.903 217.088C126.622 220.933 123.198 223.065 123.198 224.136C123.266 225.213 123.41 226.284 123.628 227.34C125.163 228.221 126.82 228.872 128.544 229.272C130.897 229.693 131.959 228.842 131.959 228.842C131.959 228.842 134.531 226.919 135.172 226.279C135.813 225.638 137.524 224.567 137.305 222.425C137.085 220.283 136.234 219.431 137.094 217.509C137.955 215.586 156.117 186.092 156.117 186.092L141.159 180.315C141.159 180.315 129.185 213.234 127.903 217.088Z" fill="#263238" stroke="#263238" stroke-linecap="round" stroke-linejoin="round"/>
<path d="M199.507 230.764C199.507 230.764 212.973 236.961 213.193 238.463C213.413 239.964 203.783 240.165 199.507 239.744C195.232 239.323 192.459 235.68 192.459 235.68C192.459 235.68 193.951 230.123 199.507 230.764Z" fill="#263238" stroke="#263238" stroke-linecap="round" stroke-linejoin="round"/>
<path d="M179.844 180.745C179.844 180.745 185.401 215.376 187.543 222.004C189.685 228.631 186.893 227.981 187.964 229.913C189.321 231.942 190.823 233.869 192.459 235.68C192.459 235.68 196.304 232.256 198.015 232.018C199.727 231.78 201.009 231.588 201.009 231.588C201.009 231.588 200.148 227.313 199.508 226.462C198.867 225.61 198.436 222.617 197.796 220.264C197.155 217.912 196.093 179.006 196.093 179.006C196.093 179.006 184.33 181.176 179.844 180.745Z" fill="#263238" stroke="#263238" stroke-linecap="round" stroke-linejoin="round"/>
<path d="M157.398 35.6051C154.466 37.6927 151.68 39.9773 149.059 42.4433C143.932 47.1486 135.382 53.9868 134.952 55.4881C134.522 56.9894 140.728 84.983 143.081 93.9358C145.434 102.889 146.074 144.165 143.081 158.272C141.146 167.163 138.501 175.884 135.172 184.352C141.757 188.867 149.632 191.116 157.609 190.76C170.864 190.11 176.833 186.485 183.479 187.098C190.124 187.712 197.585 187.52 201.009 183.034C204.433 178.548 208.058 176.837 210.163 174.054C211.457 172.316 212.2 170.231 212.296 168.067C212.296 168.067 210.374 160.798 203.316 137.931C196.258 115.064 196.267 84.4887 194.985 78.0807C193.704 71.6727 190.71 52.22 187.717 46.8739C184.724 41.5279 172.594 37.5275 166.589 36.4656C160.584 35.4037 159.54 34.534 157.398 35.6051Z" fill="#3266B1"/>
<path d="M157.398 35.6051C154.466 37.6927 151.68 39.9773 149.059 42.4433C143.932 47.1486 135.382 53.9868 134.952 55.4881C134.522 56.9894 140.728 84.983 143.081 93.9358C145.434 102.889 146.074 144.165 143.081 158.272C141.146 167.163 138.501 175.884 135.172 184.352C141.757 188.867 149.632 191.116 157.609 190.76C170.864 190.11 176.833 186.485 183.479 187.098C190.124 187.712 197.585 187.52 201.009 183.034C204.433 178.548 208.058 176.837 210.163 174.054C211.457 172.316 212.2 170.231 212.296 168.067C212.296 168.067 210.374 160.798 203.316 137.931C196.258 115.064 196.267 84.4887 194.985 78.0807C193.704 71.6727 190.71 52.22 187.717 46.8739C184.724 41.5279 172.594 37.5275 166.589 36.4656C160.584 35.4037 159.54 34.534 157.398 35.6051Z" stroke="#263238" stroke-linecap="round" stroke-linejoin="round"/>
<path d="M158.451 59.4701L170.562 76.5244L177.666 54.9479C177.666 54.9479 177.171 45.6472 173.564 42.3883C169.958 39.1294 165.93 34.3143 159.906 38.5619C153.883 42.8094 154.991 48.3935 155.265 51.3778C155.54 54.3621 158.451 59.4701 158.451 59.4701Z" fill="white" stroke="#263238" stroke-miterlimit="10"/>
<path d="M162.909 52.76L166.461 56.8611L165.646 69.4299L170.562 76.5244L173.839 67.5166L169.463 56.8611L170.013 50.3067L165.646 46.4802L162.909 52.76Z" fill="#263238" stroke="#263238" stroke-miterlimit="10"/>
<path d="M166.122 51.213L158.451 59.4518C158.451 59.4518 154.469 47.0661 153.874 42.7911C153.279 38.5161 154.606 37.6281 156.821 36.3007C159.037 34.9734 162.515 35.5409 165.225 36.1543C167.935 36.7676 169.363 37.921 169.948 39.1019C170.534 40.2828 176.878 55.7718 176.878 55.7718L166.122 51.213Z" fill="white" stroke="#263238" stroke-miterlimit="10"/>
<path d="M170.617 73.8423C175.661 99.6297 181.776 143.762 176.063 187.227" stroke="#263238" stroke-miterlimit="10"/>
<path d="M175.029 84.7817C175.732 84.7817 176.301 84.212 176.301 83.5092C176.301 82.8065 175.732 82.2368 175.029 82.2368C174.326 82.2368 173.757 82.8065 173.757 83.5092C173.757 84.212 174.326 84.7817 175.029 84.7817Z" fill="#263238"/>
<path d="M178.682 113.608C179.384 113.608 179.954 113.039 179.954 112.336C179.954 111.633 179.384 111.063 178.682 111.063C177.979 111.063 177.409 111.633 177.409 112.336C177.409 113.039 177.979 113.608 178.682 113.608Z" fill="#263238"/>
<path d="M153.013 29.7647C153.013 29.7647 155.293 34.5523 155.512 37.4908C155.732 40.4293 162.918 51.094 165.417 51.094C167.916 51.094 167.816 43.0383 167.486 39.4498C167.157 35.8614 168.136 33.8932 168.466 33.463C168.795 33.0327 163.888 31.7237 160.849 29.4351C157.81 27.1466 155.293 26.817 154.093 27.2564C152.894 27.6958 153.013 29.7647 153.013 29.7647Z" fill="white"/>
<path d="M160.849 29.4351C157.801 27.1466 155.293 26.817 154.093 27.2564C152.894 27.6958 153.013 29.7647 153.013 29.7647C153.013 29.7647 155.293 34.5523 155.512 37.4908C155.509 37.5243 155.509 37.558 155.512 37.5915C157.559 38.3213 159.697 38.7619 161.865 38.9006C163.728 39.0616 165.604 38.9226 167.422 38.4886C167.33 35.5135 168.154 33.8566 168.447 33.463C168.74 33.0693 163.898 31.7328 160.849 29.4351Z" fill="#3266B1"/>
<path opacity="0.5" d="M160.849 29.4351C157.801 27.1466 155.293 26.817 154.093 27.2564C152.894 27.6958 153.013 29.7647 153.013 29.7647C153.013 29.7647 155.293 34.5523 155.512 37.4908C155.509 37.5243 155.509 37.558 155.512 37.5915C157.559 38.3213 159.697 38.7619 161.865 38.9006C163.728 39.0616 165.604 38.9226 167.422 38.4886C167.33 35.5135 168.154 33.8566 168.447 33.463C168.74 33.0693 163.898 31.7328 160.849 29.4351Z" fill="white"/>
<path d="M153.013 29.7647C153.013 29.7647 155.293 34.5523 155.512 37.4908C155.732 40.4293 162.918 51.094 165.417 51.094C167.916 51.094 167.816 43.0383 167.486 39.4498C167.157 35.8614 168.136 33.8932 168.466 33.463C168.795 33.0327 163.888 31.7237 160.849 29.4351C157.81 27.1466 155.293 26.817 154.093 27.2564C152.894 27.6958 153.013 29.7647 153.013 29.7647Z" stroke="#263238" stroke-linecap="round" stroke-linejoin="round"/>
<path d="M148.006 26.817C148.006 26.817 151.594 30.5245 153.553 30.9547C155.512 31.385 156.931 29.8654 156.162 28.3458C155.393 26.8262 155.842 24.5376 158.121 24.858C160.401 25.1784 162.259 23.2285 161.499 20.6196C160.739 18.0106 159.54 15.5024 156.712 16.0425C153.883 16.5826 145.278 21.9195 148.006 26.817Z" fill="#263238" stroke="#263238" stroke-linecap="round" stroke-linejoin="round"/>
<path d="M171.734 12.3442C171.734 12.3442 173.473 16.1524 175.102 17.6811C176.732 19.2099 178.151 18.8712 177.611 20.0704C177.07 21.2696 174.672 22.8167 174.672 22.8167C174.672 22.8167 174.892 28.2543 174.672 30.8632C174.452 33.4722 174.672 34.2411 172.274 34.6805C168.981 35.0992 165.637 34.716 162.524 33.5637C160.416 32.8847 158.632 31.4502 157.517 29.5359C156.49 29.5714 155.464 29.4604 154.469 29.2063C152.4 28.7761 150.661 24.4187 151.86 22.7984C152.38 22.1365 153.14 21.7072 153.975 21.6043C154.811 21.5014 155.653 21.7332 156.318 22.2491C157.087 23.1645 157.956 23.9884 158.606 23.9884C159.256 23.9884 160.565 23.4483 159.806 22.0294C159.046 20.6105 158.167 19.4204 159.366 18.4409C160.565 17.4614 169.775 12.2344 171.734 12.3442Z" fill="white"/>
<path d="M171.734 12.3442C169.775 12.2344 160.52 17.4614 159.321 18.4409C158.121 19.4204 159 20.6196 159.76 22.0294C160.52 23.4391 159.211 23.9884 158.561 23.9884C157.911 23.9884 157.041 23.1188 156.272 22.2491C155.607 21.7332 154.765 21.5014 153.93 21.6043C153.095 21.7072 152.334 22.1365 151.814 22.7984C150.615 24.4278 152.354 28.7852 154.423 29.2063C154.661 29.2612 154.89 29.2979 155.1 29.3345C160.827 24.2254 167.19 19.8777 174.031 16.3996C173.161 15.1097 172.393 13.7538 171.734 12.3442Z" fill="#3266B1"/>
<path opacity="0.5" d="M171.734 12.3442C169.775 12.2344 160.52 17.4614 159.321 18.4409C158.121 19.4204 159 20.6196 159.76 22.0294C160.52 23.4391 159.211 23.9884 158.561 23.9884C157.911 23.9884 157.041 23.1188 156.272 22.2491C155.607 21.7332 154.765 21.5014 153.93 21.6043C153.095 21.7072 152.334 22.1365 151.814 22.7984C150.615 24.4278 152.354 28.7852 154.423 29.2063C154.661 29.2612 154.89 29.2979 155.1 29.3345C160.827 24.2254 167.19 19.8777 174.031 16.3996C173.161 15.1097 172.393 13.7538 171.734 12.3442Z" fill="white"/>
<path d="M171.734 12.3442C171.734 12.3442 173.473 16.1524 175.102 17.6811C176.732 19.2099 178.151 18.8712 177.611 20.0704C177.07 21.2696 174.672 22.8167 174.672 22.8167C174.672 22.8167 174.892 28.2543 174.672 30.8632C174.452 33.4722 174.672 34.2411 172.274 34.6805C168.981 35.0992 165.637 34.716 162.524 33.5637C160.416 32.8847 158.632 31.4502 157.517 29.5359C156.49 29.5714 155.464 29.4604 154.469 29.2063C152.4 28.7761 150.661 24.4187 151.86 22.7984C152.38 22.1365 153.14 21.7072 153.975 21.6043C154.811 21.5014 155.653 21.7332 156.318 22.2491C157.087 23.1645 157.956 23.9884 158.606 23.9884C159.256 23.9884 160.565 23.4483 159.806 22.0294C159.046 20.6105 158.167 19.4204 159.366 18.4409C160.565 17.4614 169.775 12.2344 171.734 12.3442Z" stroke="#263238" stroke-linecap="round" stroke-linejoin="round"/>
<path d="M174.672 22.7984C173.692 22.994 172.76 23.3828 171.932 23.9424C171.104 24.5019 170.395 25.2209 169.848 26.0573C168.127 28.8036 169.848 29.2704 170.919 28.6205C171.99 27.9705 173.912 26.4876 174.983 25.8742C176.054 25.2609 176.32 22.5787 174.672 22.7984Z" fill="#263238" stroke="#263238" stroke-linecap="round" stroke-linejoin="round"/>
<path d="M170.134 19.6281C170.469 19.5003 170.5 18.7648 170.204 17.9852C169.907 17.2057 169.394 16.6773 169.059 16.805C168.723 16.9328 168.692 17.6683 168.989 18.4479C169.286 19.2275 169.798 19.7559 170.134 19.6281Z" fill="#263238"/>
<path d="M166.36 16.0332C166.939 15.6365 167.608 15.3895 168.306 15.3144C169.004 15.2393 169.71 15.3385 170.361 15.603" stroke="#263238" stroke-linecap="round" stroke-linejoin="round"/>
<path d="M144.216 34.9826C146.446 30.4786 149.389 26.3642 152.931 22.7983C158.918 16.7016 181.309 10.3852 182.536 8.64588C183.762 6.90658 172.191 9.73524 172.191 9.73524C172.191 9.73524 165.445 1.56966 155.65 1.02041C145.855 0.471156 143.026 11.145 142.916 16.4819C142.806 21.8188 145.525 28.0162 145.525 28.0162C145.525 28.0162 142.449 35.8523 144.216 34.9826Z" fill="#3266B1"/>
<path d="M144.216 34.9826C146.446 30.4786 149.389 26.3642 152.931 22.7983C158.918 16.7016 181.309 10.3852 182.536 8.64588C183.762 6.90658 172.191 9.73524 172.191 9.73524C172.191 9.73524 165.445 1.56966 155.65 1.02041C145.855 0.471156 143.026 11.145 142.916 16.4819C142.806 21.8188 145.525 28.0162 145.525 28.0162C145.525 28.0162 142.449 35.8523 144.216 34.9826Z" stroke="#263238" stroke-linecap="round" stroke-linejoin="round"/>
<path d="M145.498 28.0163C145.498 28.0163 142.449 35.8523 144.189 34.9827C146.419 30.4787 149.362 26.3643 152.903 22.7984C158.89 16.7017 181.282 10.3853 182.508 8.64597C183.735 6.90667 172.164 9.73533 172.164 9.73533C172.164 9.73533 164.438 13.7632 158.021 17.9741C153.602 21.0045 149.416 24.3612 145.498 28.0163Z" fill="#3266B1" stroke="#263238" stroke-linecap="round" stroke-linejoin="round"/>
<path d="M148.326 3.41895C148.326 3.41895 148.436 13.9738 156.272 19.3107" stroke="#263238" stroke-linecap="round" stroke-linejoin="round"/>
<path d="M145.754 104.967L149.086 105.882C149.086 105.882 154.844 101.863 155.494 101.744C156.144 101.625 161.591 104.738 163.321 106.12C165.051 107.502 167.23 108.994 166.653 109.452C166.076 109.91 164.822 109.333 164.008 108.875C163.193 108.418 158.259 106.001 158.259 106.001C158.259 106.001 161.92 108.418 163.202 109.452C164.484 110.487 166.305 111.063 165.848 111.64C165.739 111.819 165.595 111.974 165.423 112.095C165.252 112.217 165.058 112.301 164.853 112.344C164.648 112.387 164.436 112.387 164.231 112.345C164.025 112.303 163.831 112.218 163.66 112.098C162.515 111.521 156.648 108.189 156.648 108.189C156.648 108.189 161.591 111.521 162.515 112.327C163.44 113.132 163.431 114.286 162.396 114.286C161.362 114.286 158.488 112.784 157.453 112.217C156.419 111.649 153.425 110.139 153.425 110.139C154.711 111.552 155.901 113.051 156.986 114.624C157.682 115.897 158.716 117.508 157.563 117.508C156.41 117.508 154.817 114.862 154.002 113.938C153.187 113.013 150.203 111.979 150.203 111.979C148.807 112.638 147.343 113.141 145.836 113.48C143.877 113.819 139.969 109.681 139.969 109.681L145.754 104.967Z" fill="white" stroke="#263238" stroke-linecap="round" stroke-linejoin="round"/>
<path d="M149.086 105.919L146.239 109.342" stroke="#263238" stroke-linecap="round" stroke-linejoin="round"/>
<path d="M156.684 108.225L154.844 107.127" stroke="#263238" stroke-linecap="round" stroke-linejoin="round"/>
<path d="M158.295 106.038L156.226 104.903" stroke="#263238" stroke-linecap="round" stroke-linejoin="round"/>
<path d="M119.564 66.812C119.564 66.812 105.887 78.1449 105.668 78.9963C105.448 79.8476 140.298 112.135 140.298 112.135L146.706 105.077L127.683 79.637L142.22 70.4828C142.22 70.4828 143.502 63.4341 141.369 59.3696C140.709 58.1652 139.793 57.1199 138.686 56.307C137.579 55.4942 136.308 54.9335 134.961 54.6643L119.564 66.812Z" fill="#3266B1"/>
<path d="M119.564 66.812C119.564 66.812 105.887 78.1449 105.668 78.9962C105.448 79.8476 140.298 112.135 140.298 112.135L146.706 105.077L127.683 79.637L142.22 70.4828C142.22 70.4828 143.502 63.4341 141.369 59.3696C140.709 58.1652 139.793 57.1199 138.686 56.307C137.579 55.4942 136.308 54.9335 134.961 54.6643L119.564 66.812Z" stroke="#263238" stroke-linecap="round" stroke-linejoin="round"/>
<path d="M215.115 66.3542C215.115 66.3542 201.778 58.7561 196.249 53.3551C190.719 47.9542 188.431 45.4184 187.854 47.4873C187.277 49.5562 192.688 76.7808 193.722 77.2752C194.756 77.7695 216.608 85.5597 220.983 85.7886C225.359 86.0174 228.307 86.3653 228.81 84.4154C229.314 82.4656 226.064 76.4787 222.018 71.7552C217.972 67.0316 215.115 66.3542 215.115 66.3542Z" fill="#3266B1"/>
<path d="M215.115 66.3542C215.115 66.3542 201.778 58.7561 196.249 53.3551C190.719 47.9542 188.431 45.4184 187.854 47.4873C187.277 49.5562 192.688 76.7808 193.722 77.2752C194.756 77.7695 216.608 85.5597 220.983 85.7886C225.359 86.0174 228.307 86.3653 228.81 84.4154C229.314 82.4656 226.064 76.4787 222.018 71.7552C217.972 67.0316 215.115 66.3542 215.115 66.3542Z" stroke="#263238" stroke-linecap="round" stroke-linejoin="round"/>
<path d="M154.405 38.3881C154.405 38.3881 160.391 56.7698 162.955 69.3843C165.518 81.9988 166.616 93.7437 166.616 93.7437C166.616 93.7437 162.955 91.4002 153.15 90.5397C143.346 89.6792 138.833 88.1871 134.558 80.0673C130.283 71.9475 127.5 72.5883 123.225 71.3067C118.95 70.0251 117.669 67.645 117.669 67.645C117.669 67.645 152.912 38.1409 154.405 38.3881ZM167.953 36.7861C171.123 43.1331 173.703 49.7581 175.661 56.5775C178.993 68.0752 183.716 93.1945 183.716 93.1945C183.716 93.1945 191.882 92.279 194.299 87.0977C196.715 81.9165 196.825 79.9574 200.707 78.5843C204.588 77.2112 209.916 74.3276 210.374 70.6476C210.711 68.1614 211.209 65.6999 211.866 63.2784C211.866 63.2784 190.362 45.4551 187.021 43.1391C183.68 40.8231 168.877 35.8707 167.953 36.7861Z" fill="#3266B1"/>
<path d="M154.405 38.3881C154.405 38.3881 160.391 56.7698 162.955 69.3843C165.518 81.9988 166.616 93.7437 166.616 93.7437C166.616 93.7437 162.955 91.4002 153.15 90.5397C143.346 89.6792 138.833 88.1871 134.558 80.0673C130.283 71.9475 127.5 72.5883 123.225 71.3067C118.95 70.0251 117.669 67.645 117.669 67.645C117.669 67.645 152.912 38.1409 154.405 38.3881ZM167.953 36.7861C171.123 43.1331 173.703 49.7581 175.661 56.5775C178.993 68.0752 183.716 93.1945 183.716 93.1945C183.716 93.1945 191.882 92.279 194.299 87.0977C196.715 81.9164 196.825 79.9574 200.707 78.5843C204.588 77.2112 209.916 74.3276 210.374 70.6476C210.711 68.1614 211.209 65.6999 211.866 63.2784C211.866 63.2784 190.362 45.4551 187.021 43.1391C183.68 40.8231 168.877 35.8707 167.953 36.7861Z" stroke="#263238" stroke-linecap="round" stroke-linejoin="round"/>
<path d="M205.293 36.136C205.293 36.136 206.153 41.244 206.446 42.4615C206.739 43.6791 209.531 47.2126 209.531 47.2126L204.863 50.1603C203.752 48.1527 202.529 46.2089 201.201 44.3382C200.414 43.5417 196.459 42.5073 195.306 40.9511C194.152 39.3949 194.445 37.5732 194.152 36.4197C193.859 35.2663 191.205 31.9616 191.855 31.4582C192.504 30.9547 193.868 31.3849 194.509 32.1813C195.15 32.9778 195.159 34.122 195.425 34.6988C195.69 35.2755 199.233 37.445 199.233 37.445C199.233 37.445 197.649 32.9137 197.402 32.2729C197.342 32.0979 197.322 31.9119 197.342 31.728C197.362 31.5442 197.422 31.367 197.518 31.209C197.614 31.051 197.744 30.9159 197.898 30.8135C198.052 30.711 198.226 30.6436 198.409 30.616C199.123 30.616 202.364 33.7833 202.364 33.7833L205.293 36.136Z" stroke="#263238" stroke-linecap="round" stroke-linejoin="round"/>
<path d="M191.682 27.3809C194.499 25.973 194.702 20.6669 192.135 15.5292C189.568 10.3915 185.203 7.36794 182.385 8.7758C179.568 10.1837 179.365 15.4898 181.932 20.6275C184.499 25.7652 188.864 28.7888 191.682 27.3809Z" fill="white" stroke="#263238" stroke-linecap="round" stroke-linejoin="round"/>
<path d="M190.542 26.1628C192.477 25.1956 192.286 20.8882 190.114 16.542C187.943 12.1958 184.613 9.45658 182.677 10.4238C180.742 11.391 180.933 15.6983 183.105 20.0446C185.276 24.3908 188.606 27.13 190.542 26.1628Z" fill="white" stroke="#263238" stroke-linecap="round" stroke-linejoin="round"/>
<path d="M191.406 27.0185L199.489 39.1021C199.592 39.2576 199.725 39.3904 199.881 39.4924C200.037 39.5944 200.212 39.6634 200.395 39.6951C200.579 39.7269 200.767 39.7207 200.948 39.6769C201.129 39.6332 201.299 39.5528 201.448 39.4408C201.594 39.3318 201.717 39.1948 201.81 39.0377C201.903 38.8807 201.963 38.7068 201.988 38.5261C202.013 38.3455 202.001 38.1617 201.954 37.9855C201.907 37.8094 201.825 37.6444 201.714 37.5001L192.733 26.0573C192.683 25.9867 192.62 25.9268 192.546 25.8815C192.473 25.8361 192.391 25.8061 192.305 25.7932C192.219 25.7804 192.132 25.785 192.049 25.8068C191.965 25.8286 191.886 25.8671 191.818 25.92L191.516 26.1214C191.385 26.2275 191.3 26.3803 191.279 26.5477C191.259 26.7151 191.304 26.884 191.406 27.0185Z" fill="#263238" stroke="#263238" stroke-linecap="round" stroke-linejoin="round"/>
<path d="M197.311 28.7121C197.311 28.7121 194.912 30.195 195.022 31.0006C195.132 31.8062 195.48 32.1357 196.166 32.1357C196.853 32.1357 198.675 31.1105 199.361 30.7718C200.048 30.433 199.553 27.8058 197.311 28.7121Z" fill="white" stroke="#263238" stroke-linecap="round" stroke-linejoin="round"/>
<path d="M198.226 31.4583C197.369 32.597 196.601 33.7997 195.928 35.0559C195.855 35.5594 200.02 39.633 200.743 39.633C201.467 39.633 205.421 37.1889 205.275 36.1819C205.128 35.1749 201.1 32.154 200.386 31.4309C199.672 30.7077 199.031 30.4514 198.226 31.4583Z" fill="white" stroke="#263238" stroke-linecap="round" stroke-linejoin="round"/>
<path d="M197.164 36.493L201.045 31.8884" stroke="#263238" stroke-linecap="round" stroke-linejoin="round"/>
<path d="M203.206 34.1221L199.324 38.5069" stroke="#263238" stroke-linecap="round" stroke-linejoin="round"/>
<path d="M214.768 74.2908L202.922 49.4463L211.664 44.8691C211.664 44.8691 220.983 55.6803 224.782 63.1776C228.581 70.6749 230.275 82.6212 228.81 84.4612C227.346 86.3012 220.636 85.0287 217.303 82.9599" fill="#3266B1"/>
<path d="M214.768 74.2908L202.922 49.4463L211.664 44.8691C211.664 44.8691 220.983 55.6803 224.782 63.1776C228.581 70.6749 230.275 82.6212 228.81 84.4612C227.346 86.3012 220.636 85.0287 217.303 82.9599" stroke="#263238" stroke-linecap="round" stroke-linejoin="round"/>
<path d="M238.5 244.139C238.5 246.455 206.709 248.341 167.5 248.341C128.291 248.341 96.5 246.455 96.5 244.139C96.5 241.823 128.291 239.937 167.5 239.937C206.709 239.937 238.5 241.814 238.5 244.139Z" fill="#3266B1"/>
<path opacity="0.6" d="M238.5 244.139C238.5 246.455 206.709 248.341 167.5 248.341C128.291 248.341 96.5 246.455 96.5 244.139C96.5 241.823 128.291 239.937 167.5 239.937C206.709 239.937 238.5 241.814 238.5 244.139Z" fill="white"/>
</svg>
